<?xml version="1.0" encoding="utf-8"?>
<!-- Generator: Adobe Illustrator 22.0.1, SVG Export Plug-In . SVG Version: 6.00 Build 0)  -->
<svg version="1.1" id="Слой_1" xmlns="http://www.w3.org/2000/svg" xmlns:xlink="http://www.w3.org/1999/xlink" x="0px" y="0px"
	 viewBox="0 0 90 70" style="enable-background:new 0 0 90 70;" xml:space="preserve">
<style type="text/css">
	.st0{fill:#EAEBEC;}
	.st1{fill:none;stroke:#525254;stroke-width:1.5581;stroke-linecap:round;stroke-linejoin:round;stroke-miterlimit:10;}
	.st2{fill:#BC8B57;}
	.st3{fill:#C6975F;}
	.st4{fill:none;stroke:#C0C2C4;stroke-width:2.2749;stroke-linecap:round;stroke-linejoin:round;stroke-miterlimit:10;}
	.st5{fill:none;stroke:#96979A;stroke-width:1.5;stroke-linecap:round;stroke-linejoin:round;stroke-miterlimit:10;}
	.st6{fill:#96979A;}
	.st7{fill-rule:evenodd;clip-rule:evenodd;fill:#DADEE1;}
	.st8{fill:#FFFFFF;}
	.st9{fill-rule:evenodd;clip-rule:evenodd;fill:#EAEBEC;}
	.st10{fill-rule:evenodd;clip-rule:evenodd;fill:#96979A;}
	.st11{fill-rule:evenodd;clip-rule:evenodd;fill:url(#SVGID_1_);}
	.st12{fill:#3AA61E;}
	.st13{fill:#008922;}
	.st14{fill:#D6D7D8;}
	.st15{fill:#C0C2C4;}
	.st16{fill:#696A6C;stroke:#696A6C;stroke-width:1.8366;stroke-linecap:round;stroke-linejoin:round;stroke-miterlimit:10;}
	.st17{opacity:0.6;fill:#1B1819;}
	.st18{fill:#1B1819;}
	.st19{fill:none;stroke:#1B1819;stroke-width:1.5305;stroke-linecap:round;stroke-linejoin:round;stroke-miterlimit:10;}
	.st20{fill:#39393A;}
	.st21{fill:none;stroke:#6DCBE8;stroke-width:1.5305;stroke-linecap:round;stroke-linejoin:round;stroke-miterlimit:10;}
	.st22{fill:#6DCBE8;stroke:#6DCBE8;stroke-width:1.5305;stroke-miterlimit:10;}
	.st23{fill:#BA1020;}
	.st24{fill:#E5BE95;}
	.st25{fill:#F4D6B0;}
	.st26{fill:none;stroke:#C0C2C4;stroke-width:2;stroke-linecap:round;stroke-linejoin:round;stroke-miterlimit:10;}
	.st27{fill:none;stroke:#525254;stroke-width:2;stroke-linecap:round;stroke-linejoin:round;stroke-miterlimit:10;}
	.st28{fill:#BA1020;stroke:#BA1020;stroke-width:2;stroke-linecap:round;stroke-linejoin:round;stroke-miterlimit:10;}
	.st29{fill:#C7B599;}
	.st30{fill:none;stroke:#808183;stroke-width:2;stroke-linecap:round;stroke-linejoin:round;stroke-miterlimit:10;}
	.st31{fill:#696A6C;}
	.st32{fill:#2DAA5B;stroke:#2DAA5B;stroke-width:2;stroke-linecap:round;stroke-linejoin:round;stroke-miterlimit:10;}
	.st33{fill:#ACADAF;}
	.st34{fill:none;stroke:#ACADAF;stroke-width:2;stroke-linecap:round;stroke-linejoin:round;stroke-miterlimit:10;}
	.st35{fill:none;stroke:#BA1020;stroke-width:2;stroke-linecap:round;stroke-linejoin:round;stroke-miterlimit:10;}
	.st36{fill:none;stroke:#E52E28;stroke-linecap:round;stroke-linejoin:round;stroke-miterlimit:10;}
	.st37{fill:url(#SVGID_2_);}
	.st38{fill:url(#SVGID_3_);}
	.st39{fill:url(#SVGID_4_);}
	.st40{fill:#525254;}
	.st41{fill-rule:evenodd;clip-rule:evenodd;fill:#FFE100;}
	.st42{fill-rule:evenodd;clip-rule:evenodd;fill:#1B1819;}
	.st43{opacity:0.8;fill:#1B1819;}
	
		.st44{opacity:0.8;fill:none;stroke:#1B1819;stroke-width:1.3656;stroke-linecap:round;stroke-linejoin:round;stroke-miterlimit:10;}
	.st45{fill:none;stroke:#39393A;stroke-width:2.7311;stroke-linecap:round;stroke-linejoin:round;stroke-miterlimit:10;}
	.st46{fill:url(#SVGID_5_);}
	.st47{fill:url(#SVGID_6_);}
	.st48{fill:url(#SVGID_7_);}
	.st49{fill:url(#SVGID_8_);}
	.st50{fill:url(#SVGID_9_);}
	.st51{fill:url(#SVGID_10_);}
	.st52{fill:url(#SVGID_11_);}
	.st53{fill:url(#SVGID_12_);}
	.st54{fill:url(#SVGID_13_);}
	.st55{fill:url(#SVGID_14_);}
	.st56{fill:url(#SVGID_15_);}
	.st57{opacity:0.65;clip-path:url(#SVGID_17_);fill:url(#SVGID_18_);}
	.st58{opacity:0.65;clip-path:url(#SVGID_20_);fill:#C0C2C4;}
</style>
<g>
	<g>
		<path class="st0" d="M55.1,44.6h31c0.8,0,1.5-0.7,1.5-1.5V20.2c0-0.8-0.7-1.5-1.5-1.5H57.6"/>
		<polyline class="st17" points="57.6,28.7 87.6,28.7 87.6,23.3 57.6,23.3 		"/>
		<polyline class="st43" points="57.6,38.3 59.5,38.3 59.5,41.2 57.6,41.2 		"/>
		<rect x="62.4" y="38.3" class="st43" width="2.8" height="2.8"/>
		<line class="st44" x1="82.8" y1="38.3" x2="73" y2="38.3"/>
		<line class="st44" x1="82.8" y1="41.2" x2="77.9" y2="41.2"/>
	</g>
	<g>
		<path class="st20" d="M2.4,14.8c0-1.2,1-2.2,2.2-2.2h50.7c1.2,0,2.2,1,2.2,2.2v33.7c0,1.2-1,2.2-2.2,2.2H4.6c-1.2,0-2.2-1-2.2-2.2
			V14.8z"/>
		<line class="st45" x1="30" y1="53.7" x2="30" y2="57.4"/>
		<line class="st45" x1="19.6" y1="57.4" x2="40.3" y2="57.4"/>
		<rect x="4.8" y="15" class="st8" width="50.3" height="33.3"/>
	</g>
	<g>
		<linearGradient id="SVGID_1_" gradientUnits="userSpaceOnUse" x1="42.7815" y1="34.4499" x2="32.5866" y2="24.255">
			<stop  offset="0" style="stop-color:#C8131C"/>
			<stop  offset="0.5" style="stop-color:#FA2A35"/>
		</linearGradient>
		<path style="fill:url(#SVGID_1_);" d="M43.7,25.4c-0.5-0.6-1.5-1.4-3.3-1.4h-2.8h-2.8c-0.9,0-1.4,0-2,0c0.1,0.1,0.1,0.2,0.2,0.3
			c0.5,0.7,0.8,1.5,1,2.4c0.3,0,0.6,0,0.8,0h2.8h2.8c0.6,0,1,0.1,1.2,0.4c0.2,0.2,0.2,0.5,0.1,0.9c-0.1,0.5-0.3,0.7-0.7,0.9
			c-0.2,0.1-0.5,0.1-1,0.1h-2.5h-2.5c-0.3,0-0.8,0-1.1,0c-0.3,1.4-1.1,2.4-2.1,3.1c0.1,0.2,0.1,0.4,0.2,0.6c1,3,3.2,3.5,4.4,3.5h4.2
			c0.7,0,1.3-0.6,1.3-1.3c0-0.7-0.6-1.3-1.3-1.3h-4.2c-0.6,0-1.4-0.2-1.8-1.7c0-0.1,0-0.2-0.1-0.2c0.2,0,0.4,0,0.6,0h2.5H40
			c1,0,1.9-0.2,2.6-0.6c0.8-0.5,1.4-1.3,1.6-2.4C44.5,27.4,44.3,26.3,43.7,25.4z"/>
		<linearGradient id="SVGID_2_" gradientUnits="userSpaceOnUse" x1="34.9033" y1="23.1624" x2="34.9033" y2="20.6566">
			<stop  offset="0.3" style="stop-color:#FA2530"/>
			<stop  offset="1" style="stop-color:#FF8B91"/>
		</linearGradient>
		<path class="st37" d="M34.9,23.2c0.7,0,1.3-0.6,1.3-1.3c0-0.7-0.6-1.3-1.3-1.3c-0.7,0-1.3,0.6-1.3,1.3
			C33.7,22.6,34.2,23.2,34.9,23.2z"/>
		<linearGradient id="SVGID_3_" gradientUnits="userSpaceOnUse" x1="40.2069" y1="23.1624" x2="40.2069" y2="20.6566">
			<stop  offset="0.3" style="stop-color:#FA2530"/>
			<stop  offset="1" style="stop-color:#FF8B91"/>
		</linearGradient>
		<path class="st38" d="M40.2,23.2c0.7,0,1.3-0.6,1.3-1.3c0-0.7-0.6-1.3-1.3-1.3c-0.7,0-1.3,0.6-1.3,1.3
			C39,22.6,39.5,23.2,40.2,23.2z"/>
		<g>
			<linearGradient id="SVGID_4_" gradientUnits="userSpaceOnUse" x1="29.4737" y1="36.0102" x2="23.5443" y2="23.2945">
				<stop  offset="0" style="stop-color:#C8131C"/>
				<stop  offset="0.3" style="stop-color:#FA2530"/>
				<stop  offset="0.65" style="stop-color:#FA2A35"/>
				<stop  offset="1" style="stop-color:#FF999E"/>
			</linearGradient>
			<path class="st39" d="M32.7,26.8C32.7,26.8,32.7,26.7,32.7,26.8c-0.1-0.5-0.3-1-0.6-1.3c-0.1-0.1-0.3-0.3-0.4-0.5
				C31,24.5,30.1,24,28.7,24h-2.8h-2.8c-1.3,0-2.2,0.4-2.7,0.8c-0.2,0.2-0.4,0.4-0.6,0.6c-0.3,0.4-0.5,0.8-0.6,1.2
				c-0.2,0.6-0.2,1.2,0,1.9c0,0.1,0,0.1,0,0.2c0,0.1,0.3,1.2,0.6,2.2c0.2,0.6,0.4,1.3,0.5,1.6c1,3,3.2,3.5,4.4,3.5h4.2
				c0.7,0,1.3-0.6,1.3-1.3c0-0.7-0.6-1.3-1.3-1.3h-4.2c-0.6,0-1.4-0.2-1.8-1.7c0-0.1,0-0.2-0.1-0.2c0.2,0,0.4,0,0.6,0h2.5h2.5
				c1,0,1.9-0.2,2.6-0.6c0.1-0.1,0.3-0.2,0.4-0.3c0.6-0.5,1-1.2,1.2-2.1C32.8,28,32.8,27.3,32.7,26.8z M30.1,28
				c-0.1,0.5-0.3,0.7-0.7,0.9c-0.2,0.1-0.5,0.1-1,0.1h-2.5h-2.5c-0.4,0-0.7,0-1-0.1c-0.4-0.1-0.6-0.4-0.7-0.9
				c-0.1-0.4-0.1-0.7,0.1-0.9c0.2-0.2,0.6-0.4,1.2-0.4h2.8h2.8c0.6,0,1,0.1,1.2,0.4C30.1,27.3,30.2,27.6,30.1,28z"/>
		</g>
		<g>
			<linearGradient id="SVGID_5_" gradientUnits="userSpaceOnUse" x1="23.2879" y1="23.1624" x2="23.2879" y2="20.6566">
				<stop  offset="0.3" style="stop-color:#FA2530"/>
				<stop  offset="1" style="stop-color:#FF8B91"/>
			</linearGradient>
			<path class="st46" d="M23.3,23.2c0.4,0,0.7-0.2,1-0.5c0.2-0.2,0.3-0.5,0.3-0.8c0-0.7-0.6-1.3-1.3-1.3c-0.7,0-1.3,0.6-1.3,1.3
				c0,0.3,0.1,0.6,0.3,0.8C22.6,23,22.9,23.2,23.3,23.2z"/>
			<linearGradient id="SVGID_6_" gradientUnits="userSpaceOnUse" x1="28.5916" y1="23.1624" x2="28.5916" y2="20.6566">
				<stop  offset="0.3" style="stop-color:#FA2530"/>
				<stop  offset="1" style="stop-color:#FF8B91"/>
			</linearGradient>
			<path class="st47" d="M28.6,23.2c0.4,0,0.7-0.2,1-0.5c0.2-0.2,0.3-0.5,0.3-0.8c0-0.7-0.6-1.3-1.3-1.3c-0.7,0-1.3,0.6-1.3,1.3
				c0,0.3,0.1,0.6,0.3,0.8C27.9,23,28.2,23.2,28.6,23.2z"/>
		</g>
		<g>
			<linearGradient id="SVGID_7_" gradientUnits="userSpaceOnUse" x1="34.8868" y1="39.4758" x2="34.8868" y2="36.97">
				<stop  offset="0" style="stop-color:#2F699C"/>
				<stop  offset="1" style="stop-color:#3383C9"/>
			</linearGradient>
			<path class="st48" d="M34.9,37c-0.7,0-1.3,0.6-1.3,1.3c0,0.7,0.6,1.3,1.3,1.3c0.7,0,1.2-0.5,1.2-1.2C36.1,37.6,35.6,37,34.9,37z"
				/>
			<linearGradient id="SVGID_8_" gradientUnits="userSpaceOnUse" x1="40.2069" y1="39.4758" x2="40.2069" y2="36.97">
				<stop  offset="0" style="stop-color:#2F699C"/>
				<stop  offset="1" style="stop-color:#3383C9"/>
			</linearGradient>
			<path class="st49" d="M40.2,37c-0.7,0-1.3,0.6-1.3,1.3c0,0.7,0.6,1.3,1.3,1.3c0.7,0,1.3-0.6,1.3-1.3C41.5,37.5,40.9,37,40.2,37z"
				/>
			<linearGradient id="SVGID_9_" gradientUnits="userSpaceOnUse" x1="23.2879" y1="39.5093" x2="23.2879" y2="37.0035">
				<stop  offset="0" style="stop-color:#2F699C"/>
				<stop  offset="1" style="stop-color:#3383C9"/>
			</linearGradient>
			<path class="st50" d="M23.3,37c-0.1,0-0.3,0-0.4,0.1c-0.5,0.2-0.8,0.6-0.8,1.2c0,0.7,0.6,1.3,1.3,1.3c0.7,0,1.3-0.6,1.3-1.3
				c0-0.4-0.2-0.7-0.4-0.9C23.9,37.1,23.6,37,23.3,37z"/>
			<linearGradient id="SVGID_10_" gradientUnits="userSpaceOnUse" x1="28.5916" y1="39.5093" x2="28.5916" y2="37.0035">
				<stop  offset="0" style="stop-color:#2F699C"/>
				<stop  offset="1" style="stop-color:#3383C9"/>
			</linearGradient>
			<path class="st51" d="M28.6,37c-0.4,0-0.7,0.1-0.9,0.4c-0.2,0.2-0.4,0.5-0.4,0.9c0,0.7,0.6,1.3,1.3,1.3c0.7,0,1.3-0.6,1.3-1.3
				c0-0.4-0.2-0.7-0.4-0.9C29.2,37.1,28.9,37,28.6,37z"/>
		</g>
		<linearGradient id="SVGID_11_" gradientUnits="userSpaceOnUse" x1="17.8458" y1="25.4868" x2="17.8458" y2="21.7694">
			<stop  offset="0.25" style="stop-color:#2F699C"/>
			<stop  offset="1" style="stop-color:#3383C9"/>
		</linearGradient>
		<path class="st52" d="M19.9,23.6c-0.7-1.2-1.9-1.8-3.6-1.8c-0.4,0-0.8,0.4-0.8,0.8c0,0.4,0.4,0.8,0.8,0.8c0.7,0,1.9,0.2,2.3,1.3
			c0,0,0,0.1,0,0.1c0.1,0.2,0.2,0.5,0.2,0.7c0.1-0.2,0.2-0.4,0.4-0.6c0.2-0.2,0.5-0.5,0.9-0.8c0,0,0-0.1,0-0.1
			C20.1,23.9,20,23.8,19.9,23.6z"/>
		<g>
			<defs>
				<path id="SVGID_16_" d="M43.7,25.4c-0.5-0.6-1.5-1.4-3.3-1.4h-2.8h-2.8c-0.9,0-1.4,0-2,0c0.1,0.1,0.1,0.2,0.2,0.3
					c0.5,0.7,0.8,1.5,1,2.4c0.3,0,0.6,0,0.8,0h2.8h2.8c0.6,0,1,0.1,1.2,0.4c0.2,0.2,0.2,0.5,0.1,0.9c-0.1,0.5-0.3,0.7-0.7,0.9
					c-0.2,0.1-0.5,0.1-1,0.1h-2.5h-2.5c-0.3,0-0.8,0-1.1,0c-0.3,1.4-1.1,2.4-2.1,3.1c0.1,0.2,0.1,0.4,0.2,0.6c1,3,3.2,3.5,4.4,3.5
					h4.2c0.7,0,1.3-0.6,1.3-1.3c0-0.7-0.6-1.3-1.3-1.3h-4.2c-0.6,0-1.4-0.2-1.8-1.7c0-0.1,0-0.2-0.1-0.2c0.2,0,0.4,0,0.6,0h2.5H40
					c1,0,1.9-0.2,2.6-0.6c0.8-0.5,1.4-1.3,1.6-2.4C44.5,27.4,44.3,26.3,43.7,25.4z"/>
			</defs>
			<clipPath id="SVGID_12_">
				<use xlink:href="#SVGID_16_"  style="overflow:visible;"/>
			</clipPath>
			<radialGradient id="SVGID_13_" cx="28.3209" cy="27.342" r="8.6279" gradientUnits="userSpaceOnUse">
				<stop  offset="0" style="stop-color:#000000"/>
				<stop  offset="1" style="stop-color:#000000;stop-opacity:0"/>
			</radialGradient>
			<circle style="opacity:0.65;clip-path:url(#SVGID_12_);fill:url(#SVGID_13_);" cx="28.3" cy="27.3" r="8.6"/>
		</g>
	</g>
</g>
</svg>
