<?xml version="1.0" encoding="utf-8"?>
<!-- Generator: Adobe Illustrator 22.0.1, SVG Export Plug-In . SVG Version: 6.00 Build 0)  -->
<svg version="1.1" id="Слой_1" xmlns="http://www.w3.org/2000/svg" xmlns:xlink="http://www.w3.org/1999/xlink" x="0px" y="0px"
	 viewBox="0 0 100 60" style="enable-background:new 0 0 100 60;" xml:space="preserve">
<style type="text/css">
	.st0{fill:#EAEBEC;}
	.st1{fill:none;stroke:#525254;stroke-width:1.5581;stroke-linecap:round;stroke-linejoin:round;stroke-miterlimit:10;}
	.st2{fill:#BC8B57;}
	.st3{fill:#C6975F;}
	.st4{fill:none;stroke:#C0C2C4;stroke-width:2.2749;stroke-linecap:round;stroke-linejoin:round;stroke-miterlimit:10;}
	.st5{fill:none;stroke:#96979A;stroke-width:1.5;stroke-linecap:round;stroke-linejoin:round;stroke-miterlimit:10;}
	.st6{fill:#96979A;}
	.st7{fill-rule:evenodd;clip-rule:evenodd;fill:#DADEE1;}
	.st8{fill:#FFFFFF;}
	.st9{fill-rule:evenodd;clip-rule:evenodd;fill:#EAEBEC;}
	.st10{fill-rule:evenodd;clip-rule:evenodd;fill:#96979A;}
	.st11{fill-rule:evenodd;clip-rule:evenodd;fill:url(#SVGID_1_);}
	.st12{fill:#3AA61E;}
	.st13{fill:#008922;}
	.st14{fill:#D6D7D8;}
	.st15{fill:#C0C2C4;}
	.st16{fill:#696A6C;stroke:#696A6C;stroke-width:1.8366;stroke-linecap:round;stroke-linejoin:round;stroke-miterlimit:10;}
	.st17{opacity:0.6;fill:#1B1819;}
	.st18{fill:#1B1819;}
	.st19{fill:none;stroke:#1B1819;stroke-width:1.5305;stroke-linecap:round;stroke-linejoin:round;stroke-miterlimit:10;}
	.st20{fill:#39393A;}
	.st21{fill:none;stroke:#6DCBE8;stroke-width:1.5305;stroke-linecap:round;stroke-linejoin:round;stroke-miterlimit:10;}
	.st22{fill:#6DCBE8;stroke:#6DCBE8;stroke-width:1.5305;stroke-miterlimit:10;}
	.st23{fill:#BA1020;}
	.st24{fill:#E5BE95;}
	.st25{fill:#F4D6B0;}
	.st26{fill:none;stroke:#C0C2C4;stroke-width:2;stroke-linecap:round;stroke-linejoin:round;stroke-miterlimit:10;}
	.st27{fill:none;stroke:#525254;stroke-width:2;stroke-linecap:round;stroke-linejoin:round;stroke-miterlimit:10;}
	.st28{fill:#BA1020;stroke:#BA1020;stroke-width:2;stroke-linecap:round;stroke-linejoin:round;stroke-miterlimit:10;}
	.st29{fill:#C7B599;}
	.st30{fill:none;stroke:#808183;stroke-width:2;stroke-linecap:round;stroke-linejoin:round;stroke-miterlimit:10;}
	.st31{fill:#696A6C;}
	.st32{fill:#2DAA5B;stroke:#2DAA5B;stroke-width:2;stroke-linecap:round;stroke-linejoin:round;stroke-miterlimit:10;}
	.st33{fill:#ACADAF;}
	.st34{fill:none;stroke:#ACADAF;stroke-width:2;stroke-linecap:round;stroke-linejoin:round;stroke-miterlimit:10;}
	.st35{fill:none;stroke:#BA1020;stroke-width:2;stroke-linecap:round;stroke-linejoin:round;stroke-miterlimit:10;}
	.st36{fill:none;stroke:#E52E28;stroke-linecap:round;stroke-linejoin:round;stroke-miterlimit:10;}
	.st37{fill:url(#SVGID_2_);}
	.st38{fill:url(#SVGID_3_);}
	.st39{fill:url(#SVGID_4_);}
	.st40{fill:#525254;}
	.st41{fill-rule:evenodd;clip-rule:evenodd;fill:#FFE100;}
	.st42{fill-rule:evenodd;clip-rule:evenodd;fill:#1B1819;}
	.st43{opacity:0.8;fill:#1B1819;}
	
		.st44{opacity:0.8;fill:none;stroke:#1B1819;stroke-width:1.3656;stroke-linecap:round;stroke-linejoin:round;stroke-miterlimit:10;}
	.st45{fill:none;stroke:#39393A;stroke-width:2.7311;stroke-linecap:round;stroke-linejoin:round;stroke-miterlimit:10;}
	.st46{fill:url(#SVGID_5_);}
	.st47{fill:url(#SVGID_6_);}
	.st48{fill:url(#SVGID_7_);}
	.st49{fill:url(#SVGID_8_);}
	.st50{fill:url(#SVGID_9_);}
	.st51{fill:url(#SVGID_10_);}
	.st52{fill:url(#SVGID_11_);}
	.st53{fill:url(#SVGID_12_);}
	.st54{fill:url(#SVGID_13_);}
	.st55{fill:url(#SVGID_14_);}
	.st56{fill:url(#SVGID_15_);}
	.st57{opacity:0.65;clip-path:url(#SVGID_17_);fill:url(#SVGID_18_);}
	.st58{opacity:0.65;clip-path:url(#SVGID_20_);fill:#C0C2C4;}
</style>
<g>
	<g>
		<path class="st6" d="M45.5,29.9c0.1-0.2,0.2-0.4,0.4-0.5h0.1v3.9h1.8v-6.7h-1.8l-2,3.1c-0.1,0.2-0.2,0.3-0.3,0.5
			c-0.1,0.2-0.2,0.3-0.3,0.5h-0.1v-4.1h-1.8v6.7h1.8c0.3-0.5,0.7-0.9,1-1.4c0.3-0.5,0.7-1,1-1.4C45.3,30.2,45.4,30,45.5,29.9"/>
		<polygon class="st6" points="51.2,30.5 53.9,30.5 53.9,33.3 55.7,33.3 55.7,26.6 53.9,26.6 53.9,29.1 51.2,29.1 51.2,26.6 
			49.4,26.6 49.4,33.3 51.2,33.3 		"/>
		<path class="st6" d="M63.1,31.1c0-0.7-0.2-1.2-0.7-1.6c-0.5-0.4-1.1-0.6-1.9-0.6h-1.3v-2.4h-1.8v6.7h3.2c0.8,0,1.4-0.2,1.9-0.5
			C62.8,32.4,63.1,31.9,63.1,31.1 M61,31.7c-0.2,0.1-0.4,0.2-0.7,0.2h-1.2v-1.6h1.1c0.3,0,0.5,0.1,0.7,0.2c0.2,0.1,0.3,0.3,0.3,0.6
			C61.3,31.4,61.2,31.6,61,31.7"/>
		<path class="st6" d="M86.1,32.4c0.3-0.3,0.6-0.7,0.7-1.1c0.2-0.4,0.3-0.9,0.3-1.4c0-0.5-0.1-1-0.3-1.4c-0.2-0.4-0.4-0.8-0.7-1.1
			c-0.3-0.3-0.7-0.5-1.1-0.7c-0.4-0.2-0.9-0.3-1.4-0.3v-2.5l-1.7,0.6v1.9c-0.5,0-1,0.1-1.4,0.3c-0.4,0.2-0.8,0.4-1.1,0.7
			c-0.3,0.3-0.6,0.6-0.8,1.1c-0.2,0.4-0.3,0.9-0.3,1.3c0,0.5,0.1,1,0.3,1.4c0.2,0.4,0.4,0.8,0.7,1.1c0.3,0.3,0.7,0.5,1.1,0.7
			c0.4,0.2,0.9,0.3,1.5,0.3v2.8l1.7-0.6v-2.2c0.5,0,1-0.1,1.4-0.3C85.4,32.9,85.8,32.7,86.1,32.4 M81.9,32.1c-0.3,0-0.5-0.1-0.7-0.2
			c-0.2-0.1-0.4-0.2-0.6-0.4c-0.2-0.2-0.3-0.4-0.4-0.7c-0.1-0.3-0.2-0.6-0.2-0.9c0-0.6,0.2-1.1,0.5-1.5c0.3-0.4,0.8-0.6,1.4-0.7
			V32.1z M84.3,31.9c-0.2,0.1-0.4,0.2-0.7,0.2v-4.3c0.6,0,1,0.3,1.4,0.7c0.3,0.4,0.5,0.9,0.5,1.5c0,0.3-0.1,0.7-0.2,0.9
			c-0.1,0.3-0.2,0.5-0.4,0.7C84.7,31.7,84.5,31.8,84.3,31.9"/>
		<path class="st6" d="M96.6,31.3c0.2-0.4,0.3-0.9,0.3-1.4c0-0.5-0.1-1-0.3-1.4c-0.2-0.4-0.4-0.8-0.7-1.1c-0.3-0.3-0.7-0.5-1.1-0.7
			c-0.4-0.2-0.9-0.3-1.4-0.3v-2.5l-1.7,0.6v1.9c-0.5,0-1,0.1-1.4,0.3c-0.4,0.2-0.8,0.4-1.1,0.7c-0.3,0.3-0.6,0.6-0.8,1.1
			c-0.2,0.4-0.3,0.9-0.3,1.3c0,0.5,0.1,1,0.3,1.4c0.2,0.4,0.4,0.8,0.7,1.1c0.3,0.3,0.7,0.5,1.1,0.7c0.4,0.2,0.9,0.3,1.5,0.3v2.8
			l1.7-0.6v-2.2c0.5,0,1-0.1,1.4-0.3c0.4-0.2,0.8-0.4,1.1-0.7C96.2,32.1,96.4,31.7,96.6,31.3 M91.7,32.1c-0.3,0-0.5-0.1-0.7-0.2
			c-0.2-0.1-0.4-0.2-0.6-0.4c-0.2-0.2-0.3-0.4-0.4-0.7c-0.1-0.3-0.1-0.6-0.1-0.9c0-0.6,0.2-1.1,0.5-1.5c0.3-0.4,0.8-0.6,1.4-0.7
			V32.1z M95,30.8c-0.1,0.3-0.2,0.5-0.4,0.7c-0.2,0.2-0.4,0.3-0.6,0.4c-0.2,0.1-0.5,0.2-0.7,0.2v-4.3c0.6,0,1,0.3,1.4,0.7
			c0.3,0.4,0.5,0.9,0.5,1.5C95.2,30.3,95.1,30.6,95,30.8"/>
		<polygon class="st6" points="34.1,25.3 36.8,25.3 36.8,33.3 38.6,33.3 38.6,25.3 41.1,25.3 41.1,23.7 34.1,23.7 		"/>
		<polygon class="st6" points="70.5,26.6 68.5,26.6 66.1,29.5 66.1,26.6 64.3,26.6 64.3,33.3 66.1,33.3 66.1,30 68.4,33.3 
			70.5,33.3 67.9,29.7 		"/>
		<path class="st6" d="M76.5,27.4c-0.3-0.3-0.6-0.5-1-0.7c-0.4-0.2-0.8-0.2-1.3-0.2c-0.5,0-0.9,0.1-1.3,0.2c-0.4,0.2-0.7,0.4-1,0.7
			c-0.3,0.3-0.5,0.7-0.7,1.1c-0.2,0.4-0.2,0.9-0.2,1.5c0,0.5,0.1,1,0.2,1.4c0.2,0.4,0.4,0.8,0.7,1.1c0.3,0.3,0.6,0.5,1,0.7
			c0.4,0.2,0.8,0.2,1.3,0.2c0.5,0,0.9-0.1,1.3-0.2c0.4-0.2,0.8-0.4,1-0.7c0.3-0.3,0.5-0.7,0.7-1.1c0.2-0.4,0.2-0.9,0.2-1.5
			c0-0.5-0.1-1-0.2-1.4C77,28.1,76.8,27.7,76.5,27.4 M75.5,30.7c-0.1,0.2-0.2,0.5-0.3,0.7c-0.1,0.2-0.3,0.3-0.5,0.4
			c-0.2,0.1-0.4,0.2-0.6,0.2c-0.5,0-0.8-0.2-1.1-0.5c-0.3-0.4-0.4-0.9-0.4-1.5c0-0.6,0.1-1.1,0.4-1.5c0.2-0.4,0.6-0.6,1.1-0.6
			c0.5,0,0.9,0.2,1.1,0.6c0.3,0.4,0.4,0.9,0.4,1.5C75.6,30.2,75.6,30.5,75.5,30.7"/>
	</g>
	<g>
		<g>
			<path class="st7" d="M10.9,35.5c0.3-0.3,0.6-0.4,0.6-1.1c-0.5,0.3-2,0.2-2.6-0.6c-0.2-0.2,0-0.4,0.2-0.2c0.4,0.5,1.2,0.3,1.5,0.1
				c0-0.2-0.2-0.4-0.3-0.5c0.1-0.1,0.4-0.3,0.5-0.5c-0.2-0.1-0.8-0.1-0.8-0.1c0.1-0.1,0.2-0.2,0.2-0.6c-0.6,0.2-1.4-0.1-1.6-0.3
				c-0.2-0.2,0-0.4,0.1-0.3c0.3,0.3,1.9,0.7,2.5,0.1c-0.2-0.1-0.5-0.3-0.5-0.4c0.5-0.1,1-0.4,1-0.8c-0.3,0-0.9,0-1-0.2
				c0.3-0.1,0.4-0.2,0.5-0.5c-1-0.1-1.1-0.8-1.1-0.9c0.6,0.4,1.8,0.2,1.5-0.7c-0.5,0-1.1-0.9,0.4-1.7c1.3-0.7,2.8-1.5,2.7-2.8
				C14.5,23,13.2,22.4,13,22c-0.6,0.3-0.7,0.6-0.4,1.1c0,0-1.2,0.1-1.3-0.6c0-0.3,0.2-0.7,0.4-0.9c-0.1,0-1.1-0.3-1.4,0.5
				c-0.5-0.4-1-0.3-1.3,0c0.6,0.3,0.9,1.5,1.9,1.8c-0.7,0.4-1.7,0.2-2.4-0.9c-0.6,0.9-0.9,1.8,0.3,2.7c-2.3,1.1-2.3,3.1-4.3,4
				c0.2,0.5,0.6,0.5,1.2,0.5c-0.9,1.1-0.1,2.3-1.5,2.8c0.1,0.5,0.4,0.8,0.9,0.7C4.9,34,4.8,34,4.6,34.2c0.8,0.5,1.7,0.1,1.9-1.4
				c0-0.3,0.4-0.1,0.3,0.2c-0.9,1.8,1.3,3.1,0.5,4.4c0.7,0,1.2-0.1,1.5-0.3C8.9,37.4,9,37.7,9,37.9c0.4-0.1,0.5-0.3,0.5-0.6
				c0.2,0.7,1.1,1.5,2.5,1.5C11.3,37.8,12,36.7,10.9,35.5 M9.5,36.8l-0.3,0.5c-0.1-0.3-0.3-0.7-0.4-0.9c-0.2,0.5-0.6,0.5-1,0.5
				c0.1-1.2-1.4-2.4-0.8-3.8c0.1-0.3,0-0.6-0.2-0.7c-1-0.5-0.5,1.6-1.5,1.7c0.2-0.2,0.3-0.7,0.3-0.8c-0.2,0.1-0.7,0.4-1,0
				c0.6-0.3,0.8-0.8,0.8-1.3c0.1-0.6,0.2-0.9,0.3-1.1c0.1-0.3,0.3-0.5,0.7-1.1c-0.1,0-1.2,0.3-1.5,0.1c2-1.2,1.5-2.7,4.5-4.1
				c-0.8-0.6-1.6-1-1-2.2c0.8,1,2.4,0.6,3.2,0.2c-0.8-0.2-1.9-0.9-2.1-1.7c0.3,0,0.7,0.3,0.9,0.4c0.1-0.3,0.2-0.6,0.5-0.7
				c-0.5,1,0.5,1.6,1.4,1.6c0.1,0,0.7-0.1,0.7-0.1c-0.1-0.2-0.5-0.7-0.2-0.9c0.2,0.2,0.5,0.4,0.7,0.6c1.8,1.4-0.8,2.6-1.9,3.2
				c-1.7,0.9-1.2,2-0.5,2.3c0,0.1-0.1,0.2-0.2,0.2c-0.5,0.2-1-0.2-1.3-0.4c0,0.7,0,1.3,0.7,1.7l-0.5,0.2c0.4,0.3,0.6,0.5,1.1,0.6
				c-0.2,0.1-0.6,0.1-0.8,0.1c0.1,0.2,0.1,0.4,0.3,0.6c-1.1,0.1-1.5-0.5-1.9-0.5c-0.7,0.1-0.7,1.4,1.1,1.4l-0.2,0.3
				c0,0,0.3,0.2,0.6,0.2c-0.1,0.1-0.2,0.2-0.3,0.3l0.3,0.2c-0.7,0.1-0.9-0.6-1.4-0.3c-0.7,0.6,0.9,1.8,2.4,1.6
				c-0.1,0.2-0.5,0.4-0.6,0.5c1.2,1.2,0.6,2.3,1.1,3.1C10.5,38.4,9.7,37.7,9.5,36.8"/>
			<path class="st7" d="M7.6,32.6c0.3,0.3,0.6,0.3,1.2,0.3c-0.6-0.1-1-0.2-1.2-0.7c0-0.2-0.1-0.5-0.1-0.7c0-0.7,0.2-1.5,0.7-2.4
				c0,0.6,0.4,1.4,1.4,1.6c-0.9-0.4-1.4-1.3-1.1-2.1c0.2-0.3,0.4-0.6,0.6-0.9c0.1-0.2,0.2-0.3,0.3-0.4c-0.1,0.4,0.4,0.9,0.8,1
				c-0.2-0.2-0.6-0.8,0.3-1.8c-0.3,0.1-0.5,0.3-0.8,0.5c1.7-1.8,3.1-1.9,3.7-2.8c-0.9,0.6-3.4,1-4.5,0.7c0.6,0.4,2.1,0.4,2.4,0.3
				c-1.2,1.2-3.8,2.4-4.3,3.5c0.6-0.7,1.1-0.8,1.6-1c-0.4,0.7-0.8,1.2-1.1,1.9c-0.7,1.5-1.6,1.5-1.7,2.8c0.3-1,1-1.2,1.4-1.9
				c-0.1,0.4-0.1,0.9-0.1,1.4c0,0.6,0.1,1.1,0.3,1.5c0,0.6,0,1.7,0.7,2.4c-0.5-0.6-0.6-1.6-0.5-2c0.6,1.1,2.1,2.5,2.9,3.5
				C9.9,35.8,8,34.3,7.6,32.6"/>
			<path class="st7" d="M25.1,27.4c0.6,0.2,1,0.3,1.6,1c-0.5-1.1-3.1-2.3-4.3-3.5c0.4,0.1,1.8,0.1,2.4-0.3c-1.1,0.3-3.6,0-4.5-0.7
				c0.6,0.9,2,1,3.7,2.8c-0.2-0.2-0.5-0.3-0.8-0.5c0.9,1,0.5,1.6,0.3,1.8c0.4-0.1,0.9-0.5,0.8-1c0.1,0.1,0.2,0.3,0.3,0.4
				c0.2,0.3,0.4,0.6,0.6,0.9c0.3,0.8-0.2,1.7-1.1,2.1c1-0.1,1.4-1,1.4-1.6c0.5,0.9,0.7,1.7,0.7,2.4c0,0.3,0,0.5-0.1,0.7
				c-0.2,0.4-0.6,0.6-1.2,0.7c0.6,0,0.9,0,1.2-0.3c-0.4,1.7-2.3,3.2-3,4.5c0.8-1,2.3-2.5,2.9-3.5c0,0.4-0.1,1.4-0.5,2
				c0.7-0.7,0.8-1.8,0.7-2.4c0.2-0.4,0.3-0.9,0.3-1.5c0-0.5,0-1-0.1-1.4c0.4,0.6,1.1,0.9,1.4,1.9c-0.1-1.3-1-1.3-1.7-2.8
				C25.9,28.6,25.5,28.1,25.1,27.4"/>
			<path class="st7" d="M28.1,30.3c0.5,0.1,1,0.1,1.2-0.5c-2-1-2-3-4.3-4c1.3-0.9,0.9-1.8,0.3-2.7c-0.6,1.1-1.7,1.3-2.4,0.9
				c0.9-0.3,1.3-1.5,1.9-1.8c-0.4-0.4-0.8-0.4-1.3,0c-0.3-0.8-1.2-0.5-1.4-0.5c0.2,0.2,0.5,0.6,0.4,0.9c-0.1,0.8-1.3,0.6-1.3,0.6
				c0.3-0.5,0.1-0.8-0.4-1.1c-0.2,0.4-1.5,1-1.6,1.8c-0.1,1.3,1.4,2,2.7,2.8c1.5,0.8,0.9,1.6,0.4,1.7c-0.3,0.9,0.8,1.1,1.5,0.7
				c0,0.1-0.1,0.8-1.1,0.9c0.1,0.3,0.2,0.4,0.5,0.5c-0.2,0.1-0.7,0.2-1,0.2c0,0.4,0.5,0.7,1,0.8c0,0.1-0.3,0.3-0.5,0.4
				c0.6,0.6,2.1,0.2,2.5-0.1c0.1-0.2,0.3,0.1,0.2,0.3c-0.2,0.2-1,0.5-1.6,0.3c-0.1,0.4,0,0.5,0.1,0.6c0,0-0.6,0.1-0.8,0.1
				c0.1,0.3,0.4,0.4,0.5,0.5c-0.1,0.1-0.2,0.3-0.3,0.5c0.3,0.1,1.1,0.4,1.5-0.1c0.2-0.2,0.4-0.1,0.2,0.2c-0.6,0.8-2.1,0.9-2.6,0.6
				c0,0.7,0.3,0.8,0.6,1.1c-1.1,1.2-0.4,2.3-1.1,3.4c1.4,0,2.3-0.8,2.5-1.5c0,0.3,0.2,0.5,0.5,0.6c0-0.3,0.1-0.5,0.2-0.8
				c0.3,0.2,0.8,0.3,1.5,0.3c-0.8-1.3,1.4-2.6,0.5-4.4c-0.1-0.3,0.2-0.4,0.3-0.2c0.2,1.5,1.1,1.9,1.9,1.4C29,34,28.9,34,28.8,33.8
				c0.5,0.1,0.8-0.2,0.9-0.7C28.3,32.6,29,31.4,28.1,30.3 M28.3,33.3c0,0,0.1,0.5,0.3,0.8c-1-0.1-0.5-2.2-1.5-1.7
				c-0.3,0.1-0.4,0.5-0.2,0.7c0.7,1.4-0.8,2.6-0.8,3.8c-0.4,0-0.8,0-1-0.5c-0.1,0.2-0.3,0.6-0.4,0.9l-0.3-0.5c-0.2,0.8-1,1.6-2,1.7
				c0.5-0.8-0.1-1.9,1.1-3.1c-0.2-0.1-0.5-0.4-0.6-0.5c1.5,0.2,3.1-1,2.4-1.6c-0.5-0.4-0.7,0.4-1.4,0.3l0.3-0.2
				c-0.1-0.1-0.2-0.2-0.3-0.3c0.3,0,0.6-0.2,0.6-0.2l-0.2-0.3c1.8,0,1.8-1.4,1.1-1.4c-0.3,0-0.8,0.6-1.9,0.5
				c0.1-0.2,0.2-0.4,0.3-0.6c-0.3,0-0.6,0-0.8-0.1c0.5-0.1,0.7-0.2,1.1-0.6L23.4,30c0.7-0.4,0.7-1,0.7-1.7c-0.4,0.2-0.9,0.6-1.3,0.4
				c-0.1,0-0.2-0.1-0.2-0.2c0.7-0.3,1.2-1.4-0.5-2.3c-1.1-0.6-3.7-1.9-1.9-3.2c0.2-0.2,0.5-0.4,0.7-0.6c0.3,0.2-0.1,0.7-0.2,0.9
				c0,0,0.6,0.1,0.7,0.1c0.9,0,1.9-0.5,1.4-1.6c0.4,0.1,0.4,0.4,0.5,0.7c0.2-0.2,0.6-0.5,1-0.4c-0.3,0.8-1.3,1.5-2.1,1.7
				c0.8,0.5,2.4,0.8,3.2-0.2c0.6,1.1-0.2,1.6-1,2.2c3,1.4,2.5,2.9,4.5,4.1c-0.3,0.1-1.4-0.1-1.5-0.1c0.4,0.5,0.6,0.8,0.7,1.1
				c0.1,0.3,0.2,0.5,0.3,1.1c0.1,0.5,0.3,1,0.8,1.3C29,33.7,28.5,33.3,28.3,33.3"/>
			<path class="st7" d="M14.1,36.6l0.4-0.4l-0.1-0.1c0-0.1,0-0.1,0-0.1l0.2-0.2c0.1,0,0.1,0,0.2,0l0.7,0.2h-0.7
				c-0.2,0-0.2,0.1-0.3,0.2l0,0.1l-0.2,0.4c-0.1,0.1-0.1,0.3,0.1,0.5l0.1,0.2l-0.3,0.5h0.2l0.2-0.4c0,0,0.3-0.3,0.3-0.5
				c-0.1-0.1-0.1-0.1-0.1-0.2l0.1-0.2c0-0.1,0-0.1,0.1-0.1l0.7,0.2c0.1,0,0.2,0.1,0.3-0.1c0.1-0.1,0.1-0.1,0.3-0.1l0.4,0
				c0.5,0,1-0.1,1.2-0.2c0.1,0.2,0.2,0.3,0.3,0.4c0,0,0,0.1,0,0.2l-0.4,1h0.6l0.4-0.9c0-0.1,0.1-0.2,0.1-0.2l-0.2,1.1h0.6l0.2-1.1
				c0-0.2,0-0.3-0.1-0.4c-0.3-0.2-0.2-0.7-0.3-0.9c0,0,0.1,0,0.2,0c0.1,0,0.2,0.4,0.4,0.6c0.3,0.4,0.7,0.9,1.2,0.2
				c0-0.1-0.1-0.1-0.2-0.2l-0.1-0.2c-0.1-0.1-0.5-0.5-0.6-0.7c-0.4-0.4-0.9-0.3-1.1-0.1c-0.5-0.3-1,0-1.1,0L16.8,35
				c0,0-0.1,0-0.1-0.1l0.2-0.1c-0.1-0.6-0.5-1.1-1.2-1.2c0,0,0-0.2-0.1-0.2l-0.2,0.2c-0.1,0-0.1,0-0.2,0l-0.8-0.3l0.6,0.6
				c0,0-0.3,0.5-0.4,0.5c-0.1,0.1-0.1,0.2,0,0.2l0.1,0.2c0.1,0.1,0.1,0.1,0.2,0l0.1-0.1c0.1,0,0.3,0,0.3,0c-0.1,0.2-0.1,0.4-0.1,0.5
				l-0.6-0.1c-0.1,0-0.2,0-0.3,0.1L14,35.7c-0.2,0.1-0.2,0.3-0.1,0.5L14.1,36.6z M18.7,36.7l-0.4,0.9h-0.2l0.4-0.9
				c0-0.1,0-0.2-0.1-0.3C18.4,36.5,18.5,36.6,18.7,36.7C18.7,36.7,18.7,36.7,18.7,36.7 M15,34.7l-0.1,0.1c-0.1,0-0.1,0.1-0.2,0
				l0-0.1c0,0,0-0.1,0-0.2l0.5-0.5l-0.4-0.3l0.5,0.2l0.2-0.2c0.1,0.1,0,0.2,0,0.2c0.2,0,0.9,0.3,0.9,1.1c0,0,0.1,0.2,0.3,0.2
				l0.9,0.1c0.2,0,0.5-0.3,1.1,0c0.1-0.1,0.3-0.1,0.4-0.2c0.4,0,0.8,0.3,1,0.6c0.2,0.2,0.4,0.6,0.4,0.6c-0.1,0.1-0.2,0.2-0.3,0.1
				c-0.1-0.1-0.2-0.2-0.2-0.3c-0.1-0.2-0.3-0.4-0.3-0.4c0.1,0.2,0.1,0.3,0.1,0.5c-0.4-0.4-0.4-0.8-0.7-0.9c-0.1,0-0.2,0-0.4,0.2
				c0.1,0.3,0.1,0.7,0.3,0.9c0.1,0.2,0.1,0.2,0.2,0.2c0.1,0.1,0,0.2,0,0.3l-0.1,0.9h-0.2l0.2-0.9c0-0.3-0.7-0.3-1.1-0.8
				c-0.3,0.4-1.2,0.3-1.6,0.2c-0.2,0-0.3,0-0.4,0.1c0,0.1-0.1,0.1-0.2,0l-0.7-0.2c-0.1,0-0.2,0-0.2,0.1l-0.1,0.3c0,0.1,0,0.1,0,0.2
				l0.1,0.1c0,0.1-0.2,0.2-0.2,0.2L14.5,37c-0.1-0.1-0.1-0.2,0-0.3l0.2-0.5c0-0.1,0.1-0.1,0.2-0.1l0.9,0l-0.3-0.4
				c-0.2-0.3,0.1-0.9,0.1-1.2C15.5,34.8,15.1,34.7,15,34.7 M14.1,35.8l0.4-0.3c0.1-0.1,0.1-0.1,0.2-0.1l0.6,0.1
				c0,0.1,0.1,0.3,0.1,0.3l-0.6-0.1c-0.1,0-0.1,0-0.2,0.1l-0.3,0.2c-0.1,0-0.1,0.1,0,0.2l0,0.1l-0.2,0.2L14,36.2
				C13.9,36.1,13.9,35.9,14.1,35.8"/>
			<path class="st7" d="M15.9,24.6c0.2,0.2,0.6,0.3,0.6,0.3v-0.3l-0.9-0.3C15.6,24.3,15.6,24.4,15.9,24.6"/>
			<path class="st7" d="M16.5,24.3V24l-1-0.4c0,0,0.1,0.1,0.4,0.3C16.1,24.1,16.5,24.3,16.5,24.3"/>
			<path class="st7" d="M16.5,23.7v-0.3L15.4,23c0,0,0.2,0.2,0.5,0.3C16.1,23.5,16.5,23.7,16.5,23.7"/>
			<path class="st7" d="M19.6,27.3h1.1c0-0.2-0.2-0.3-0.5-0.3C19.9,27,19.7,27.1,19.6,27.3"/>
			<path class="st7" d="M18.4,23l-1.1,0.4v0.3c0,0,0.4-0.2,0.6-0.3C18.2,23.2,18.4,23,18.4,23"/>
			<path class="st7" d="M18.2,24.3l-0.9,0.3v0.3c0,0,0.4-0.2,0.6-0.3C18.2,24.4,18.2,24.3,18.2,24.3"/>
			<path class="st7" d="M18.3,23.6l-1,0.4v0.3c0,0,0.4-0.2,0.6-0.3C18.2,23.8,18.3,23.6,18.3,23.6"/>
			<path class="st7" d="M13.7,27c-0.3,0-0.5,0.2-0.5,0.3h1.1C14.1,27.1,14,27,13.7,27"/>
			<path class="st7" d="M19.1,22.3c0-0.6-1.1-1.2-2.2-1.2c-1.2,0-2.2,0.6-2.2,1.2l0,0.2l0.5,2.7L13,26.4c-0.2,0.1-0.5,0.5-0.6,0.9
				h0.4c0.1-0.4,0.4-0.8,0.9-0.8c0.5,0,0.8,0.3,1.1,0.8l0.1,0.1l0.1,0.2h-3.3c0.2,0.5,0.5,1,0.5,1.5v6.8c0,1.7,1.3,2.6,2.8,2.6
				c1.1,0,1.3-0.1,1.9,0.6c0.6-0.6,0.8-0.6,1.9-0.6c1.4,0,2.8-0.8,2.8-2.6v-6.8c0-0.6,0.2-1.1,0.5-1.5h-3.3l0.1-0.2l0.1-0.1
				c0.3-0.4,0.6-0.8,1.1-0.8c0.6,0,0.9,0.4,0.9,0.8h0.4c0-0.4-0.3-0.8-0.6-0.9l-2.2-1.3l0.5-2.7L19.1,22.3z M15.1,22.6l1.7,0.6v2.6
				l-1.2-0.6L15.1,22.6z M15.5,28.1c0.2,0.3,0.6,0.5,1,0.6c0,0.2,0.1,0.3,0.3,0.5c-0.1,0.5,0.1,0.9,0.6,1c0.1,0.2,0.2,0.4,0.4,0.5
				L17.5,31c-0.1,0.2-0.3,0.2-0.4,0.2L15.5,31c0.1-0.2-0.1-0.4-0.6-0.3l0.6-1.7l-0.4-0.8l-0.7,0.6l-0.1,1.8l-0.3-0.1
				C13.7,30.3,13.6,31,14,31h0.1c0,0.1,0,0.2,0.1,0.2c-0.1,0-0.1,0.2,0,0.2c-0.1,0-0.1,0.2,0,0.2c-0.1,0.1-0.1,0.4,0.2,0.5
				c0.2,0.1,0.4-0.2,0.4-0.3l2.4,0.7c0.3,0.1,0.6,0,0.9-0.2l0.6-0.5c-0.1,0.4,0.1,0.7,0.3,0.8c0,0,0,0.3,0,0.5h-6.2v-3.9
				c0-0.4-0.1-0.7-0.2-1.1H15.5z M18.1,29.6c-0.1,0.3-0.1,0.5,0,0.8L18,30.5c-0.5-0.1-0.6-0.7-0.6-0.7c0,0.1,0,0.1,0,0.2
				c-0.3-0.1-0.4-0.3-0.4-0.6c0.1,0.1,0.2,0.1,0.3,0.1l0-0.2c-0.3-0.1-0.5-0.3-0.6-0.5c0,0,0,0,0,0c0.1,0,0.1,0,0.2,0
				c0.2,0,0.4,0,0.5-0.1c0.1,0.2,0.4,0.3,0.6,0.3C18,29.1,18,29.3,18.1,29.6 M18.8,31.3c0,0.1-0.1,0.1-0.1,0.2l-0.3,0.2
				c0-0.4-0.2-0.8-0.4-1l0.3-0.3l0.1,0.1C18.2,30.8,18.4,31.3,18.8,31.3 M17.6,31.2l0.2-0.2c0.2,0.2,0.5,0.6,0.4,1L18,32.2
				c0,0-0.1,0.1-0.1,0.1C17.9,32,17.8,31.4,17.6,31.2 M17.1,31.4L17.1,31.4c0.1,0,0.2,0,0.2,0c0.2,0.2,0.3,0.7,0.1,1.1
				c-0.1,0-0.2,0-0.3,0l-0.1,0C17.2,32.1,17.2,31.7,17.1,31.4 M16.6,31.3l0.3,0c0,0.2,0,0.7-0.1,0.9l-0.3-0.1
				C16.6,32,16.6,31.5,16.6,31.3 M16,31.2l0.4,0c0,0.2,0,0.6-0.2,0.8L15.8,32C16,31.8,16,31.5,16,31.2 M14.6,31.2
				c-0.2,0.1-0.2-0.1-0.2-0.2c0.3-0.1,0.5,0,0.6,0c0.1,0.1,0.2,0.2,0.3,0.3c0,0.1-0.1,0.3-0.1,0.5c-0.3-0.1-0.3-0.4-0.2-0.6
				C14.8,31.1,14.7,31.1,14.6,31.2 M14.3,31.8c0,0,0.1,0,0.2,0.1c0,0.1-0.1,0.1-0.2,0.1C14.3,31.9,14.3,31.9,14.3,31.8 M14,30.8
				c-0.1-0.1,0-0.2,0-0.2c0.1,0,0.2,0.1,0.4,0.2C14.4,30.8,14.1,30.9,14,30.8 M14.3,31.5c0.1,0.1,0.3,0,0.3,0l0,0
				C14.5,31.7,14.3,31.7,14.3,31.5 M14.6,31.4c-0.2,0.1-0.3,0-0.3-0.1C14.4,31.3,14.6,31.3,14.6,31.4L14.6,31.4z M14.9,29.6
				l-0.3,1.1l0.1-1.7l0.5-0.4l0.2,0.5l-0.6,1.7L14.9,29.6C14.9,29.5,14.9,29.5,14.9,29.6 M14.9,30.9c0,0,0.3,0,0.4,0
				c0.1,0,0,0.1-0.1,0.1C15.1,31,14.9,30.9,14.9,30.9 M15.4,31.2l0.4,0c0,0.2,0,0.5-0.2,0.7l-0.3-0.1C15.3,31.6,15.4,31.4,15.4,31.2
				 M21.1,35.9c0,0.8-0.4,1.4-1,1.8l0.2-0.5h-0.2l-0.3,0.6c-0.3,0.1-0.6,0.2-1,0.2c-1.2,0-1.5,0-1.9,0.5C16.5,38,16.2,38,15,38
				c-0.4,0-0.7-0.1-1-0.2h0l0.3-0.6h-0.2l-0.3,0.5c-0.1,0-0.1-0.1-0.2-0.1l0.2-0.4h-0.2l-0.2,0.3c-0.5-0.4-0.8-0.9-0.8-1.7v-2.6h8.4
				V35.9z M21.3,28.1c-0.1,0.3-0.2,0.7-0.2,1.1v3.9h-0.5c-0.2-0.2-0.4-0.9-0.4-0.9c-0.1,0.2,0,0.7,0.1,0.9h-0.6
				c-0.1-0.2-0.3-0.9-0.3-0.9c-0.2,0.2-0.1,0.7,0,0.9h-0.4c0-0.3,0.1-0.6,0.1-0.6c-0.2,0-0.4-0.1-0.4-0.4c0.1,0.1,0.1,0.1,0.3,0.1
				l0.2-0.1c-0.6,0-0.6-0.6-0.1-0.9c-0.4,0-0.8-0.2-0.6-0.7c-0.3-0.2-0.4-0.7-0.2-0.9c-0.2-0.2-0.2-0.5-0.1-0.8
				c-0.2,0-0.5-0.1-0.6-0.2c0,0,0,0,0,0c0.3-0.1,0.5-0.3,0.7-0.5H21.3z M19.7,26.2c-0.5,0.1-0.8,0.6-1.2,1.1l0,0.1h-0.3v0.1
				c0,0.4-0.4,0.9-1.2,0.9c-0.4,0-0.7-0.1-0.9-0.3c-0.2-0.1-0.3-0.3-0.3-0.5c0-0.1,0-0.1,0-0.2l0-0.1h-0.3l0-0.1
				c-0.3-0.5-0.7-1.1-1.2-1.1l1.2-0.7l1.5,0.8l1.5-0.8L19.7,26.2z M18.3,25.1L17,25.7v-2.6l1.7-0.6L18.3,25.1z M16.9,22.9l-1.8-0.7
				c0.2-0.4,0.9-0.7,1.8-0.7c0.9,0,1.7,0.3,1.8,0.7L16.9,22.9z"/>
			<path class="st7" d="M20.9,30.6l0-0.2c-0.6,0-0.7-0.7-0.7-0.7C20,30.2,20.5,30.6,20.9,30.6"/>
			<path class="st7" d="M20.2,31.8l-0.1-0.2c-0.5,0.1-0.8-0.7-0.8-0.7C19.1,31.5,19.7,32,20.2,31.8"/>
			<path class="st7" d="M20.5,31.1c-0.6,0.1-0.9-0.6-0.9-0.6c-0.1,0.4,0.2,0.8,0.6,0.8c-0.1,0.5,0.4,0.8,0.8,0.6L21,31.7
				C20.6,31.8,20.3,31.4,20.5,31.1"/>
			<path class="st7" d="M20.1,29l0-0.2c-0.8-0.2-0.7-0.7-0.7-0.7C19.2,28.6,19.7,29,20.1,29"/>
			<polygon class="st7" points="15,37.2 14.7,37.8 14.9,37.8 15.2,37.2 			"/>
			<polygon class="st7" points="15.4,37.2 15.1,37.8 15.3,37.8 15.6,37.2 			"/>
			<polygon class="st7" points="17.2,37.2 16.9,37.8 17.1,37.8 17.4,37.2 			"/>
			<polygon class="st7" points="17.6,37.2 17.3,37.8 17.5,37.8 17.8,37.2 			"/>
			<polygon class="st7" points="16.7,37.2 16.4,37.8 16.7,37.8 17,37.2 			"/>
			<polygon class="st7" points="19.3,37.8 19.5,37.8 19.8,37.2 19.6,37.2 			"/>
			<polygon class="st7" points="15.9,37.2 15.6,37.8 15.8,37.8 16.1,37.2 			"/>
			<polygon class="st7" points="16.3,37.2 16,37.8 16.2,37.8 16.5,37.2 			"/>
			<path class="st7" d="M15.3,34C15.3,34,15.2,34.1,15.3,34c-0.1,0.1,0,0.2,0,0.2C15.3,34.2,15.4,34.2,15.3,34
				C15.4,34.1,15.3,34,15.3,34"/>
			<path class="st7" d="M16.9,20.7c0.9,0,1.6,0.3,2,0.6c0,0,0.1-0.7,0.5-1.4L18.7,20l-0.4-0.8l-0.7,0.4l-0.7-0.7l-0.7,0.7l-0.7-0.4
				L15.1,20l-0.7-0.1c0.4,0.6,0.5,1.4,0.5,1.4C15.3,21,16,20.7,16.9,20.7 M15.2,20.3l0.3-0.7l0.6,0.3l0.7-0.7l0.7,0.7l0.6-0.3
				l0.3,0.7l0.4-0.1c-0.1,0.2-0.2,0.4-0.3,0.6c-0.5-0.3-1.2-0.5-1.9-0.5c-0.7,0-1.4,0.2-1.9,0.5c-0.1-0.3-0.2-0.4-0.3-0.6L15.2,20.3
				z"/>
			<path class="st7" d="M17.7,19.2c0.1,0,0.2-0.1,0.2-0.2c0-0.1-0.1-0.4-0.1-0.4s-0.2,0.2-0.2,0.4C17.5,19.1,17.5,19.2,17.7,19.2"/>
			<path class="st7" d="M18.8,19.6c0.1,0,0.2,0,0.3-0.1c0.1-0.1,0-0.4,0-0.4s-0.3,0.1-0.4,0.2C18.7,19.5,18.8,19.6,18.8,19.6"/>
			<path class="st7" d="M16.2,19.2c0.1,0,0.2-0.1,0.2-0.2c0-0.1-0.2-0.4-0.2-0.4S15.9,18.9,16,19C16,19.1,16.1,19.2,16.2,19.2"/>
			<path class="st7" d="M15,19.6c0.1-0.1,0.1-0.2,0.1-0.3c-0.1-0.1-0.4-0.2-0.4-0.2s0,0.3,0,0.4C14.8,19.7,14.9,19.7,15,19.6"/>
			<path class="st7" d="M29.3,26.2c0.3-0.1,0.5-0.3,0.6-0.6c-0.6-0.1-2.4-0.8-3.8-0.2c0.5-0.5,1-0.6,1-1.3c0.2,0.2,0.6,0.2,0.8-0.1
				c-0.1-0.4-0.5-0.1-0.6-0.2c-0.1-0.2,0.5,0.1,0.6-0.5c-0.4-0.1-0.5,0.2-0.6,0.1c-0.1-0.1,0.3-0.2,0-0.7c-0.4,0.3-0.2,0.5-0.3,0.6
				c-0.1,0,0-0.3-0.5-0.3c0,0.5,0.5,0.5,0.4,0.6c-0.1,0.1-0.2-0.3-0.6-0.1c0,0.4,0.3,0.6,0.7,0.5c-0.1,0.8-0.8,0.6-1.3,1.5
				c1.1,0.6,1.7,1.6,2.4,2.3c0.2-0.2,0.6-0.9,0.6-0.9c0.8,0.6,1.3,0,1.3,0C29.7,26.8,29.7,26.6,29.3,26.2 M28.2,26.4
				c0.1,0.2,0.2,0.8-0.1,1.2c-0.4-0.8-1-1.6-1.5-1.9c-0.1-0.1,0.1-0.2,0.3-0.2c0.9-0.2,1.9,0.2,2.4,0.3c-0.2,0.2-0.4,0.2-0.6,0.3
				c0.4,0.3,0.6,0.6,0.8,0.8C29.1,27,28.9,26.8,28.2,26.4"/>
			<path class="st7" d="M16.7,40.3l-0.5,0l-0.1,0.2l0.1,0c0,0,0,0,0-0.1c0,0,0.1,0,0.2,0l0.2,0c-0.1,0.3-0.4,0.5-0.4,0.7
				c0,0.1,0.1,0.1,0.2,0.1c0.1,0,0.1-0.1,0.2-0.2C16.6,40.7,16.7,40.5,16.7,40.3L16.7,40.3L16.7,40.3z"/>
			<path class="st7" d="M17,40.6l0-0.2h0.4l0-0.2c-0.1,0-0.3,0-0.5,0L17,40.6c0.1,0,0.3,0.1,0.3,0.3c0,0.1-0.1,0.2-0.1,0.2
				c0,0-0.1,0-0.1,0c0,0,0-0.1,0-0.1c0-0.1-0.1-0.1-0.1-0.1c-0.1,0-0.1,0.1-0.1,0.1c0,0.1,0.2,0.2,0.3,0.2c0.2,0,0.4-0.1,0.4-0.3
				C17.5,40.6,17.2,40.6,17,40.6"/>
			<path class="st7" d="M18,40.2c-0.2,0-0.3,0.1-0.3,0.3c0,0.2,0.3,0.3,0.5,0.2c0,0.2,0,0.3-0.1,0.3C18,41.1,18,41,18,41
				c0-0.1-0.1-0.1-0.1-0.1c-0.1,0-0.1,0.1-0.1,0.1c0,0.1,0.2,0.1,0.2,0.1c0.3,0,0.4-0.2,0.4-0.4C18.4,40.5,18.2,40.2,18,40.2
				 M18.1,40.7c-0.2,0-0.2-0.2-0.2-0.4c0,0,0-0.1,0.1-0.1C18.1,40.3,18.1,40.6,18.1,40.7C18.1,40.7,18.1,40.7,18.1,40.7"/>
			<path class="st7" d="M15.9,40.2c0,0-0.1,0.2-0.4,0.3l0,0c0,0,0.1,0,0.1-0.1l-0.1,0.5c0,0,0,0-0.1,0l-0.1,0l0,0.1l0.4,0.1l0-0.1
				l-0.1,0c0,0,0,0,0,0L15.9,40.2L15.9,40.2z"/>
			<path class="st7" d="M20.8,39.6v-1c-0.7,0.3-1.7,0.6-2.9,0.7l-0.1,0.3c0.1,0,0.2,0,0.4,0c-0.5,0.1-1,0.1-1.4,0.1
				c-0.3,0-0.9,0-1.4-0.1c0.2,0,0.3,0,0.4,0l-0.1-0.3c-1.2-0.1-2.2-0.4-2.9-0.7v1L12,40c0.8,0.4,1.6,0.7,2.6,1l-0.1,0.4
				c0.6,0.2,1.5,0.3,2.4,0.3c1,0,1.9-0.2,2.4-0.3L19.2,41c1-0.3,1.9-0.6,2.6-1L20.8,39.6z M12.5,40l0.7-0.3V39
				c0.4,0.2,1,0.3,1.8,0.5l-0.4,1.3C13.8,40.5,13.1,40.3,12.5,40 M16.9,41.5c-0.8,0-1.5-0.1-2.2-0.3l0.4-1.3c0.3,0.1,1,0.1,1.8,0.1
				c0.8,0,1.5-0.1,1.8-0.1l0.4,1.3C18.4,41.4,17.7,41.5,16.9,41.5 M19.2,40.7l-0.4-1.3c0.8-0.2,1.4-0.3,1.8-0.5v0.8l0.7,0.3
				C20.7,40.3,20,40.5,19.2,40.7"/>
			<path class="st7" d="M5.1,27.1c0,0,0.4,0.7,0.6,0.9c0.7-0.7,1.2-1.7,2.4-2.3c-0.5-0.9-1.3-0.7-1.3-1.5c0.3,0.1,0.7-0.1,0.7-0.5
				c-0.4-0.2-0.5,0.2-0.6,0.1c-0.1-0.1,0.4-0.1,0.4-0.6c-0.5,0-0.4,0.3-0.5,0.3c-0.1,0,0.1-0.3-0.3-0.6c-0.2,0.5,0.1,0.6,0,0.7
				c-0.1,0.1-0.2-0.3-0.6-0.1c0.1,0.6,0.7,0.3,0.6,0.5C6.4,23.9,6,23.6,5.9,24c0.2,0.4,0.6,0.3,0.8,0.1c0,0.7,0.5,0.8,1.1,1.3
				c-1.4-0.6-3.1,0.1-3.8,0.2c0.1,0.2,0.3,0.5,0.6,0.6c-0.4,0.4-0.4,0.6-0.7,0.8C3.8,27.1,4.4,27.7,5.1,27.1 M4.3,26.9
				c0.2-0.3,0.4-0.5,0.8-0.8c-0.2,0-0.4-0.1-0.7-0.3C5,25.7,6,25.3,6.9,25.5c0.3,0,0.5,0.2,0.3,0.2c-0.5,0.3-1.1,1-1.5,1.9
				c-0.4-0.5-0.2-1.1-0.1-1.2C4.9,26.8,4.7,27,4.3,26.9"/>
			<path class="st7" d="M16.3,26.5v0.4c0.1-0.2,0.4-0.1,0.4-0.1v0.6c0,0,0,0.3-0.1,0.4h0.3h0.3c-0.1-0.1-0.1-0.4-0.1-0.4v-0.6
				c0,0,0.3,0,0.4,0.1v-0.4h-0.6H16.3z"/>
		</g>
		<g>
			<g>
				<path class="st8" d="M30.4,26.7c-0.1-0.1-0.1-0.1-0.2-0.2c0,0-0.1-0.1-0.1-0.2c0.1-0.1,0.2-0.3,0.3-0.4l0.3-0.6l-0.7-0.1
					c-0.1,0-0.3-0.1-0.5-0.1c-0.4-0.1-0.9-0.2-1.5-0.3c0.2-0.1,0.4-0.2,0.5-0.5l0.1-0.2c0,0,0-0.3-0.1-0.4c0-0.1,0.1-0.2,0.1-0.3
					l0.1-0.4l-0.4-0.1c-0.1,0-0.1,0-0.2-0.1c0-0.1-0.1-0.2-0.1-0.3L27.5,22l-0.5,0.3c-0.1,0.1-0.2,0.1-0.3,0.2c-0.1,0-0.1,0-0.2,0
					c0,0-0.3,0-0.6,0.1l-0.4-0.4l-0.4-0.5c-0.4-0.4-1-0.6-1.5-0.4c-0.2-0.2-0.6-0.4-1.1-0.4c-0.2,0-0.3,0-0.4,0c0,0-0.7,0.1-1.1,0.5
					l-0.5-0.2c-0.3,0.5-0.9,0.7-0.9,0.7c0-0.2-0.1-0.3-0.2-0.4l0-0.2c0,0,0.1-0.6,0.5-1.2l0.6-0.9l-0.8,0.1c0-0.1,0-0.2,0-0.3
					l-0.1-0.7l-0.7,0.3c-0.1,0-0.1,0.1-0.2,0.1l-0.1-0.3l-0.3,0.2c0-0.1-0.1-0.2-0.1-0.3l-0.3-0.6l-0.5,0.5c0,0.1-0.1,0.1-0.1,0.2
					l-0.3-0.3l-0.3,0.3c0-0.1-0.1-0.1-0.1-0.2L16,17.8l-0.3,0.6c-0.1,0.1-0.1,0.2-0.1,0.3l-0.3-0.2l-0.1,0.3c-0.1,0-0.1-0.1-0.2-0.1
					l-0.7-0.3l-0.1,0.7c0,0.1,0,0.2,0,0.3l-0.8-0.1l0.6,0.9c0.3,0.5,0.4,1.1,0.5,1.2l0,0.2c-0.1,0.1-0.2,0.3-0.2,0.4
					c0,0-0.5-0.2-0.9-0.7l-0.5,0.2c-0.6-0.4-0.9-0.5-1.6-0.6c-0.5,0-0.9,0.2-1.1,0.4c-0.6-0.2-1.1-0.1-1.5,0.4c0,0-0.3,0.3-0.4,0.5
					c-0.2,0.2-0.4,0.3-0.4,0.3s-0.4-0.1-0.7,0c-0.1-0.1-0.2-0.2-0.3-0.2L6.3,22L6,22.5c0,0.1-0.1,0.2-0.1,0.3c-0.1,0-0.1,0-0.2,0.1
					L5.3,23l0.1,0.4c0,0.1,0.1,0.2,0.1,0.3c0,0,0,0.1-0.1,0.2l-0.1,0.2l0.1,0.2c0.1,0.2,0.3,0.4,0.5,0.5c-0.6,0.1-1.1,0.2-1.5,0.3
					c-0.2,0.1-0.4,0.1-0.5,0.1l-0.7,0.1l0.2,0.3l0.1,0.3c0.1,0.2,0.2,0.3,0.3,0.4c0,0.1-0.2,0.3-0.3,0.4l-0.3,0.3l0.3,0.4
					c0,0,0.4,0.4,1,0.4c0.2,0,0.3,0,0.5-0.1c0.2,0.2,0.3,0.5,0.5,0.6c-0.3,0.4-0.7,0.7-1.2,0.9l-0.4,0.2L4,30
					c0.1,0.3,0.4,0.6,0.8,0.7c-0.1,0.3-0.1,0.6-0.2,0.8c-0.1,0.6-0.1,0.8-0.6,1l-0.5,0.2l0.1,0.5c0.1,0.4,0.3,0.6,0.4,0.8l-0.3,0.3
					c0,0,0.7,0.5,1.4,0.6c0,0,0.6,0,0.9-0.3c0.1,0.4,0.3,0.8,0.4,1.1c0.3,0.7,0.5,1.1,0.3,1.4L6.4,38l1,0c0.4,0,0.8,0,1.1-0.1
					c0,0,0,0,0,0.1l-0.1,0.7l0.8-0.2c0.1,0,0.2-0.1,0.2-0.1c0.5,0.6,1.4,1.1,2.6,1.1h0.1l-1.4,0.6l1,0.5c0.7,0.3,1.4,0.6,2.2,0.9
					l-0.1,0.4l0.5,0.1c0.3,0.1,1.3,0.4,2.6,0.4c1.3,0,2.3-0.3,2.6-0.4l0.5-0.1l-0.1-0.4c0.8-0.2,1.6-0.5,2.2-0.9l1-0.5l-1.4-0.6h0.1
					c1.2,0,2.1-0.5,2.6-1.1c0.1,0,0.2,0.1,0.2,0.1l0.8,0.2l-0.1-0.7c0,0,0,0,0-0.1c0.3,0.1,0.7,0.1,1.1,0.1l1,0L27,37.2
					c-0.2-0.4,0-0.8,0.3-1.4c0.2-0.3,0.3-0.7,0.4-1.1c0.2,0.1,0.4,0.2,0.6,0.3c0,0,0.2,0,0.3,0c0.4,0,0.6-0.1,0.9-0.3l0.5-0.3
					L29.7,34c0.2-0.2,0.3-0.4,0.4-0.8l0.1-0.5l-0.5-0.2c-0.5-0.2-0.6-0.4-0.7-1c0-0.2-0.1-0.5-0.2-0.8c0.5-0.1,0.7-0.5,0.8-0.7
					l0.2-0.5l-0.4-0.2c-0.5-0.2-0.9-0.6-1.2-0.9c0.2-0.1,0.4-0.4,0.5-0.6c0.2,0.1,0.3,0.1,0.5,0.1l0,0c0.6,0,1-0.4,1-0.4l0.3-0.4
					L30.4,26.7z"/>
				<path class="st9" d="M12.7,33.1v-3.9c0-0.4-0.1-0.7-0.2-1.1h3.1c0.3,0.4,0.8,0.6,1.4,0.6c0.6,0,1.1-0.3,1.4-0.6h3.1
					c-0.1,0.3-0.2,0.7-0.2,1.1v3.9H12.7z M16.9,38.5C16.5,38,16.2,38,15,38c-1.4,0-2.3-0.8-2.3-2.1v-2.6h8.4v2.6
					c0,1.3-0.9,2.1-2.3,2.1C17.6,38,17.3,38,16.9,38.5"/>
				<path class="st8" d="M13.2,39v0.8L12.5,40c0.6,0.3,1.3,0.5,2.1,0.7l0.4-1.3C14.2,39.3,13.6,39.1,13.2,39"/>
				<path class="st8" d="M16.9,40c-0.8,0-1.5-0.1-1.8-0.1l-0.4,1.3c0.6,0.2,1.4,0.3,2.2,0.3c0.8,0,1.5-0.1,2.2-0.3l-0.4-1.3
					C18.4,39.9,17.7,40,16.9,40"/>
				<path class="st8" d="M20.6,39c-0.4,0.2-1,0.3-1.8,0.5l0.4,1.3c0.8-0.2,1.6-0.5,2.1-0.7l-0.7-0.3V39z"/>
				<path class="st8" d="M11.8,26.2c1.1-0.6,3.7-1.9,1.9-3.2c-0.2-0.2-0.5-0.4-0.7-0.6c-0.3,0.2,0.1,0.7,0.2,0.9
					c0,0-0.6,0.1-0.7,0.1c-0.9,0-1.9-0.5-1.4-1.6c-0.4,0.1-0.4,0.4-0.5,0.7c-0.2-0.2-0.6-0.5-0.9-0.4c0.3,0.8,1.3,1.5,2.1,1.7
					c-0.8,0.5-2.4,0.8-3.2-0.2c-0.6,1.1,0.2,1.6,1,2.2c-3,1.4-2.5,2.9-4.5,4.1c0.3,0.1,1.4-0.1,1.5-0.1c-0.4,0.6-0.6,0.8-0.7,1.1
					c-0.1,0.2-0.2,0.5-0.3,1.1c-0.1,0.5-0.3,1-0.8,1.3c0.2,0.4,0.7,0.1,1,0c0,0-0.1,0.5-0.3,0.8c1-0.1,0.5-2.2,1.5-1.7
					c0.3,0.1,0.4,0.5,0.2,0.8c-0.7,1.4,0.8,2.6,0.8,3.8c0.4,0,0.7,0,1-0.5c0.1,0.2,0.3,0.6,0.4,0.9l0.3-0.5c0.2,0.8,1,1.6,2,1.7
					c-0.5-0.8,0.1-1.9-1.1-3.1c0.2-0.1,0.5-0.4,0.6-0.5c-1.5,0.2-3.1-1-2.4-1.6c0.5-0.4,0.7,0.4,1.4,0.3l-0.3-0.2
					c0.1-0.1,0.2-0.2,0.3-0.3c-0.3,0-0.6-0.2-0.6-0.2l0.2-0.3c-1.8,0-1.8-1.4-1.1-1.4c0.3,0,0.8,0.6,1.9,0.5
					c-0.1-0.2-0.2-0.4-0.3-0.6c0.3,0,0.6,0,0.8-0.1c-0.5-0.1-0.7-0.2-1.1-0.6l0.5-0.2c-0.7-0.4-0.7-1-0.7-1.7
					c0.4,0.2,0.9,0.6,1.3,0.4c0.1,0,0.2-0.1,0.2-0.2C10.5,28.2,10.1,27.2,11.8,26.2 M10.5,26.4c-0.9,1-0.5,1.6-0.3,1.8
					c-0.3-0.1-0.9-0.5-0.8-1c-0.1,0.1-0.2,0.3-0.3,0.4c-0.2,0.3-0.4,0.6-0.6,0.9c-0.3,0.8,0.2,1.7,1.1,2.1c-1-0.1-1.4-1-1.4-1.6
					c-0.5,0.9-0.7,1.7-0.7,2.4c0,0.3,0,0.5,0.1,0.7c0.2,0.4,0.6,0.6,1.2,0.7c-0.6,0-0.9,0-1.2-0.3c0.4,1.7,2.3,3.2,3,4.5
					c-0.8-1-2.3-2.5-2.9-3.5c0,0.4,0.1,1.4,0.5,2c-0.7-0.7-0.8-1.8-0.7-2.4c-0.2-0.4-0.3-0.9-0.3-1.5c0-0.5,0-1,0.1-1.4
					c-0.4,0.6-1.1,0.9-1.4,1.8c0.1-1.2,1-1.3,1.7-2.8c0.3-0.7,0.7-1.2,1.1-1.9c-0.6,0.2-1,0.3-1.6,1c0.5-1.1,3.1-2.3,4.3-3.4
					c-0.4,0.1-1.8,0.1-2.4-0.3c1.1,0.3,3.6,0,4.5-0.7c-0.6,0.9-2,1-3.7,2.8C9.9,26.7,10.2,26.5,10.5,26.4"/>
				<path class="st8" d="M28.4,32c-0.1-0.6-0.2-0.9-0.3-1.1c-0.1-0.3-0.3-0.5-0.7-1.1c0.1,0,1.2,0.3,1.5,0.1c-2-1.2-1.5-2.7-4.5-4.1
					c0.8-0.6,1.6-1,1-2.2c-0.8,1-2.4,0.6-3.2,0.2c0.8-0.2,1.9-0.9,2.1-1.7c-0.3,0-0.7,0.3-0.9,0.4c-0.1-0.3-0.2-0.6-0.5-0.7
					c0.5,1-0.5,1.6-1.4,1.6c-0.1,0-0.7-0.1-0.7-0.1c0.1-0.2,0.5-0.7,0.2-0.9c-0.2,0.2-0.5,0.4-0.7,0.6c-1.8,1.4,0.8,2.6,1.9,3.2
					c1.7,0.9,1.2,2,0.5,2.3c0,0.1,0.1,0.2,0.2,0.2c0.5,0.2,1-0.2,1.3-0.4c0,0.7,0,1.3-0.7,1.7l0.5,0.2c-0.4,0.3-0.6,0.5-1.1,0.6
					c0.2,0.1,0.6,0.1,0.8,0.1c-0.1,0.2-0.1,0.4-0.3,0.6c1.1,0.1,1.5-0.5,1.9-0.5c0.7,0.1,0.7,1.4-1.1,1.4l0.2,0.3
					c0,0-0.3,0.2-0.6,0.2c0.1,0.1,0.2,0.2,0.3,0.3l-0.3,0.2c0.7,0.1,0.9-0.6,1.4-0.3c0.7,0.6-0.9,1.8-2.4,1.6
					c0.1,0.2,0.5,0.4,0.6,0.5c-1.2,1.2-0.6,2.3-1.1,3.1c1.1-0.1,1.9-0.9,2-1.7l0.3,0.5c0.1-0.3,0.3-0.7,0.4-0.9
					c0.2,0.5,0.6,0.5,1,0.5c-0.1-1.2,1.4-2.4,0.8-3.8c-0.1-0.3,0-0.6,0.2-0.8c1-0.5,0.5,1.6,1.5,1.7c-0.2-0.2-0.3-0.7-0.3-0.8
					c0.2,0.1,0.7,0.4,1,0C28.6,32.9,28.4,32.5,28.4,32 M26.5,30.2c0.1,0.4,0.1,0.9,0.1,1.4c0,0.6-0.1,1.1-0.3,1.5
					c0,0.6,0,1.7-0.7,2.4c0.5-0.6,0.6-1.6,0.5-2c-0.6,1.1-2.1,2.5-2.9,3.5c0.8-1.3,2.6-2.8,3-4.5c-0.3,0.3-0.6,0.3-1.2,0.3
					c0.6-0.1,1-0.2,1.2-0.7c0-0.2,0.1-0.5,0.1-0.7c0-0.7-0.2-1.5-0.7-2.4c0,0.6-0.4,1.4-1.4,1.6c0.9-0.4,1.4-1.3,1.1-2.1
					c-0.2-0.3-0.4-0.6-0.6-0.9c-0.1-0.2-0.2-0.3-0.3-0.4c0.1,0.4-0.4,0.9-0.8,1c0.2-0.2,0.6-0.8-0.3-1.8c0.3,0.1,0.6,0.3,0.8,0.5
					C22.4,25,21,24.9,20.4,24c0.9,0.6,3.4,1,4.5,0.7c-0.6,0.4-2.1,0.4-2.4,0.3c1.2,1.2,3.8,2.4,4.3,3.4c-0.6-0.7-1.1-0.8-1.6-1
					c0.4,0.7,0.8,1.2,1.1,1.9c0.7,1.5,1.6,1.5,1.7,2.8C27.6,31.1,26.9,30.9,26.5,30.2"/>
				<path class="st8" d="M18.3,28.1c-0.3,0.4-0.8,0.6-1.4,0.6c-0.1,0-0.3,0-0.4,0c0,0.2,0.1,0.3,0.3,0.5c-0.1,0.5,0.1,0.9,0.6,1
					c0.1,0.2,0.2,0.4,0.4,0.5L17.5,31c-0.1,0.2-0.3,0.2-0.4,0.2L15.5,31c0.1-0.2-0.1-0.4-0.6-0.3l0.6-1.7l-0.4-0.8l-0.7,0.6
					l-0.1,1.8l-0.3-0.1C13.7,30.3,13.6,31,14,31l0.1,0c0,0.1,0,0.2,0.1,0.2c-0.1,0-0.1,0.2,0,0.2c-0.1,0-0.1,0.2,0,0.2
					c-0.1,0.1-0.1,0.4,0.2,0.5c0.2,0.1,0.4-0.2,0.4-0.3l2.4,0.7c0.3,0.1,0.6,0,0.9-0.2l0.6-0.5c-0.1,0.4,0,0.7,0.3,0.8
					c0,0,0,0.3,0,0.5l0.8,0h1.3v-3.9c0-0.4,0.1-0.7,0.2-1.1h-1.6H18.3z"/>
				<path class="st8" d="M14.7,34.7L14.7,34.7c0.1,0.1,0.2,0.1,0.2,0.1l0.1-0.1c0.1-0.1,0.5,0.1,0.5-0.3c0,0.3-0.3,0.9-0.1,1.2
					l0.3,0.4l-0.9,0c-0.1,0-0.1,0.1-0.2,0.1l-0.2,0.5c-0.1,0.1-0.1,0.3,0,0.3l0.2,0.2c0,0,0.1-0.1,0.2-0.2l-0.1-0.1
					c-0.1-0.1-0.1-0.1,0-0.2l0.1-0.3c0.1-0.1,0.1-0.1,0.2-0.1l0.7,0.2c0.1,0,0.1,0,0.2,0c0.1-0.2,0.2-0.2,0.4-0.1
					c0.4,0.1,1.3,0.2,1.6-0.2c0.4,0.5,1.1,0.5,1.1,0.8l-0.2,0.9h0.2l0.1-0.9c0-0.1,0.1-0.2,0-0.3c0,0-0.1-0.1-0.2-0.2
					c-0.1-0.2-0.1-0.6-0.3-0.9c0.1-0.1,0.3-0.2,0.4-0.2c0.3,0.1,0.3,0.5,0.7,0.9c0-0.2-0.1-0.3-0.1-0.5c0,0,0.3,0.2,0.3,0.4
					c0,0.1,0.1,0.2,0.2,0.3c0.1,0,0.2,0,0.3-0.1c0,0-0.2-0.3-0.4-0.6c-0.2-0.3-0.6-0.6-1-0.6c-0.1,0-0.3,0.1-0.4,0.2
					c-0.5-0.3-0.9,0-1.1,0l-0.9-0.1c-0.2,0-0.3-0.2-0.3-0.2c0-0.8-0.7-1.1-0.9-1.1c0,0,0-0.1,0-0.2l-0.2,0.2l-0.5-0.2l0.4,0.3
					l-0.5,0.5C14.7,34.6,14.7,34.7,14.7,34.7"/>
				<path class="st8" d="M14.1,35.8c-0.1,0.1-0.1,0.2,0,0.4l0.1,0.1l0.2-0.2l0-0.1c0-0.1,0-0.1,0-0.2l0.3-0.2
					c0.1-0.1,0.1-0.1,0.2-0.1l0.6,0.1c0,0-0.1-0.1-0.1-0.3l-0.6-0.1c-0.1,0-0.1,0-0.2,0.1L14.1,35.8z"/>
				<path class="st8" d="M18.1,37.7h0.2l0.4-0.9c0,0,0,0,0-0.1c-0.2-0.1-0.3-0.1-0.4-0.2c0.1,0.1,0.2,0.2,0.1,0.3L18.1,37.7z"/>
				<path class="st8" d="M18.3,25.1l0.4-2.5L17,23.1v2.6L18.3,25.1z M17.3,23.4l1.1-0.4c0,0-0.2,0.2-0.5,0.3
					c-0.2,0.2-0.6,0.3-0.6,0.3V23.4z M17.3,24l1-0.4c0,0-0.1,0.1-0.4,0.3c-0.2,0.2-0.6,0.3-0.6,0.3V24z M17.3,24.6l0.9-0.3
					c0,0,0,0.1-0.3,0.3c-0.2,0.2-0.6,0.3-0.6,0.3V24.6z"/>
				<path class="st8" d="M15.3,27.3L15.3,27.3l0.4,0.1l0,0.1c0,0.1,0,0.1,0,0.2c0.1,0.2,0.2,0.3,0.3,0.5c0.2,0.2,0.5,0.3,0.9,0.3
					c0.8,0,1.2-0.5,1.2-0.9v-0.1h0.3l0-0.1c0.3-0.5,0.7-1.1,1.2-1.1l-1.2-0.7l-1.5,0.8l-1.5-0.8l-1.2,0.7
					C14.6,26.2,15,26.8,15.3,27.3"/>
				<path class="st8" d="M16.8,25.7v-2.6l-1.6-0.6l0.4,2.5L16.8,25.7z M16.5,24.9c0,0-0.4-0.2-0.6-0.3c-0.3-0.2-0.3-0.3-0.3-0.3
					l0.9,0.3V24.9z M16.5,23.4v0.3c0,0-0.4-0.2-0.6-0.3c-0.3-0.2-0.5-0.3-0.5-0.3L16.5,23.4z M16.5,24v0.3c0,0-0.4-0.2-0.6-0.3
					c-0.3-0.2-0.4-0.3-0.4-0.3L16.5,24z"/>
				<path class="st8" d="M16.9,21.5c-0.9,0-1.7,0.3-1.8,0.7l1.8,0.7l1.8-0.7C18.6,21.8,17.9,21.5,16.9,21.5"/>
				<path class="st8" d="M16.9,20.4c0.7,0,1.4,0.2,1.9,0.5c0.1-0.3,0.2-0.4,0.3-0.6l-0.4,0.1l-0.3-0.7L17.6,20l-0.7-0.7L16.2,20
					l-0.6-0.3l-0.3,0.7l-0.4-0.1c0.1,0.2,0.2,0.4,0.3,0.6C15.5,20.6,16.2,20.4,16.9,20.4"/>
				<path class="st8" d="M28.7,26.1c0.2,0,0.4-0.1,0.7-0.3c-0.5-0.1-1.5-0.5-2.4-0.3c-0.3,0-0.5,0.2-0.3,0.2c0.5,0.3,1.1,1,1.5,1.9
					c0.4-0.5,0.2-1.1,0.1-1.2c0.7,0.4,0.9,0.7,1.3,0.6C29.3,26.7,29,26.4,28.7,26.1"/>
				<path class="st8" d="M5.8,27.6c0.4-0.9,1-1.6,1.5-1.9c0.1-0.1-0.1-0.2-0.3-0.2C6,25.3,5,25.7,4.5,25.8c0.2,0.2,0.4,0.2,0.7,0.3
					c-0.4,0.3-0.6,0.6-0.8,0.8c0.3,0.1,0.5-0.1,1.3-0.6C5.5,26.5,5.4,27.2,5.8,27.6"/>
				<path class="st10" d="M10.9,35.5c0.3-0.3,0.6-0.4,0.6-1.1c-0.5,0.3-2,0.2-2.6-0.6c-0.2-0.2,0-0.4,0.2-0.2
					c0.4,0.5,1.2,0.3,1.5,0.1c0-0.2-0.2-0.4-0.3-0.5c0.1-0.1,0.4-0.3,0.5-0.5c-0.2-0.1-0.8-0.1-0.8-0.1c0.1-0.1,0.2-0.2,0.2-0.6
					c-0.6,0.2-1.4-0.1-1.6-0.3c-0.2-0.2,0-0.4,0.2-0.3c0.3,0.3,1.9,0.7,2.4,0.1c-0.2-0.1-0.5-0.3-0.5-0.4c0.5-0.1,1-0.4,1-0.8
					c-0.3,0-0.9,0-1-0.2c0.3-0.1,0.4-0.2,0.5-0.5c-1-0.1-1.1-0.8-1.1-0.9c0.6,0.4,1.8,0.2,1.5-0.7c-0.5,0-1.1-0.9,0.4-1.7
					c1.3-0.7,2.8-1.5,2.7-2.8C14.5,23,13.2,22.4,13,22c-0.6,0.3-0.7,0.6-0.4,1.1c0,0-1.2,0.1-1.3-0.6c0-0.3,0.2-0.7,0.4-0.9
					c-0.1,0-1.1-0.3-1.4,0.5c-0.5-0.4-1-0.3-1.3,0c0.6,0.3,0.9,1.5,1.9,1.8c-0.7,0.4-1.7,0.2-2.4-0.9c-0.6,0.9-0.9,1.8,0.3,2.7
					c-2.3,1.1-2.3,3.1-4.3,4c0.2,0.6,0.6,0.6,1.2,0.5c-0.9,1.1-0.1,2.3-1.5,2.8c0.1,0.5,0.4,0.8,0.9,0.7C4.9,34,4.8,34,4.6,34.2
					c0.8,0.5,1.7,0.1,1.9-1.4c0-0.3,0.4-0.1,0.3,0.2c-0.9,1.8,1.3,3.1,0.5,4.4c0.7,0,1.2-0.1,1.5-0.3C8.9,37.4,9,37.7,9,37.9
					c0.4-0.1,0.5-0.3,0.5-0.6c0.2,0.7,1.1,1.5,2.5,1.5C11.3,37.8,12,36.7,10.9,35.5 M9.5,36.8l-0.3,0.5c-0.1-0.3-0.3-0.7-0.4-0.9
					c-0.2,0.5-0.6,0.5-1,0.5c0.1-1.2-1.4-2.4-0.8-3.8c0.1-0.3,0-0.6-0.2-0.8c-1-0.5-0.5,1.6-1.5,1.7c0.2-0.2,0.3-0.7,0.3-0.8
					c-0.2,0.1-0.7,0.4-1,0c0.6-0.3,0.8-0.8,0.8-1.3c0.1-0.6,0.2-0.9,0.3-1.1c0.1-0.3,0.3-0.5,0.7-1.1c-0.1,0-1.2,0.3-1.5,0.1
					c2-1.2,1.5-2.7,4.5-4.1c-0.8-0.6-1.6-1-1-2.2c0.8,1,2.4,0.6,3.2,0.2c-0.8-0.2-1.9-0.9-2.1-1.7c0.3,0,0.7,0.3,0.9,0.4
					c0.1-0.3,0.2-0.6,0.5-0.7c-0.5,1,0.5,1.6,1.4,1.6c0.1,0,0.7-0.1,0.7-0.1c-0.1-0.2-0.5-0.7-0.2-0.9c0.2,0.2,0.5,0.4,0.7,0.6
					c1.8,1.4-0.8,2.6-1.9,3.2c-1.7,0.9-1.2,2-0.5,2.3c0,0.1-0.1,0.2-0.2,0.2c-0.5,0.2-1-0.2-1.3-0.4c0,0.7,0,1.3,0.7,1.7l-0.5,0.2
					c0.4,0.3,0.6,0.5,1.1,0.6c-0.2,0.1-0.6,0.1-0.8,0.1c0.1,0.2,0.1,0.4,0.3,0.6c-1.1,0.1-1.5-0.5-1.9-0.5c-0.7,0.1-0.7,1.4,1.1,1.4
					l-0.2,0.3c0,0,0.3,0.2,0.6,0.2c-0.1,0.1-0.2,0.2-0.3,0.3l0.3,0.2c-0.7,0.1-0.9-0.6-1.4-0.3c-0.7,0.6,0.9,1.8,2.4,1.6
					c-0.1,0.2-0.5,0.4-0.6,0.5c1.2,1.2,0.6,2.3,1.1,3.1C10.5,38.4,9.7,37.7,9.5,36.8"/>
				<path class="st10" d="M7.6,32.6c0.3,0.3,0.6,0.3,1.2,0.3c-0.6-0.1-1-0.2-1.2-0.7c0-0.2-0.1-0.5-0.1-0.7c0-0.7,0.2-1.5,0.7-2.4
					c0,0.6,0.4,1.4,1.4,1.6c-0.9-0.4-1.4-1.3-1.1-2.1c0.2-0.3,0.4-0.6,0.6-0.9c0.1-0.2,0.2-0.3,0.3-0.4c-0.1,0.4,0.4,0.9,0.7,1
					c-0.2-0.2-0.6-0.8,0.3-1.8c-0.3,0.1-0.6,0.3-0.8,0.5c1.7-1.8,3.1-1.9,3.7-2.8c-0.9,0.6-3.4,1-4.5,0.7c0.6,0.4,2.1,0.4,2.4,0.3
					c-1.2,1.2-3.8,2.4-4.3,3.4c0.6-0.7,1.1-0.8,1.6-1c-0.4,0.7-0.8,1.2-1.1,1.9c-0.7,1.5-1.6,1.5-1.7,2.8c0.3-1,1-1.2,1.4-1.9
					c-0.1,0.4-0.1,0.9-0.1,1.4c0,0.6,0.1,1.1,0.3,1.5c0,0.6,0,1.7,0.7,2.4c-0.5-0.6-0.6-1.6-0.5-2c0.6,1.1,2.1,2.5,2.9,3.5
					C9.9,35.8,8,34.3,7.6,32.6"/>
				<path class="st10" d="M25.1,27.4c0.6,0.2,1,0.3,1.6,1c-0.5-1.1-3.1-2.3-4.3-3.4c0.4,0.1,1.8,0.1,2.4-0.3c-1.1,0.3-3.6,0-4.5-0.7
					c0.6,0.9,2,1,3.7,2.8c-0.2-0.2-0.5-0.3-0.8-0.5c0.9,1,0.5,1.6,0.3,1.8c0.3-0.1,0.9-0.5,0.8-1c0.1,0.1,0.2,0.3,0.3,0.4
					c0.2,0.3,0.4,0.6,0.6,0.9c0.3,0.8-0.2,1.7-1.1,2.1c1-0.1,1.4-1,1.4-1.6c0.5,0.9,0.7,1.7,0.7,2.4c0,0.3,0,0.5-0.1,0.7
					c-0.2,0.4-0.6,0.6-1.2,0.7c0.6,0,0.9,0,1.2-0.3c-0.4,1.7-2.3,3.2-3,4.5c0.8-1,2.3-2.5,2.9-3.5c0,0.4-0.1,1.4-0.5,2
					c0.7-0.7,0.8-1.8,0.7-2.4c0.2-0.4,0.3-0.9,0.3-1.5c0-0.5,0-1-0.1-1.4c0.4,0.6,1.1,0.9,1.4,1.9c-0.1-1.3-1-1.3-1.7-2.8
					C25.9,28.6,25.5,28.1,25.1,27.4"/>
				<path class="st10" d="M28.1,30.3c0.5,0.1,1,0.1,1.2-0.5c-2-1-2-3-4.3-4c1.3-0.9,0.9-1.8,0.3-2.7c-0.6,1.1-1.7,1.3-2.4,0.9
					c0.9-0.3,1.3-1.5,1.9-1.8c-0.4-0.4-0.8-0.4-1.3,0c-0.3-0.8-1.2-0.5-1.4-0.5c0.2,0.2,0.5,0.6,0.4,0.9c-0.1,0.8-1.3,0.6-1.3,0.6
					c0.3-0.5,0.1-0.8-0.4-1.1c-0.2,0.4-1.5,1-1.6,1.8c-0.1,1.3,1.4,2,2.7,2.8c1.5,0.8,0.9,1.6,0.4,1.7c-0.3,0.9,0.8,1.1,1.5,0.7
					c0,0.1-0.1,0.8-1.1,0.9c0.1,0.3,0.2,0.4,0.5,0.5c-0.2,0.1-0.8,0.2-1,0.2c0,0.4,0.5,0.7,1,0.8c0,0.1-0.3,0.3-0.5,0.4
					c0.6,0.6,2.1,0.2,2.4-0.1c0.1-0.2,0.3,0.1,0.2,0.3c-0.2,0.2-1,0.5-1.6,0.3c-0.1,0.4,0,0.5,0.1,0.6c0,0-0.6,0.1-0.8,0.1
					c0.1,0.3,0.4,0.4,0.5,0.5c-0.1,0.1-0.2,0.3-0.3,0.5c0.3,0.1,1.1,0.4,1.5-0.1c0.2-0.2,0.4-0.1,0.2,0.2c-0.6,0.8-2.1,0.9-2.6,0.6
					c0,0.7,0.3,0.8,0.6,1.1c-1.1,1.2-0.4,2.3-1.1,3.4c1.4,0,2.3-0.8,2.5-1.5c0,0.3,0.2,0.5,0.5,0.6c0-0.3,0.1-0.5,0.2-0.8
					c0.3,0.2,0.8,0.3,1.5,0.3c-0.8-1.3,1.4-2.6,0.5-4.4c-0.1-0.3,0.2-0.4,0.3-0.2c0.2,1.5,1.1,1.9,1.9,1.4C29,34,28.9,34,28.7,33.8
					c0.5,0.1,0.8-0.2,0.9-0.7C28.3,32.6,29,31.4,28.1,30.3 M28.3,33.3c0,0,0.1,0.5,0.3,0.8c-1-0.1-0.5-2.2-1.5-1.7
					c-0.3,0.1-0.4,0.5-0.2,0.8c0.7,1.4-0.8,2.6-0.8,3.8c-0.4,0-0.8,0-1-0.5c-0.1,0.2-0.3,0.6-0.4,0.9l-0.3-0.5c-0.2,0.8-1,1.6-2,1.7
					c0.5-0.8-0.1-1.9,1.1-3.1c-0.2-0.1-0.5-0.4-0.6-0.5c1.5,0.2,3.1-1,2.4-1.6c-0.5-0.4-0.7,0.4-1.4,0.3l0.3-0.2
					c-0.1-0.1-0.2-0.2-0.3-0.3c0.3,0,0.6-0.2,0.6-0.2l-0.2-0.3c1.8,0,1.8-1.4,1.1-1.4c-0.3,0-0.8,0.6-1.9,0.5
					c0.1-0.2,0.2-0.4,0.3-0.6c-0.3,0-0.6,0-0.8-0.1c0.5-0.1,0.7-0.2,1.1-0.6L23.4,30c0.7-0.4,0.7-1,0.7-1.7
					c-0.4,0.2-0.9,0.6-1.3,0.4c-0.1,0-0.2-0.1-0.2-0.2c0.7-0.3,1.1-1.4-0.5-2.3c-1.1-0.6-3.7-1.9-1.9-3.2c0.2-0.2,0.5-0.4,0.7-0.6
					c0.3,0.2-0.1,0.7-0.2,0.9c0,0,0.6,0.1,0.7,0.1c0.9,0,1.9-0.5,1.4-1.6c0.4,0.1,0.4,0.4,0.5,0.7c0.2-0.2,0.6-0.5,0.9-0.4
					c-0.3,0.8-1.3,1.5-2.1,1.7c0.8,0.5,2.4,0.8,3.2-0.2c0.6,1.1-0.2,1.6-1,2.2c3,1.4,2.5,2.9,4.5,4.1c-0.3,0.1-1.4-0.1-1.5-0.1
					c0.4,0.6,0.6,0.8,0.7,1.1c0.1,0.2,0.2,0.5,0.3,1.1c0.1,0.5,0.3,1,0.8,1.3C29,33.7,28.5,33.3,28.3,33.3"/>
				<path class="st10" d="M14.1,36.6l0.4-0.4l-0.1-0.1c0-0.1,0-0.1,0-0.1l0.2-0.2c0.1,0,0.1,0,0.2,0l0.7,0.2h-0.7
					c-0.2,0-0.2,0.1-0.3,0.2l0,0.1l-0.2,0.4c-0.1,0.1-0.1,0.3,0.1,0.5l0.1,0.2l-0.3,0.5h0.2l0.2-0.4c0,0,0.3-0.3,0.3-0.5
					c-0.1-0.1-0.1-0.1-0.1-0.2l0.1-0.2c0-0.1,0-0.1,0.1-0.1l0.7,0.2c0.1,0,0.2,0.1,0.3-0.1c0.1-0.1,0.1-0.1,0.3-0.1l0.4,0
					c0.5,0,1-0.1,1.2-0.2c0.1,0.2,0.2,0.3,0.3,0.4c0,0,0,0.1,0,0.2l-0.4,1h0.6l0.4-0.9c0-0.1,0.1-0.2,0.1-0.2l-0.2,1.1h0.6l0.2-1.1
					c0-0.2,0-0.3-0.1-0.4c-0.3-0.2-0.2-0.7-0.3-0.9c0,0,0.1,0,0.2,0c0.1,0,0.2,0.3,0.4,0.6c0.3,0.4,0.7,0.9,1.2,0.2
					c0-0.1-0.1-0.1-0.2-0.2l-0.1-0.2c-0.1-0.1-0.5-0.5-0.6-0.7c-0.4-0.4-0.9-0.3-1.1-0.1c-0.5-0.3-1,0-1.1,0L16.8,35
					c0,0-0.1,0-0.1-0.1l0.2-0.1c-0.1-0.6-0.5-1.1-1.2-1.2c0,0,0-0.2-0.1-0.2l-0.2,0.2c-0.1,0-0.1,0-0.2,0l-0.8-0.3l0.6,0.6
					c0,0-0.3,0.5-0.4,0.6c-0.1,0.1-0.1,0.2,0,0.2l0.1,0.2c0.1,0.1,0.1,0.1,0.2,0l0.1-0.1c0.1,0,0.3,0,0.3,0
					c-0.1,0.2-0.1,0.4-0.1,0.5l-0.6-0.1c-0.1,0-0.2,0-0.3,0.1L14,35.7c-0.2,0.1-0.2,0.3-0.1,0.5L14.1,36.6z M18.7,36.7l-0.4,0.9
					h-0.2l0.4-0.9c0-0.1,0-0.2-0.1-0.3C18.4,36.5,18.5,36.6,18.7,36.7C18.7,36.7,18.7,36.7,18.7,36.7 M15,34.7l-0.1,0.1
					c-0.1,0-0.1,0.1-0.2,0l0-0.1c0,0,0-0.1,0-0.2l0.5-0.5l-0.4-0.3l0.5,0.2l0.2-0.2c0.1,0.1,0,0.2,0,0.2c0.2,0,0.9,0.3,0.9,1.1
					c0,0,0.1,0.2,0.3,0.2l0.9,0.1c0.2,0,0.5-0.3,1.1,0c0.1-0.1,0.3-0.1,0.4-0.2c0.4,0,0.8,0.3,1,0.6c0.2,0.2,0.4,0.6,0.4,0.6
					c-0.1,0.1-0.2,0.2-0.3,0.1c-0.1-0.1-0.2-0.2-0.2-0.3c-0.1-0.2-0.3-0.4-0.3-0.4c0.1,0.2,0.1,0.3,0.1,0.5
					c-0.4-0.4-0.4-0.8-0.7-0.9c-0.1,0-0.2,0-0.4,0.2c0.1,0.3,0.1,0.7,0.3,0.9c0.1,0.2,0.1,0.2,0.2,0.2c0.1,0.1,0,0.2,0,0.3l-0.1,0.9
					h-0.2l0.2-0.9c0-0.3-0.7-0.3-1.1-0.8c-0.3,0.4-1.2,0.3-1.6,0.2c-0.2,0-0.3,0-0.4,0.1c0,0.1-0.1,0.1-0.2,0l-0.7-0.2
					c-0.1,0-0.2,0-0.2,0.1l-0.1,0.3c0,0.1,0,0.1,0,0.2l0.1,0.1c0,0.1-0.2,0.2-0.2,0.2L14.5,37c-0.1-0.1-0.1-0.2,0-0.3l0.2-0.5
					c0-0.1,0.1-0.1,0.2-0.1l0.9,0l-0.3-0.4c-0.2-0.3,0.1-0.9,0.1-1.2C15.5,34.8,15.1,34.7,15,34.7 M14.1,35.8l0.4-0.3
					c0.1-0.1,0.1-0.1,0.2-0.1l0.6,0.1c0,0.1,0.1,0.3,0.1,0.3l-0.6-0.1c-0.1,0-0.1,0-0.2,0.1l-0.3,0.2c-0.1,0-0.1,0.1,0,0.2l0,0.1
					l-0.2,0.2L14,36.2C13.9,36.1,13.9,35.9,14.1,35.8"/>
				<path class="st10" d="M15.9,24.6c0.2,0.2,0.6,0.3,0.6,0.3v-0.3l-0.9-0.3C15.6,24.3,15.6,24.4,15.9,24.6"/>
				<path class="st10" d="M16.5,24.3V24l-1-0.4c0,0,0.1,0.1,0.4,0.3C16.1,24.1,16.5,24.3,16.5,24.3"/>
				<path class="st10" d="M16.5,23.7v-0.3L15.4,23c0,0,0.2,0.2,0.5,0.3C16.1,23.5,16.5,23.7,16.5,23.7"/>
				<path class="st10" d="M19.6,27.3h1.1c0-0.2-0.2-0.3-0.5-0.3C19.9,27,19.7,27.2,19.6,27.3"/>
				<path class="st10" d="M18.4,23l-1.1,0.4v0.3c0,0,0.4-0.2,0.6-0.3C18.2,23.2,18.4,23,18.4,23"/>
				<path class="st10" d="M18.2,24.3l-0.9,0.3v0.3c0,0,0.4-0.2,0.6-0.3C18.2,24.4,18.2,24.3,18.2,24.3"/>
				<path class="st10" d="M18.3,23.6l-1,0.4v0.3c0,0,0.4-0.2,0.6-0.3C18.2,23.8,18.3,23.6,18.3,23.6"/>
				<path class="st10" d="M13.7,27c-0.3,0-0.5,0.2-0.5,0.3h1.1C14.1,27.1,14,27,13.7,27"/>
				<path class="st10" d="M19.1,22.3c0-0.6-1.1-1.2-2.2-1.2c-1.2,0-2.2,0.6-2.2,1.2l0,0.2l0.5,2.7L13,26.4c-0.2,0.1-0.5,0.5-0.6,0.9
					h0.4c0.1-0.4,0.4-0.8,0.9-0.8c0.5,0,0.8,0.3,1.1,0.8l0.1,0.1l0.1,0.2h-3.3c0.2,0.5,0.5,1,0.5,1.5v6.8c0,1.7,1.3,2.6,2.8,2.6
					c1.1,0,1.3-0.1,1.9,0.6c0.6-0.6,0.8-0.6,1.9-0.6c1.4,0,2.8-0.8,2.8-2.6v-6.8c0-0.6,0.2-1.1,0.5-1.5h-3.3l0.1-0.2l0.1-0.1
					c0.3-0.4,0.6-0.8,1.1-0.8c0.6,0,0.9,0.4,0.9,0.8h0.4c0-0.4-0.3-0.8-0.6-0.9l-2.2-1.3l0.5-2.7L19.1,22.3z M15.1,22.6l1.7,0.6v2.6
					l-1.2-0.6L15.1,22.6z M15.5,28.1c0.2,0.3,0.6,0.5,1,0.6c0,0.2,0.1,0.3,0.3,0.5c-0.1,0.5,0.1,0.9,0.6,1c0.1,0.2,0.2,0.4,0.4,0.5
					L17.5,31c-0.1,0.2-0.3,0.2-0.4,0.2L15.5,31c0.1-0.2-0.1-0.4-0.6-0.3l0.6-1.7l-0.4-0.8l-0.7,0.6l-0.1,1.8l-0.3-0.1
					C13.7,30.3,13.6,31,14,31l0.1,0c0,0.1,0,0.2,0.1,0.2c-0.1,0-0.1,0.2,0,0.2c-0.1,0-0.1,0.2,0,0.2c-0.1,0.1-0.1,0.4,0.2,0.5
					c0.2,0.1,0.4-0.2,0.4-0.3l2.4,0.7c0.3,0.1,0.6,0,0.9-0.2l0.6-0.5c-0.1,0.4,0.1,0.7,0.3,0.8c0,0,0,0.3,0,0.5h-6.2v-3.9
					c0-0.4-0.1-0.7-0.2-1.1H15.5z M18.1,29.6c-0.1,0.3-0.1,0.5,0,0.8L18,30.5c-0.5-0.1-0.6-0.7-0.6-0.7c0,0.1,0,0.1,0,0.2
					c-0.3-0.1-0.4-0.3-0.4-0.7c0.1,0.1,0.2,0.1,0.3,0.1l0-0.2c-0.3-0.1-0.5-0.3-0.6-0.5c0,0,0,0,0,0c0.1,0,0.1,0,0.2,0
					c0.2,0,0.4,0,0.5-0.1c0.1,0.2,0.4,0.3,0.6,0.3C18,29.1,18,29.3,18.1,29.6 M18.8,31.3c0,0.1-0.1,0.1-0.1,0.2l-0.3,0.2
					c0-0.4-0.2-0.8-0.4-1l0.3-0.3l0.1,0.1C18.2,30.8,18.4,31.3,18.8,31.3 M17.6,31.2l0.2-0.2c0.2,0.2,0.5,0.6,0.4,1L18,32.2
					c0,0-0.1,0.1-0.1,0.1C17.9,32,17.8,31.4,17.6,31.2 M17.1,31.4L17.1,31.4c0.1,0,0.2,0,0.2,0c0.2,0.2,0.3,0.7,0.1,1.1
					c-0.1,0-0.2,0-0.3,0l-0.1,0C17.2,32.1,17.2,31.7,17.1,31.4 M16.6,31.3l0.3,0c0,0.2,0,0.7-0.1,0.9l-0.3-0.1
					C16.6,32,16.6,31.5,16.6,31.3 M16,31.2l0.4,0c0,0.2,0,0.6-0.2,0.8L15.8,32C16,31.8,16,31.5,16,31.2 M14.6,31.2
					c-0.2,0.1-0.2-0.1-0.2-0.2c0.3-0.1,0.5,0,0.6,0c0.1,0.1,0.2,0.2,0.3,0.3c0,0.1-0.1,0.3-0.1,0.5c-0.3-0.1-0.3-0.4-0.2-0.6
					C14.8,31.1,14.7,31.1,14.6,31.2 M14.3,31.8c0,0,0.1,0,0.2,0.1c0,0.1-0.1,0.1-0.2,0.1C14.3,31.9,14.3,31.9,14.3,31.8 M14,30.9
					c-0.1-0.1,0-0.2,0-0.2c0.1,0,0.2,0.1,0.4,0.2C14.4,30.9,14.1,30.9,14,30.9 M14.3,31.5c0.1,0.1,0.3,0,0.3,0l0,0
					C14.5,31.7,14.3,31.7,14.3,31.5 M14.6,31.4c-0.2,0.1-0.3,0-0.3-0.1C14.4,31.3,14.6,31.3,14.6,31.4L14.6,31.4z M14.9,29.6
					l-0.3,1.1l0.1-1.7l0.5-0.4l0.2,0.5l-0.6,1.7L14.9,29.6C14.9,29.6,14.9,29.5,14.9,29.6 M14.9,30.9c0,0,0.3,0,0.4,0
					c0.1,0,0,0.1-0.1,0.1C15.1,31,14.9,30.9,14.9,30.9 M15.4,31.2l0.4,0c0,0.2,0,0.5-0.2,0.7l-0.3-0.1
					C15.3,31.6,15.4,31.4,15.4,31.2 M21.1,35.9c0,0.8-0.4,1.4-1,1.8l0.2-0.5h-0.2l-0.3,0.6c-0.3,0.1-0.6,0.2-1,0.2
					c-1.2,0-1.5,0-1.9,0.5C16.5,38,16.2,38,15,38c-0.4,0-0.7-0.1-1-0.2h0l0.3-0.6h-0.2l-0.3,0.5c-0.1,0-0.1-0.1-0.2-0.1l0.2-0.4
					h-0.2l-0.2,0.3c-0.5-0.4-0.8-0.9-0.8-1.7v-2.6h8.4V35.9z M21.3,28.1c-0.1,0.3-0.2,0.7-0.2,1.1v3.9h-0.5
					c-0.2-0.2-0.4-0.9-0.4-0.9c-0.1,0.2,0,0.7,0.1,0.9h-0.6c-0.1-0.2-0.3-0.9-0.3-0.9c-0.2,0.2-0.1,0.7,0,0.9h-0.4
					c0-0.3,0.1-0.6,0.1-0.6c-0.2,0-0.4-0.1-0.4-0.4c0.1,0.1,0.1,0.1,0.3,0.1l0.2-0.1c-0.6,0-0.6-0.6-0.1-0.9c-0.4,0-0.8-0.2-0.6-0.7
					c-0.3-0.2-0.4-0.7-0.2-0.9c-0.2-0.2-0.2-0.5-0.1-0.8c-0.2,0-0.5-0.1-0.6-0.2c0,0,0,0,0,0c0.3-0.1,0.5-0.3,0.7-0.5H21.3z
					 M19.7,26.2c-0.5,0.1-0.8,0.6-1.2,1.1l0,0.1h-0.3v0.1c0,0.4-0.4,0.9-1.2,0.9c-0.4,0-0.7-0.1-0.9-0.3c-0.2-0.1-0.3-0.3-0.3-0.5
					c0-0.1,0-0.1,0-0.2l0-0.1h-0.3l0-0.1c-0.3-0.5-0.7-1.1-1.2-1.1l1.2-0.7l1.5,0.8l1.5-0.8L19.7,26.2z M18.3,25.1L17,25.7v-2.6
					l1.6-0.6L18.3,25.1z M16.9,22.9l-1.8-0.7c0.2-0.4,0.9-0.7,1.8-0.7c0.9,0,1.6,0.3,1.8,0.7L16.9,22.9z"/>
				<path class="st10" d="M20.9,30.6l0-0.2c-0.6,0-0.7-0.7-0.7-0.7C20,30.2,20.5,30.6,20.9,30.6"/>
				<path class="st10" d="M20.2,31.8l-0.1-0.2c-0.5,0.1-0.8-0.7-0.8-0.7C19.1,31.5,19.7,32,20.2,31.8"/>
				<path class="st10" d="M20.5,31.1c-0.6,0.1-0.9-0.6-0.9-0.6c-0.1,0.4,0.2,0.8,0.6,0.8c-0.1,0.5,0.4,0.8,0.8,0.6L21,31.7
					C20.6,31.8,20.3,31.5,20.5,31.1"/>
				<path class="st10" d="M20.1,29l0-0.2c-0.8-0.2-0.7-0.7-0.7-0.7C19.2,28.6,19.7,29,20.1,29"/>
				<polygon class="st10" points="15,37.2 14.7,37.8 14.9,37.8 15.2,37.2 				"/>
				<polygon class="st10" points="15.4,37.2 15.1,37.8 15.3,37.8 15.6,37.2 				"/>
				<polygon class="st10" points="17.2,37.2 16.9,37.8 17.1,37.8 17.4,37.2 				"/>
				<polygon class="st10" points="17.6,37.2 17.3,37.8 17.5,37.8 17.8,37.2 				"/>
				<polygon class="st10" points="16.7,37.2 16.4,37.8 16.7,37.8 17,37.2 				"/>
				<polygon class="st10" points="19.3,37.8 19.5,37.8 19.8,37.2 19.6,37.2 				"/>
				<polygon class="st10" points="15.9,37.2 15.6,37.8 15.8,37.8 16.1,37.2 				"/>
				<polygon class="st10" points="16.3,37.2 16,37.8 16.2,37.8 16.5,37.2 				"/>
				<path class="st10" d="M15.3,34C15.3,34,15.2,34.1,15.3,34c-0.1,0.1,0,0.2,0,0.2C15.3,34.2,15.4,34.2,15.3,34
					C15.4,34.1,15.3,34,15.3,34"/>
				<path class="st10" d="M16.9,20.7c0.9,0,1.6,0.3,2,0.6c0,0,0.1-0.7,0.5-1.3L18.7,20l-0.4-0.8l-0.7,0.4l-0.7-0.7l-0.7,0.7
					l-0.7-0.4L15.1,20l-0.7-0.1c0.4,0.6,0.5,1.3,0.5,1.3C15.3,21,16,20.7,16.9,20.7 M15.2,20.3l0.3-0.7l0.6,0.3l0.7-0.7l0.7,0.7
					l0.6-0.3l0.3,0.7l0.4-0.1c-0.1,0.2-0.2,0.4-0.3,0.6c-0.5-0.3-1.2-0.5-1.9-0.5c-0.7,0-1.4,0.2-1.9,0.5c-0.1-0.3-0.2-0.4-0.3-0.6
					L15.2,20.3z"/>
				<path class="st10" d="M17.7,19.2c0.1,0,0.2-0.1,0.2-0.2c0-0.1-0.1-0.4-0.1-0.4s-0.2,0.2-0.2,0.4C17.5,19.1,17.5,19.2,17.7,19.2"
					/>
				<path class="st10" d="M18.8,19.7c0.1,0.1,0.2,0,0.3-0.1c0.1-0.1,0-0.4,0-0.4s-0.3,0.1-0.4,0.2C18.7,19.5,18.8,19.6,18.8,19.7"/>
				<path class="st10" d="M16.2,19.2c0.1,0,0.2-0.1,0.2-0.2c0-0.1-0.2-0.4-0.2-0.4S15.9,18.9,16,19C16,19.1,16.1,19.2,16.2,19.2"/>
				<path class="st10" d="M15,19.7c0.1-0.1,0.1-0.2,0.1-0.3c0-0.1-0.4-0.2-0.4-0.2s0,0.3,0,0.4S14.9,19.7,15,19.7"/>
				<path class="st10" d="M29.3,26.2c0.3-0.1,0.5-0.3,0.5-0.6c-0.6-0.1-2.4-0.8-3.8-0.2c0.5-0.5,1-0.6,1.1-1.3
					c0.2,0.2,0.6,0.2,0.8-0.1c-0.1-0.4-0.5-0.1-0.6-0.2c-0.1-0.2,0.5,0.1,0.6-0.5c-0.4-0.1-0.5,0.2-0.6,0.1c-0.1-0.1,0.3-0.2,0-0.7
					c-0.4,0.3-0.2,0.5-0.3,0.6c-0.1,0,0-0.3-0.5-0.3c0,0.5,0.5,0.5,0.4,0.6c-0.1,0.1-0.2-0.3-0.6-0.1c0,0.4,0.3,0.6,0.7,0.5
					c-0.1,0.8-0.8,0.6-1.3,1.5c1.1,0.6,1.7,1.6,2.4,2.3c0.2-0.2,0.6-0.9,0.6-0.9c0.8,0.6,1.3,0,1.3,0C29.7,26.8,29.7,26.6,29.3,26.2
					 M28.2,26.4c0.1,0.2,0.2,0.8-0.1,1.2c-0.4-0.9-1-1.6-1.5-1.9c-0.1-0.1,0.1-0.2,0.3-0.2c0.9-0.2,1.9,0.2,2.4,0.3
					c-0.2,0.2-0.4,0.2-0.7,0.3c0.4,0.3,0.6,0.6,0.8,0.8C29.1,27,28.9,26.8,28.2,26.4"/>
				<path class="st10" d="M16.7,40.3l-0.5,0l-0.1,0.2l0.1,0c0,0,0,0,0-0.1c0,0,0.1,0,0.2,0l0.2,0c-0.1,0.3-0.4,0.5-0.4,0.7
					c0,0.1,0.1,0.1,0.2,0.1c0.1,0,0.1-0.1,0.2-0.2C16.6,40.7,16.7,40.5,16.7,40.3L16.7,40.3L16.7,40.3z"/>
				<path class="st10" d="M17,40.6l0-0.2h0.4l0-0.2c-0.1,0-0.3,0-0.5,0L17,40.6c0.1,0,0.3,0.1,0.3,0.3c0,0.1-0.1,0.2-0.1,0.2
					c0,0-0.1,0-0.1,0c0,0,0-0.1,0-0.1c0-0.1-0.1-0.1-0.1-0.1c-0.1,0-0.1,0.1-0.1,0.1c0,0.1,0.2,0.2,0.3,0.2c0.2,0,0.4-0.1,0.4-0.3
					C17.5,40.6,17.2,40.6,17,40.6"/>
				<path class="st10" d="M18,40.2c-0.2,0-0.3,0.1-0.3,0.3c0,0.2,0.3,0.3,0.5,0.2c0,0.2,0,0.3-0.1,0.3C18,41.1,18,41,18,41
					c0-0.1-0.1-0.1-0.1-0.1c-0.1,0-0.1,0.1-0.1,0.1c0,0.1,0.1,0.1,0.2,0.1c0.3,0,0.4-0.2,0.4-0.4C18.4,40.5,18.2,40.2,18,40.2
					 M18.1,40.7c-0.2,0-0.2-0.2-0.2-0.4c0,0,0-0.1,0.1-0.1C18.1,40.3,18.1,40.6,18.1,40.7C18.1,40.7,18.1,40.7,18.1,40.7"/>
				<path class="st10" d="M15.9,40.2c0,0-0.1,0.2-0.4,0.3l0,0c0,0,0.1,0,0.1-0.1l-0.1,0.5c0,0,0,0-0.1,0l-0.1,0l0,0.1l0.4,0.1l0-0.1
					l-0.1,0c0,0,0,0,0,0L15.9,40.2L15.9,40.2z"/>
				<path class="st10" d="M20.8,39.6v-1c-0.7,0.3-1.7,0.6-2.9,0.7l-0.1,0.3c0.1,0,0.2,0,0.4,0c-0.5,0.1-1,0.1-1.4,0.1
					c-0.3,0-0.9,0-1.4-0.1c0.2,0,0.3,0,0.4,0l-0.1-0.3c-1.2-0.1-2.2-0.4-2.9-0.7v1L12,40c0.8,0.4,1.6,0.7,2.6,1l-0.1,0.4
					c0.6,0.2,1.5,0.3,2.4,0.3s1.9-0.2,2.4-0.3L19.2,41c1-0.3,1.9-0.6,2.6-1L20.8,39.6z M12.5,40l0.7-0.3V39c0.4,0.2,1,0.3,1.8,0.5
					l-0.4,1.3C13.8,40.5,13.1,40.3,12.5,40 M16.9,41.5c-0.8,0-1.5-0.1-2.2-0.3l0.4-1.3c0.3,0.1,1,0.1,1.8,0.1c0.8,0,1.5-0.1,1.8-0.1
					l0.4,1.3C18.4,41.4,17.7,41.5,16.9,41.5 M19.2,40.7l-0.4-1.3c0.8-0.2,1.4-0.3,1.8-0.5v0.8l0.7,0.3C20.7,40.3,20,40.5,19.2,40.7"
					/>
				<path class="st10" d="M5.1,27.1c0,0,0.4,0.7,0.6,0.9c0.7-0.7,1.2-1.7,2.4-2.3c-0.5-0.9-1.3-0.7-1.3-1.5c0.3,0.1,0.7-0.1,0.7-0.5
					c-0.4-0.2-0.5,0.2-0.6,0.1c-0.1-0.1,0.4-0.1,0.4-0.6c-0.5,0-0.4,0.3-0.5,0.3c-0.1,0,0.1-0.3-0.3-0.6c-0.2,0.5,0.1,0.6,0,0.7
					c-0.1,0.1-0.2-0.3-0.6-0.1c0.1,0.6,0.7,0.3,0.6,0.5C6.4,23.9,6,23.6,5.9,24c0.2,0.4,0.6,0.3,0.8,0.1c0,0.7,0.5,0.8,1.1,1.3
					c-1.4-0.6-3.1,0.1-3.8,0.2c0.1,0.2,0.3,0.5,0.6,0.6c-0.4,0.4-0.4,0.6-0.7,0.8C3.8,27.1,4.4,27.7,5.1,27.1 M4.3,27
					c0.2-0.3,0.4-0.5,0.8-0.8c-0.2,0-0.4-0.1-0.7-0.3C5,25.7,6,25.3,6.9,25.5c0.3,0,0.5,0.2,0.3,0.2c-0.5,0.3-1.1,1-1.5,1.9
					c-0.4-0.5-0.2-1.1-0.1-1.2C4.9,26.8,4.7,27,4.3,27"/>
				<path class="st10" d="M16.3,26.5V27c0.1-0.2,0.4-0.1,0.4-0.1v0.6c0,0,0,0.3-0.1,0.4h0.3h0.3c-0.1-0.1-0.1-0.4-0.1-0.4v-0.6
					c0,0,0.3,0,0.4,0.1v-0.4h-0.6H16.3z"/>
			</g>
		</g>
	</g>
</g>
</svg>
