<?xml version="1.0" encoding="utf-8"?>
<!-- Generator: Adobe Illustrator 22.0.1, SVG Export Plug-In . SVG Version: 6.00 Build 0)  -->
<svg version="1.1" id="Слой_1" xmlns="http://www.w3.org/2000/svg" xmlns:xlink="http://www.w3.org/1999/xlink" x="0px" y="0px"
	 viewBox="0 0 100 60" style="enable-background:new 0 0 100 60;" xml:space="preserve">
<style type="text/css">
	.st0{fill:#EAEBEC;}
	.st1{fill:none;stroke:#525254;stroke-width:1.5581;stroke-linecap:round;stroke-linejoin:round;stroke-miterlimit:10;}
	.st2{fill:#BC8B57;}
	.st3{fill:#C6975F;}
	.st4{fill:none;stroke:#C0C2C4;stroke-width:2.2749;stroke-linecap:round;stroke-linejoin:round;stroke-miterlimit:10;}
	.st5{fill:none;stroke:#96979A;stroke-width:1.5;stroke-linecap:round;stroke-linejoin:round;stroke-miterlimit:10;}
	.st6{fill:#96979A;}
	.st7{fill-rule:evenodd;clip-rule:evenodd;fill:#DADEE1;}
	.st8{fill:#FFFFFF;}
	.st9{fill-rule:evenodd;clip-rule:evenodd;fill:#EAEBEC;}
	.st10{fill-rule:evenodd;clip-rule:evenodd;fill:#96979A;}
	.st11{fill-rule:evenodd;clip-rule:evenodd;fill:url(#SVGID_1_);}
	.st12{fill:#3AA61E;}
	.st13{fill:#008922;}
	.st14{fill:#D6D7D8;}
	.st15{fill:#C0C2C4;}
	.st16{fill:#696A6C;stroke:#696A6C;stroke-width:1.8366;stroke-linecap:round;stroke-linejoin:round;stroke-miterlimit:10;}
	.st17{opacity:0.6;fill:#1B1819;}
	.st18{fill:#1B1819;}
	.st19{fill:none;stroke:#1B1819;stroke-width:1.5305;stroke-linecap:round;stroke-linejoin:round;stroke-miterlimit:10;}
	.st20{fill:#39393A;}
	.st21{fill:none;stroke:#6DCBE8;stroke-width:1.5305;stroke-linecap:round;stroke-linejoin:round;stroke-miterlimit:10;}
	.st22{fill:#6DCBE8;stroke:#6DCBE8;stroke-width:1.5305;stroke-miterlimit:10;}
	.st23{fill:#BA1020;}
	.st24{fill:#E5BE95;}
	.st25{fill:#F4D6B0;}
	.st26{fill:none;stroke:#C0C2C4;stroke-width:2;stroke-linecap:round;stroke-linejoin:round;stroke-miterlimit:10;}
	.st27{fill:none;stroke:#525254;stroke-width:2;stroke-linecap:round;stroke-linejoin:round;stroke-miterlimit:10;}
	.st28{fill:#BA1020;stroke:#BA1020;stroke-width:2;stroke-linecap:round;stroke-linejoin:round;stroke-miterlimit:10;}
	.st29{fill:#C7B599;}
	.st30{fill:none;stroke:#808183;stroke-width:2;stroke-linecap:round;stroke-linejoin:round;stroke-miterlimit:10;}
	.st31{fill:#696A6C;}
	.st32{fill:#2DAA5B;stroke:#2DAA5B;stroke-width:2;stroke-linecap:round;stroke-linejoin:round;stroke-miterlimit:10;}
	.st33{fill:#ACADAF;}
	.st34{fill:none;stroke:#ACADAF;stroke-width:2;stroke-linecap:round;stroke-linejoin:round;stroke-miterlimit:10;}
	.st35{fill:none;stroke:#BA1020;stroke-width:2;stroke-linecap:round;stroke-linejoin:round;stroke-miterlimit:10;}
	.st36{fill:none;stroke:#E52E28;stroke-linecap:round;stroke-linejoin:round;stroke-miterlimit:10;}
	.st37{fill:url(#SVGID_2_);}
	.st38{fill:url(#SVGID_3_);}
	.st39{fill:url(#SVGID_4_);}
	.st40{fill:#525254;}
	.st41{fill-rule:evenodd;clip-rule:evenodd;fill:#FFE100;}
	.st42{fill-rule:evenodd;clip-rule:evenodd;fill:#1B1819;}
	.st43{opacity:0.8;fill:#1B1819;}
	
		.st44{opacity:0.8;fill:none;stroke:#1B1819;stroke-width:1.3656;stroke-linecap:round;stroke-linejoin:round;stroke-miterlimit:10;}
	.st45{fill:none;stroke:#39393A;stroke-width:2.7311;stroke-linecap:round;stroke-linejoin:round;stroke-miterlimit:10;}
	.st46{fill:url(#SVGID_5_);}
	.st47{fill:url(#SVGID_6_);}
	.st48{fill:url(#SVGID_7_);}
	.st49{fill:url(#SVGID_8_);}
	.st50{fill:url(#SVGID_9_);}
	.st51{fill:url(#SVGID_10_);}
	.st52{fill:url(#SVGID_11_);}
	.st53{fill:url(#SVGID_12_);}
	.st54{fill:url(#SVGID_13_);}
	.st55{fill:url(#SVGID_14_);}
	.st56{fill:url(#SVGID_15_);}
	.st57{opacity:0.65;clip-path:url(#SVGID_17_);fill:url(#SVGID_18_);}
	.st58{opacity:0.65;clip-path:url(#SVGID_20_);fill:#C0C2C4;}
</style>
<g>
	<g>
		<path class="st18" d="M45.6,29.9c0.1-0.2,0.2-0.4,0.4-0.5H46v3.9h1.8v-6.7H46l-2,3.1c-0.1,0.2-0.2,0.3-0.3,0.5
			c-0.1,0.2-0.2,0.3-0.3,0.5h-0.1v-4.1h-1.8v6.7h1.8c0.3-0.5,0.7-0.9,1-1.4c0.3-0.5,0.7-1,1-1.4C45.4,30.2,45.5,30,45.6,29.9"/>
		<polygon class="st18" points="51.3,30.5 54,30.5 54,33.3 55.8,33.3 55.8,26.6 54,26.6 54,29.1 51.3,29.1 51.3,26.6 49.5,26.6 
			49.5,33.3 51.3,33.3 		"/>
		<path class="st18" d="M63.2,31.1c0-0.7-0.2-1.2-0.7-1.6C62,29.2,61.3,29,60.5,29h-1.3v-2.4h-1.8v6.7h3.2c0.8,0,1.4-0.2,1.9-0.5
			C62.9,32.4,63.2,31.9,63.2,31.1 M61.1,31.7c-0.2,0.1-0.4,0.2-0.7,0.2h-1.2v-1.6h1.1c0.3,0,0.5,0.1,0.7,0.2
			c0.2,0.1,0.3,0.3,0.3,0.6C61.4,31.4,61.3,31.6,61.1,31.7"/>
		<path class="st18" d="M86.2,32.4c0.3-0.3,0.6-0.7,0.7-1.1c0.2-0.4,0.3-0.9,0.3-1.4c0-0.5-0.1-1-0.3-1.4c-0.2-0.4-0.4-0.8-0.7-1.1
			c-0.3-0.3-0.7-0.5-1.1-0.7c-0.4-0.2-0.9-0.3-1.4-0.3v-2.5L82,24.6v1.9c-0.5,0-1,0.1-1.4,0.3c-0.4,0.2-0.8,0.4-1.1,0.7
			c-0.3,0.3-0.6,0.6-0.8,1.1c-0.2,0.4-0.3,0.9-0.3,1.3c0,0.5,0.1,1,0.3,1.4c0.2,0.4,0.4,0.8,0.7,1.1c0.3,0.3,0.7,0.5,1.1,0.7
			c0.4,0.2,0.9,0.3,1.5,0.3v2.8l1.7-0.6v-2.2c0.5,0,1-0.1,1.4-0.3C85.5,32.9,85.9,32.7,86.2,32.4 M82,32.1c-0.3,0-0.5-0.1-0.7-0.2
			c-0.2-0.1-0.4-0.2-0.6-0.4c-0.2-0.2-0.3-0.4-0.4-0.7c-0.1-0.3-0.2-0.6-0.2-0.9c0-0.6,0.2-1.1,0.5-1.5c0.3-0.4,0.8-0.6,1.4-0.7
			V32.1z M84.4,31.9c-0.2,0.1-0.4,0.2-0.7,0.2v-4.3c0.6,0,1,0.3,1.4,0.7c0.3,0.4,0.5,0.9,0.5,1.5c0,0.3-0.1,0.7-0.2,0.9
			c-0.1,0.3-0.2,0.5-0.4,0.7C84.8,31.7,84.6,31.8,84.4,31.9"/>
		<path class="st18" d="M96.7,31.3c0.2-0.4,0.3-0.9,0.3-1.4c0-0.5-0.1-1-0.3-1.4c-0.2-0.4-0.4-0.8-0.7-1.1c-0.3-0.3-0.7-0.5-1.1-0.7
			c-0.4-0.2-0.9-0.3-1.4-0.3v-2.5l-1.7,0.6v1.9c-0.5,0-1,0.1-1.4,0.3c-0.4,0.2-0.8,0.4-1.1,0.7c-0.3,0.3-0.6,0.6-0.8,1.1
			c-0.2,0.4-0.3,0.9-0.3,1.3c0,0.5,0.1,1,0.3,1.4c0.2,0.4,0.4,0.8,0.7,1.1c0.3,0.3,0.7,0.5,1.1,0.7c0.4,0.2,0.9,0.3,1.5,0.3v2.8
			l1.7-0.6v-2.2c0.5,0,1-0.1,1.4-0.3c0.4-0.2,0.8-0.4,1.1-0.7C96.3,32.1,96.5,31.7,96.7,31.3 M91.8,32.1c-0.3,0-0.5-0.1-0.7-0.2
			c-0.2-0.1-0.4-0.2-0.6-0.4c-0.2-0.2-0.3-0.4-0.4-0.7c-0.1-0.3-0.1-0.6-0.1-0.9c0-0.6,0.2-1.1,0.5-1.5c0.3-0.4,0.8-0.6,1.4-0.7
			V32.1z M95.1,30.8c-0.1,0.3-0.2,0.5-0.4,0.7c-0.2,0.2-0.4,0.3-0.6,0.4c-0.2,0.1-0.5,0.2-0.7,0.2v-4.3c0.6,0,1,0.3,1.4,0.7
			c0.3,0.4,0.5,0.9,0.5,1.5C95.3,30.3,95.2,30.6,95.1,30.8"/>
		<polygon class="st18" points="34.2,25.3 36.9,25.3 36.9,33.3 38.7,33.3 38.7,25.3 41.2,25.3 41.2,23.7 34.2,23.7 		"/>
		<polygon class="st18" points="70.6,26.6 68.6,26.6 66.2,29.5 66.2,26.6 64.4,26.6 64.4,33.3 66.2,33.3 66.2,30 68.5,33.3 
			70.6,33.3 68,29.7 		"/>
		<path class="st18" d="M76.6,27.4c-0.3-0.3-0.6-0.5-1-0.7c-0.4-0.2-0.8-0.2-1.3-0.2c-0.5,0-0.9,0.1-1.3,0.2c-0.4,0.2-0.7,0.4-1,0.7
			c-0.3,0.3-0.5,0.7-0.7,1.1C71,28.9,71,29.4,71,30c0,0.5,0.1,1,0.2,1.4c0.2,0.4,0.4,0.8,0.7,1.1c0.3,0.3,0.6,0.5,1,0.7
			c0.4,0.2,0.8,0.2,1.3,0.2c0.5,0,0.9-0.1,1.3-0.2c0.4-0.2,0.8-0.4,1-0.7c0.3-0.3,0.5-0.7,0.7-1.1c0.2-0.4,0.2-0.9,0.2-1.5
			c0-0.5-0.1-1-0.2-1.4C77.1,28.1,76.9,27.7,76.6,27.4 M75.6,30.7c-0.1,0.2-0.2,0.5-0.3,0.7c-0.1,0.2-0.3,0.3-0.5,0.4
			c-0.2,0.1-0.4,0.2-0.6,0.2c-0.5,0-0.8-0.2-1.1-0.5c-0.3-0.4-0.4-0.9-0.4-1.5c0-0.6,0.1-1.1,0.4-1.5c0.2-0.4,0.6-0.6,1.1-0.6
			c0.5,0,0.9,0.2,1.1,0.6c0.3,0.4,0.4,0.9,0.4,1.5C75.7,30.2,75.7,30.5,75.6,30.7"/>
	</g>
	<g>
		<g>
			<path class="st7" d="M10.9,35.6c0.3-0.3,0.6-0.4,0.6-1.1c-0.5,0.3-2,0.3-2.6-0.6c-0.2-0.2,0-0.4,0.2-0.2c0.4,0.5,1.2,0.3,1.5,0.1
				c0-0.2-0.2-0.4-0.3-0.5c0.1-0.1,0.4-0.3,0.5-0.5c-0.2-0.1-0.8-0.2-0.8-0.2c0.1-0.1,0.2-0.2,0.2-0.6c-0.6,0.2-1.4-0.1-1.6-0.3
				c-0.2-0.2,0-0.5,0.2-0.3c0.3,0.3,1.9,0.7,2.5,0.1c-0.2-0.1-0.5-0.3-0.5-0.4c0.5-0.1,1-0.4,1-0.8c-0.3,0-0.9,0-1.1-0.2
				c0.3-0.1,0.4-0.2,0.5-0.5c-1-0.1-1.1-0.8-1.1-0.9c0.6,0.4,1.8,0.2,1.5-0.7c-0.5,0-1.1-0.9,0.4-1.7c1.3-0.7,2.9-1.5,2.7-2.8
				c-0.1-0.8-1.4-1.4-1.6-1.8c-0.6,0.3-0.7,0.6-0.4,1.1c0,0-1.3,0.1-1.4-0.7c0-0.4,0.2-0.7,0.4-0.9c-0.1,0-1.1-0.3-1.4,0.5
				c-0.5-0.4-1-0.4-1.4,0c0.6,0.3,0.9,1.5,1.9,1.9c-0.7,0.4-1.8,0.2-2.4-0.9c-0.6,0.9-1,1.8,0.3,2.8c-2.4,1.1-2.3,3.1-4.4,4.1
				c0.2,0.6,0.6,0.6,1.2,0.5c-0.9,1.2-0.1,2.4-1.5,2.8C4.2,33.6,4.5,34,5,33.8C4.8,34,4.8,34,4.5,34.3c0.8,0.5,1.7,0.1,1.9-1.4
				c0-0.3,0.4-0.1,0.3,0.2c-0.9,1.8,1.3,3.2,0.6,4.5c0.7,0,1.2-0.1,1.5-0.3C8.9,37.5,9,37.8,8.9,38c0.4-0.1,0.5-0.3,0.5-0.6
				c0.3,0.7,1.1,1.5,2.6,1.5C11.3,37.9,12,36.8,10.9,35.6 M9.5,36.9l-0.3,0.5c-0.1-0.3-0.3-0.7-0.4-0.9C8.5,37,8.2,37,7.8,37
				c0.1-1.2-1.4-2.4-0.8-3.8c0.1-0.3,0-0.6-0.2-0.8c-1-0.5-0.5,1.6-1.6,1.7c0.2-0.2,0.3-0.8,0.3-0.8c-0.2,0.1-0.7,0.4-1,0
				C5.1,33,5.3,32.5,5.4,32c0.1-0.6,0.2-0.9,0.3-1.2c0.1-0.3,0.3-0.5,0.8-1.1c-0.1,0-1.2,0.3-1.5,0.1c2-1.2,1.5-2.8,4.6-4.1
				c-0.8-0.6-1.6-1.1-1-2.2c0.8,1,2.4,0.6,3.3,0.2c-0.8-0.2-1.9-0.9-2.2-1.7c0.3,0,0.7,0.3,1,0.5c0.1-0.3,0.2-0.7,0.5-0.7
				c-0.5,1.1,0.5,1.6,1.4,1.6c0.1,0,0.7-0.1,0.7-0.1c-0.1-0.2-0.5-0.7-0.2-1c0.2,0.2,0.5,0.4,0.7,0.6c1.8,1.4-0.9,2.7-1.9,3.3
				c-1.7,0.9-1.2,2-0.5,2.3c0,0.1-0.1,0.2-0.2,0.2c-0.5,0.2-1-0.2-1.4-0.4c0,0.7,0,1.3,0.7,1.7l-0.5,0.2c0.4,0.3,0.6,0.5,1.1,0.6
				c-0.3,0.1-0.6,0.1-0.8,0.1c0.1,0.2,0.1,0.4,0.3,0.6c-1.1,0.1-1.6-0.5-1.9-0.5c-0.7,0.1-0.7,1.4,1.1,1.4l-0.2,0.3
				c0,0,0.3,0.2,0.7,0.2c-0.1,0.1-0.2,0.2-0.3,0.3l0.3,0.2c-0.7,0.1-0.9-0.7-1.4-0.3c-0.7,0.6,0.9,1.8,2.4,1.6
				c-0.1,0.2-0.5,0.4-0.6,0.5c1.3,1.2,0.6,2.3,1.2,3.1C10.5,38.6,9.7,37.8,9.5,36.9"/>
			<path class="st7" d="M7.5,32.6c0.3,0.3,0.6,0.3,1.2,0.3c-0.7-0.1-1-0.2-1.3-0.7c0-0.2-0.1-0.5-0.1-0.7c0-0.7,0.2-1.5,0.7-2.4
				c0,0.6,0.4,1.5,1.4,1.6c-0.9-0.4-1.4-1.3-1.1-2.1c0.2-0.3,0.4-0.6,0.6-0.9c0.1-0.2,0.2-0.3,0.3-0.4c-0.1,0.4,0.4,0.9,0.8,1
				c-0.2-0.2-0.6-0.8,0.3-1.8c-0.3,0.1-0.6,0.3-0.8,0.5c1.7-1.9,3.1-1.9,3.8-2.9c-0.9,0.6-3.4,1-4.6,0.7C9.6,25,11,25,11.4,24.9
				c-1.2,1.2-3.9,2.4-4.3,3.5c0.6-0.7,1.1-0.8,1.6-1c-0.4,0.7-0.8,1.2-1.1,1.9c-0.7,1.5-1.7,1.6-1.7,2.8c0.3-1,1-1.2,1.4-1.9
				c-0.1,0.4-0.1,0.9-0.1,1.4c0,0.6,0.1,1.1,0.3,1.5c0,0.6,0,1.7,0.7,2.4c-0.5-0.6-0.6-1.6-0.5-2c0.6,1.1,2.2,2.6,2.9,3.6
				C9.9,35.9,8,34.3,7.5,32.6"/>
			<path class="st7" d="M25.3,27.4c0.6,0.2,1,0.3,1.6,1c-0.5-1.1-3.1-2.3-4.3-3.5c0.4,0.1,1.9,0.1,2.5-0.3c-1.1,0.3-3.6,0-4.6-0.7
				c0.7,0.9,2.1,1,3.8,2.9c-0.2-0.2-0.5-0.4-0.8-0.5c0.9,1,0.5,1.6,0.3,1.8c0.4-0.1,0.9-0.5,0.8-1c0.1,0.1,0.2,0.3,0.3,0.4
				c0.2,0.3,0.4,0.6,0.6,0.9c0.3,0.9-0.2,1.7-1.1,2.1c1-0.1,1.4-1,1.4-1.6c0.5,0.9,0.7,1.7,0.7,2.4c0,0.3,0,0.5-0.1,0.7
				c-0.2,0.4-0.6,0.6-1.3,0.7c0.6,0,0.9,0,1.2-0.3c-0.4,1.7-2.3,3.3-3.1,4.6c0.8-1,2.4-2.5,2.9-3.6c0,0.4-0.1,1.4-0.5,2
				c0.7-0.7,0.8-1.8,0.7-2.4c0.2-0.5,0.3-1,0.3-1.5c0-0.5,0-1-0.1-1.4c0.5,0.6,1.1,0.9,1.4,1.9c-0.1-1.3-1-1.3-1.7-2.8
				C26.1,28.6,25.8,28,25.3,27.4"/>
			<path class="st7" d="M28.4,30.3c0.6,0.1,1,0.1,1.2-0.5c-2-1-2-3-4.4-4.1c1.3-1,0.9-1.9,0.3-2.8c-0.6,1.1-1.7,1.3-2.4,0.9
				c0.9-0.3,1.3-1.5,1.9-1.9c-0.4-0.4-0.8-0.4-1.4,0c-0.3-0.8-1.2-0.5-1.4-0.5c0.2,0.2,0.5,0.6,0.4,0.9c-0.1,0.8-1.4,0.7-1.4,0.7
				c0.3-0.5,0.1-0.8-0.4-1.1c-0.2,0.4-1.5,1-1.6,1.8c-0.1,1.3,1.4,2.1,2.7,2.8c1.5,0.8,0.9,1.7,0.4,1.7c-0.3,0.9,0.8,1.1,1.5,0.7
				c0,0.1-0.1,0.9-1.1,0.9c0.1,0.3,0.2,0.4,0.5,0.5c-0.2,0.1-0.8,0.2-1.1,0.2c0,0.4,0.5,0.7,1,0.8c0,0.1-0.3,0.3-0.5,0.4
				c0.6,0.6,2.2,0.2,2.5-0.1c0.1-0.2,0.3,0.1,0.2,0.3c-0.2,0.2-1,0.5-1.6,0.3c-0.1,0.4,0,0.5,0.2,0.6c0,0-0.6,0.1-0.8,0.2
				c0.1,0.3,0.4,0.4,0.5,0.5c-0.1,0.1-0.2,0.3-0.3,0.5c0.3,0.1,1.1,0.4,1.5-0.1c0.2-0.2,0.4-0.1,0.2,0.2c-0.6,0.9-2.1,0.9-2.6,0.6
				c0,0.7,0.3,0.8,0.6,1.1C22,36.8,22.7,37.9,22,39c1.4,0,2.3-0.8,2.6-1.5c0,0.3,0.2,0.5,0.5,0.6c0-0.3,0.1-0.5,0.2-0.8
				c0.3,0.2,0.8,0.3,1.5,0.3c-0.8-1.3,1.4-2.7,0.6-4.5c-0.1-0.3,0.3-0.4,0.3-0.2c0.2,1.5,1.1,1.9,1.9,1.4C29.3,34,29.2,34,29,33.8
				c0.5,0.1,0.8-0.2,0.9-0.7C28.5,32.6,29.3,31.4,28.4,30.3 M28.5,33.3c0,0,0.1,0.6,0.3,0.8c-1-0.1-0.5-2.2-1.6-1.7
				c-0.3,0.1-0.4,0.5-0.2,0.8c0.7,1.4-0.9,2.6-0.8,3.8c-0.4,0-0.8,0-1-0.5c-0.1,0.3-0.3,0.6-0.4,0.9l-0.3-0.5
				c-0.2,0.9-1,1.7-2.1,1.7c0.5-0.8-0.1-1.9,1.2-3.1c-0.2-0.1-0.5-0.4-0.6-0.5c1.5,0.2,3.1-1,2.4-1.6c-0.5-0.4-0.7,0.4-1.4,0.3
				l0.3-0.2c-0.1-0.1-0.2-0.2-0.3-0.3c0.3,0,0.7-0.2,0.7-0.2l-0.2-0.3c1.8,0,1.8-1.4,1.1-1.4c-0.3,0-0.8,0.6-1.9,0.5
				c0.1-0.2,0.2-0.4,0.3-0.6c-0.3,0-0.6,0-0.8-0.1c0.5-0.1,0.7-0.3,1.1-0.6L23.6,30c0.8-0.4,0.7-1,0.7-1.7c-0.4,0.2-0.9,0.6-1.4,0.4
				c-0.1,0-0.2-0.1-0.2-0.2c0.7-0.3,1.2-1.4-0.5-2.3c-1.1-0.6-3.7-1.9-1.9-3.3c0.2-0.2,0.5-0.4,0.7-0.6c0.3,0.2-0.1,0.8-0.2,1
				c0,0,0.6,0.1,0.7,0.1c0.9,0,1.9-0.6,1.4-1.6c0.4,0.1,0.4,0.4,0.5,0.7c0.2-0.2,0.6-0.5,1-0.5c-0.3,0.8-1.3,1.6-2.2,1.7
				c0.8,0.5,2.4,0.8,3.3-0.2c0.6,1.1-0.2,1.6-1,2.2c3,1.4,2.6,2.9,4.6,4.1c-0.3,0.1-1.4-0.1-1.5-0.1c0.4,0.6,0.6,0.8,0.8,1.1
				c0.1,0.3,0.2,0.5,0.3,1.2c0.1,0.5,0.3,1,0.9,1.3C29.2,33.7,28.7,33.4,28.5,33.3"/>
			<path class="st7" d="M14.1,36.7l0.4-0.4l-0.1-0.1c0-0.1,0-0.1,0-0.1l0.2-0.2c0.1,0,0.1,0,0.2,0l0.7,0.2h-0.7
				c-0.2,0-0.2,0.1-0.3,0.2l0,0.1l-0.2,0.4c-0.1,0.1-0.1,0.3,0.1,0.5l0.1,0.2l-0.3,0.5h0.2l0.2-0.4c0,0,0.3-0.3,0.3-0.5
				C15,37,14.9,36.9,15,36.8l0.1-0.2c0-0.1,0-0.1,0.1-0.1l0.7,0.2c0.1,0,0.2,0.1,0.3-0.1c0.1-0.2,0.1-0.1,0.3-0.1l0.4,0
				c0.5,0,1-0.1,1.2-0.2c0.1,0.2,0.2,0.3,0.3,0.4c0,0,0,0.1,0,0.2l-0.4,1h0.6l0.4-0.9c0-0.1,0.1-0.2,0.1-0.2l-0.2,1.1h0.6l0.2-1.1
				c0-0.2,0-0.3-0.1-0.4c-0.3-0.2-0.3-0.7-0.3-0.9c0,0,0.1,0,0.2,0c0.1,0,0.2,0.4,0.4,0.6c0.3,0.4,0.7,0.9,1.2,0.2
				c0-0.1-0.1-0.2-0.2-0.2l-0.1-0.2c-0.1-0.1-0.5-0.5-0.6-0.7c-0.4-0.4-0.9-0.3-1.1-0.1c-0.5-0.3-1,0-1.2,0L16.9,35
				c0,0-0.1,0-0.1-0.1l0.2-0.1c-0.2-0.6-0.5-1.1-1.2-1.2c0,0,0-0.2-0.1-0.2l-0.2,0.2c-0.1,0-0.1,0-0.2,0l-0.8-0.3L15,34
				c0,0-0.3,0.5-0.4,0.6c-0.1,0.1-0.1,0.2,0,0.2l0.1,0.2c0.1,0.1,0.1,0.1,0.2,0l0.1-0.1c0.1-0.1,0.3,0,0.3,0
				c-0.1,0.2-0.1,0.4-0.1,0.5l-0.6-0.1c-0.1,0-0.2,0-0.3,0.1L14,35.8c-0.2,0.1-0.2,0.3-0.1,0.5L14.1,36.7z M18.8,36.8l-0.4,0.9h-0.2
				l0.4-0.9c0-0.1,0-0.2-0.1-0.3C18.6,36.6,18.7,36.7,18.8,36.8C18.8,36.8,18.8,36.8,18.8,36.8 M15.1,34.8L15,34.8
				c-0.1,0-0.1,0.1-0.2,0l0-0.1c0,0,0-0.1,0-0.2l0.5-0.5l-0.4-0.4l0.6,0.2l0.2-0.3c0.1,0.1,0,0.2,0,0.2c0.2,0,0.9,0.3,0.9,1.1
				c0,0,0.1,0.2,0.3,0.2l1,0.1c0.2,0,0.6-0.3,1.1,0c0.1-0.1,0.3-0.1,0.4-0.2c0.4,0,0.8,0.3,1,0.6c0.2,0.2,0.4,0.6,0.4,0.6
				c-0.1,0.1-0.2,0.2-0.3,0.1c-0.1-0.1-0.2-0.2-0.2-0.3c-0.1-0.2-0.3-0.4-0.3-0.4C20,35.8,20,36,20,36.1c-0.4-0.4-0.4-0.8-0.7-0.9
				c-0.1,0-0.3,0-0.4,0.2c0.1,0.3,0.1,0.7,0.3,0.9c0.1,0.2,0.1,0.2,0.2,0.2c0.1,0.1,0,0.2,0,0.3l-0.1,0.9H19l0.2-0.9
				c0-0.3-0.7-0.3-1.1-0.8c-0.3,0.4-1.2,0.3-1.6,0.2c-0.2,0-0.3,0-0.4,0.1c-0.1,0.1-0.1,0.1-0.2,0l-0.7-0.2c-0.1,0-0.2,0-0.2,0.1
				l-0.1,0.3c0,0.1,0,0.1,0,0.2l0.1,0.1c0,0.1-0.2,0.3-0.2,0.3l-0.2-0.2c-0.1-0.1-0.1-0.2,0-0.3l0.2-0.5c0-0.1,0.1-0.1,0.2-0.1
				l0.9,0l-0.3-0.4c-0.2-0.3,0.1-0.9,0.1-1.2C15.6,34.9,15.2,34.7,15.1,34.8 M14.1,35.9l0.4-0.3c0.1-0.1,0.1-0.1,0.2-0.1l0.6,0.1
				c0,0.1,0.1,0.3,0.1,0.3l-0.6-0.1c-0.1,0-0.1,0-0.2,0.1L14.3,36c-0.1,0-0.1,0.1,0,0.2l0,0.1l-0.2,0.2l-0.1-0.2
				C14,36.1,14,36,14.1,35.9"/>
			<path class="st7" d="M16,24.5c0.2,0.2,0.6,0.3,0.6,0.3v-0.3l-0.9-0.3C15.7,24.2,15.7,24.3,16,24.5"/>
			<path class="st7" d="M16.6,24.2v-0.3l-1-0.4c0,0,0.1,0.1,0.4,0.3C16.2,24,16.6,24.2,16.6,24.2"/>
			<path class="st7" d="M16.6,23.6v-0.3l-1.1-0.4c0,0,0.2,0.2,0.5,0.4C16.2,23.4,16.6,23.6,16.6,23.6"/>
			<path class="st7" d="M19.7,27.3h1.1c0-0.2-0.2-0.3-0.6-0.3C20,26.9,19.8,27.1,19.7,27.3"/>
			<path class="st7" d="M18.5,22.9l-1.1,0.4v0.3c0,0,0.4-0.2,0.6-0.3C18.3,23.1,18.5,22.9,18.5,22.9"/>
			<path class="st7" d="M18.3,24.2l-0.9,0.3v0.3c0,0,0.4-0.2,0.6-0.3C18.3,24.3,18.3,24.2,18.3,24.2"/>
			<path class="st7" d="M18.4,23.5l-1,0.4v0.3c0,0,0.4-0.2,0.6-0.3C18.3,23.7,18.4,23.5,18.4,23.5"/>
			<path class="st7" d="M13.7,26.9c-0.3,0-0.5,0.2-0.6,0.3h1.1C14.2,27.1,14,26.9,13.7,26.9"/>
			<path class="st7" d="M19.3,22.2c0-0.6-1.1-1.2-2.3-1.2c-1.2,0-2.3,0.6-2.3,1.2l0,0.2l0.5,2.7L13,26.3c-0.2,0.1-0.5,0.5-0.6,0.9
				h0.4c0.1-0.4,0.4-0.8,0.9-0.8c0.5,0,0.8,0.3,1.1,0.8l0.1,0.1l0.1,0.2h-3.3c0.2,0.5,0.5,1,0.5,1.6V36c0,1.8,1.4,2.6,2.8,2.6
				c1.1,0,1.3-0.1,1.9,0.6c0.6-0.6,0.8-0.6,1.9-0.6c1.5,0,2.8-0.8,2.8-2.6v-6.9c0-0.6,0.2-1.1,0.5-1.6h-3.3l0.1-0.2l0.1-0.1
				c0.3-0.4,0.6-0.8,1.1-0.8c0.6,0,0.9,0.4,0.9,0.8h0.4c0-0.4-0.3-0.8-0.6-0.9L18.8,25l0.5-2.7L19.3,22.2z M15.2,22.5l1.7,0.6v2.6
				L15.6,25L15.2,22.5z M15.6,28c0.2,0.3,0.6,0.5,1,0.6c0,0.2,0.1,0.3,0.3,0.5c-0.1,0.5,0.1,0.9,0.6,1c0.1,0.2,0.2,0.4,0.4,0.5
				L17.6,31c-0.1,0.2-0.3,0.2-0.5,0.2l-1.6-0.2c0.1-0.2-0.1-0.4-0.6-0.3l0.6-1.7l-0.4-0.8l-0.7,0.6l-0.1,1.8l-0.3-0.1
				c-0.4-0.2-0.5,0.5-0.1,0.5l0.1,0c0,0.1,0,0.2,0.1,0.2c-0.1,0-0.1,0.2,0,0.2c-0.1,0-0.1,0.2,0,0.2c-0.1,0.1-0.1,0.4,0.2,0.5
				c0.2,0.1,0.4-0.2,0.4-0.3l2.4,0.8c0.3,0.1,0.6,0,0.9-0.2l0.6-0.6c-0.1,0.4,0.1,0.7,0.3,0.8c0,0,0,0.3,0,0.5h-6.3v-4
				c0-0.4-0.1-0.7-0.2-1.1H15.6z M18.2,29.5c-0.1,0.3-0.1,0.5,0,0.8l-0.1,0.1c-0.5-0.1-0.6-0.7-0.6-0.7c0,0.1,0,0.1,0,0.2
				c-0.3-0.1-0.4-0.3-0.4-0.7c0.1,0.1,0.2,0.1,0.3,0.1l0-0.2c-0.3-0.1-0.5-0.3-0.6-0.5c0,0,0,0,0,0c0.1,0,0.1,0,0.2,0
				c0.2,0,0.4,0,0.5-0.1c0.1,0.2,0.4,0.3,0.6,0.3C18.1,29.1,18.1,29.3,18.2,29.5 M18.9,31.3c0,0.1-0.1,0.1-0.1,0.2l-0.3,0.2
				c0.1-0.4-0.2-0.8-0.4-1l0.3-0.3l0.1,0.1C18.3,30.8,18.5,31.3,18.9,31.3 M17.7,31.2l0.2-0.2c0.2,0.2,0.5,0.6,0.4,1l-0.2,0.2
				c0,0-0.1,0.1-0.1,0.1C18.1,32,17.9,31.4,17.7,31.2 M17.2,31.4L17.2,31.4c0.1,0,0.2,0,0.2,0c0.2,0.2,0.3,0.7,0.1,1.1
				c-0.1,0-0.2,0-0.3,0l-0.1,0C17.3,32.1,17.3,31.7,17.2,31.4 M16.7,31.3l0.3,0c0,0.2,0,0.7-0.1,0.9l-0.3-0.1
				C16.7,32,16.7,31.6,16.7,31.3 M16.1,31.3l0.4,0c0,0.2,0,0.6-0.2,0.8L15.9,32C16,31.8,16.1,31.5,16.1,31.3 M14.6,31.2
				c-0.2,0.1-0.2-0.1-0.2-0.2c0.3-0.1,0.5,0,0.6,0c0.1,0.1,0.2,0.2,0.3,0.3c0,0.1-0.1,0.3-0.1,0.5c-0.3-0.1-0.4-0.4-0.2-0.6
				C14.8,31.1,14.8,31.1,14.6,31.2 M14.4,31.8c0,0,0.1,0,0.2,0.1c0,0.1-0.1,0.1-0.2,0.1C14.4,32,14.4,31.9,14.4,31.8 M14.1,30.9
				c-0.1-0.1,0-0.2,0-0.2c0.1,0,0.2,0.1,0.4,0.2C14.5,30.9,14.1,30.9,14.1,30.9 M14.4,31.6c0.1,0.1,0.3,0,0.3,0l0,0
				C14.6,31.8,14.3,31.7,14.4,31.6 M14.7,31.4c-0.2,0.1-0.3,0-0.3-0.1C14.5,31.4,14.7,31.3,14.7,31.4L14.7,31.4z M14.9,29.6
				l-0.3,1.1l0.1-1.7l0.5-0.4l0.2,0.5l-0.6,1.7L14.9,29.6C15,29.5,14.9,29.5,14.9,29.6 M14.9,30.9c0,0,0.3,0,0.4,0
				c0.1,0,0,0.1-0.1,0.1C15.2,31.1,14.9,30.9,14.9,30.9 M15.5,31.2l0.4,0c0,0.2,0,0.5-0.2,0.7l-0.3-0.1
				C15.4,31.6,15.4,31.4,15.5,31.2 M21.3,36c0,0.8-0.4,1.5-1,1.8l0.2-0.5h-0.2L20,37.9c-0.3,0.1-0.7,0.2-1,0.2c-1.2,0-1.5,0-1.9,0.5
				c-0.4-0.4-0.7-0.5-1.9-0.5c-0.4,0-0.7-0.1-1-0.2h0l0.3-0.6h-0.2l-0.3,0.5c-0.1,0-0.1-0.1-0.2-0.1l0.2-0.4h-0.2l-0.2,0.3
				c-0.5-0.4-0.8-0.9-0.8-1.7v-2.6h8.5V36z M21.5,28c-0.1,0.3-0.2,0.7-0.2,1.1v4h-0.5c-0.2-0.2-0.4-0.9-0.4-0.9
				c-0.1,0.2,0,0.7,0.1,0.9H20c-0.1-0.2-0.3-0.9-0.3-0.9c-0.2,0.2-0.1,0.8,0,0.9h-0.4c0-0.3,0.1-0.6,0.1-0.6c-0.2,0-0.4-0.1-0.4-0.4
				c0.1,0.1,0.1,0.1,0.3,0.1l0.2-0.1c-0.6,0-0.6-0.6-0.1-0.9c-0.4,0-0.8-0.2-0.6-0.7c-0.3-0.2-0.4-0.7-0.2-0.9
				c-0.2-0.2-0.2-0.5-0.1-0.8c-0.2,0-0.5-0.1-0.6-0.2c0,0,0,0,0,0c0.3-0.1,0.5-0.3,0.7-0.5H21.5z M19.8,26.1
				c-0.5,0.1-0.9,0.6-1.2,1.2l0,0.1h-0.3v0.1c0,0.4-0.4,0.9-1.2,0.9c-0.4,0-0.7-0.1-0.9-0.3c-0.2-0.1-0.3-0.3-0.3-0.5
				c0-0.1,0-0.1,0-0.2l0-0.1h-0.3l0-0.1c-0.3-0.5-0.7-1.1-1.2-1.2l1.3-0.7l1.5,0.8l1.5-0.8L19.8,26.1z M18.4,25l-1.2,0.6V23l1.7-0.6
				L18.4,25z M17,22.8L15.2,22c0.2-0.4,0.9-0.7,1.8-0.7c1,0,1.7,0.3,1.8,0.7L17,22.8z"/>
			<path class="st7" d="M21.1,30.6l0-0.2c-0.6,0-0.8-0.7-0.8-0.7C20.1,30.2,20.6,30.6,21.1,30.6"/>
			<path class="st7" d="M20.3,31.8l-0.1-0.2c-0.5,0.1-0.8-0.7-0.8-0.7C19.3,31.6,19.9,32,20.3,31.8"/>
			<path class="st7" d="M20.7,31.1c-0.6,0.1-0.9-0.6-0.9-0.6c-0.1,0.4,0.2,0.8,0.6,0.8c-0.1,0.5,0.4,0.8,0.8,0.6l-0.1-0.2
				C20.8,31.8,20.4,31.5,20.7,31.1"/>
			<path class="st7" d="M20.3,29l0-0.2c-0.8-0.2-0.8-0.7-0.8-0.7C19.4,28.6,19.8,29,20.3,29"/>
			<polygon class="st7" points="15,37.3 14.7,37.9 15,37.9 15.3,37.3 			"/>
			<polygon class="st7" points="15.5,37.3 15.2,37.9 15.4,37.9 15.7,37.3 			"/>
			<polygon class="st7" points="17.3,37.3 17,37.9 17.2,37.9 17.5,37.3 			"/>
			<polygon class="st7" points="17.7,37.3 17.4,37.9 17.7,37.9 17.9,37.3 			"/>
			<polygon class="st7" points="16.8,37.3 16.5,37.9 16.8,37.9 17.1,37.3 			"/>
			<polygon class="st7" points="19.4,37.9 19.7,37.9 20,37.3 19.7,37.3 			"/>
			<polygon class="st7" points="15.9,37.3 15.6,37.9 15.9,37.9 16.2,37.3 			"/>
			<polygon class="st7" points="16.4,37.3 16.1,37.9 16.3,37.9 16.6,37.3 			"/>
			<path class="st7" d="M15.4,34.1C15.3,34.1,15.3,34.1,15.4,34.1c-0.1,0.1,0,0.2,0,0.2C15.4,34.3,15.4,34.2,15.4,34.1
				C15.4,34.1,15.4,34.1,15.4,34.1"/>
			<path class="st7" d="M17,20.5c0.9,0,1.7,0.3,2.1,0.6c0,0,0.1-0.7,0.5-1.4l-0.7,0.1l-0.4-0.8l-0.7,0.4L17,18.7l-0.7,0.7l-0.7-0.4
				l-0.4,0.8l-0.7-0.1c0.4,0.6,0.5,1.4,0.5,1.4C15.3,20.8,16.1,20.5,17,20.5 M15.3,20.2l0.4-0.7l0.7,0.3l0.7-0.7l0.7,0.7l0.7-0.3
				l0.3,0.7l0.4-0.1c-0.1,0.2-0.2,0.4-0.3,0.6c-0.5-0.3-1.2-0.5-1.9-0.5c-0.7,0-1.4,0.2-1.9,0.5c-0.1-0.3-0.2-0.4-0.3-0.6L15.3,20.2
				z"/>
			<path class="st7" d="M17.8,19.1c0.1,0,0.2-0.1,0.2-0.2c0-0.1-0.1-0.4-0.1-0.4s-0.2,0.3-0.2,0.4C17.6,19,17.7,19.1,17.8,19.1"/>
			<path class="st7" d="M19,19.5c0.1,0.1,0.2,0,0.3-0.1c0.1-0.1,0-0.4,0-0.4s-0.3,0.1-0.4,0.2C18.8,19.3,18.9,19.5,19,19.5"/>
			<path class="st7" d="M16.2,19.1c0.1,0,0.2-0.1,0.2-0.2c0-0.1-0.2-0.4-0.2-0.4S16,18.8,16,18.9C16,19,16.1,19.1,16.2,19.1"/>
			<path class="st7" d="M15,19.5c0.1-0.1,0.1-0.2,0.1-0.3c-0.1-0.1-0.4-0.2-0.4-0.2s0,0.3,0,0.4C14.8,19.5,14.9,19.6,15,19.5"/>
			<path class="st7" d="M29.6,26.2c0.3-0.1,0.5-0.3,0.6-0.6c-0.7-0.1-2.4-0.8-3.8-0.2c0.5-0.5,1-0.6,1.1-1.3
				c0.2,0.2,0.6,0.3,0.8-0.1c-0.1-0.4-0.5-0.1-0.6-0.2c-0.1-0.2,0.5,0.1,0.6-0.5c-0.4-0.1-0.6,0.2-0.6,0.1c-0.1-0.1,0.3-0.2,0-0.7
				c-0.4,0.3-0.2,0.5-0.3,0.6c-0.1,0,0-0.3-0.5-0.3c0,0.5,0.5,0.5,0.4,0.6c-0.1,0.1-0.2-0.3-0.6-0.1c0,0.4,0.3,0.7,0.7,0.6
				c-0.1,0.8-0.8,0.7-1.3,1.6c1.2,0.6,1.7,1.6,2.4,2.4c0.2-0.2,0.6-0.9,0.6-0.9c0.8,0.6,1.3,0,1.3,0C30,26.7,30,26.5,29.6,26.2
				 M28.5,26.3c0.1,0.2,0.2,0.8-0.1,1.3c-0.4-0.9-1-1.6-1.5-1.9c-0.1-0.1,0.1-0.2,0.4-0.2c0.9-0.2,1.9,0.2,2.4,0.3
				c-0.2,0.2-0.4,0.3-0.7,0.3c0.4,0.3,0.6,0.6,0.8,0.8C29.4,27,29.2,26.8,28.5,26.3"/>
			<path class="st7" d="M16.8,40.4l-0.5,0l-0.1,0.2l0.1,0c0,0,0,0,0-0.1c0,0,0.1,0,0.2,0l0.2,0c-0.1,0.3-0.4,0.5-0.4,0.7
				c0,0.1,0.1,0.1,0.2,0.1c0.1,0,0.1-0.1,0.2-0.2C16.6,40.9,16.8,40.7,16.8,40.4L16.8,40.4L16.8,40.4z"/>
			<path class="st7" d="M17.1,40.7l0-0.2h0.4l0-0.2c-0.1,0-0.3,0-0.5,0L17.1,40.7c0.1,0,0.3,0.1,0.3,0.3c0,0.1-0.1,0.2-0.1,0.2
				c0,0-0.1,0-0.1,0c0,0,0-0.1,0-0.1c0-0.1-0.1-0.1-0.1-0.1c-0.1,0-0.1,0.1-0.1,0.1c0,0.1,0.2,0.2,0.3,0.2c0.2,0,0.4-0.1,0.4-0.3
				C17.6,40.8,17.3,40.7,17.1,40.7"/>
			<path class="st7" d="M18.1,40.4c-0.2,0-0.3,0.1-0.3,0.3c0,0.3,0.3,0.3,0.5,0.2c0,0.2,0,0.3-0.1,0.3c-0.1,0-0.1,0-0.1-0.1
				c0-0.1-0.1-0.1-0.1-0.1c-0.1,0-0.1,0.1-0.1,0.1c0,0.1,0.2,0.1,0.2,0.1c0.3,0,0.4-0.2,0.4-0.4C18.5,40.6,18.3,40.4,18.1,40.4
				 M18.2,40.9c-0.2,0-0.2-0.2-0.2-0.4c0,0,0-0.1,0.1-0.1C18.2,40.4,18.2,40.8,18.2,40.9C18.2,40.9,18.2,40.9,18.2,40.9"/>
			<path class="st7" d="M15.9,40.3c0,0-0.1,0.2-0.4,0.3l0,0c0,0,0.1,0,0.1-0.1l-0.1,0.5c0,0,0,0-0.1,0l-0.1,0l0,0.1l0.4,0.1l0-0.1
				l-0.1,0c0,0,0,0,0,0L15.9,40.3L15.9,40.3z"/>
			<path class="st7" d="M21,39.7v-1c-0.8,0.3-1.7,0.6-3,0.7L18,39.8c0.1,0,0.2,0,0.4,0C17.9,39.9,17.3,40,17,40
				c-0.3,0-0.9,0-1.4-0.1c0.2,0,0.3,0,0.4,0L16,39.5c-1.2-0.1-2.2-0.4-3-0.7v1l-1,0.4c0.8,0.4,1.6,0.7,2.7,1l-0.1,0.4
				c0.6,0.2,1.5,0.3,2.5,0.3c1,0,1.9-0.2,2.5-0.3l-0.1-0.4c1-0.3,1.9-0.6,2.7-1L21,39.7z M12.5,40.2l0.7-0.3v-0.8
				c0.4,0.2,1,0.4,1.9,0.5l-0.4,1.3C13.9,40.7,13.1,40.4,12.5,40.2 M17,41.6c-0.8,0-1.5-0.1-2.2-0.3l0.4-1.3c0.3,0.1,1,0.1,1.8,0.1
				c0.8,0,1.5-0.1,1.8-0.1l0.4,1.3C18.5,41.5,17.8,41.6,17,41.6 M19.3,40.9l-0.4-1.3c0.8-0.2,1.4-0.4,1.9-0.5v0.8l0.7,0.3
				C20.9,40.4,20.2,40.7,19.3,40.9"/>
			<path class="st7" d="M5.1,27c0,0,0.4,0.7,0.6,0.9c0.7-0.7,1.2-1.8,2.4-2.4c-0.5-0.9-1.3-0.8-1.3-1.6c0.4,0.1,0.7-0.1,0.7-0.6
				c-0.4-0.2-0.5,0.2-0.6,0.1c-0.1-0.1,0.4-0.1,0.4-0.6c-0.5,0-0.4,0.3-0.5,0.3c-0.1,0,0.1-0.3-0.3-0.6c-0.2,0.5,0.1,0.6,0,0.7
				c-0.1,0.1-0.2-0.3-0.6-0.1c0.1,0.6,0.7,0.3,0.6,0.5c-0.1,0.1-0.4-0.2-0.6,0.2c0.2,0.4,0.6,0.3,0.8,0.1c0,0.7,0.5,0.8,1.1,1.3
				c-1.4-0.6-3.2,0.1-3.8,0.2c0.1,0.2,0.3,0.5,0.6,0.6C4,26.5,4,26.7,3.7,27C3.7,27,4.3,27.6,5.1,27 M4.3,26.9
				c0.2-0.3,0.4-0.5,0.8-0.8c-0.2,0-0.4-0.1-0.7-0.3c0.5-0.1,1.5-0.5,2.4-0.3c0.3,0,0.5,0.2,0.4,0.2c-0.5,0.3-1.1,1.1-1.5,1.9
				c-0.4-0.5-0.2-1.1-0.1-1.3C4.8,26.8,4.6,27,4.3,26.9"/>
			<path class="st7" d="M16.4,26.5v0.4c0.2-0.2,0.4-0.1,0.4-0.1v0.6c0,0,0,0.3-0.1,0.4H17h0.3c-0.1-0.1-0.1-0.4-0.1-0.4v-0.6
				c0,0,0.3,0,0.4,0.1v-0.4H17H16.4z"/>
		</g>
		<g>
			<g>
				<path class="st8" d="M30.6,26.7c-0.1-0.1-0.1-0.1-0.2-0.2c0,0-0.1-0.1-0.1-0.2c0.1-0.1,0.2-0.3,0.3-0.4l0.3-0.6l-0.7-0.1
					c-0.1,0-0.3-0.1-0.5-0.1c-0.4-0.1-1-0.3-1.5-0.3c0.2-0.1,0.4-0.2,0.5-0.5l0.1-0.2c0,0,0-0.3-0.1-0.4c0-0.1,0.1-0.2,0.1-0.3
					l0.1-0.5l-0.4-0.1c-0.1,0-0.1,0-0.2-0.1c0-0.1-0.1-0.2-0.1-0.3l-0.3-0.5l-0.5,0.3c-0.1,0.1-0.2,0.1-0.3,0.2c-0.1,0-0.1,0-0.2,0
					c0,0-0.3,0-0.6,0.1l-0.4-0.4l-0.4-0.5c-0.4-0.4-1-0.6-1.6-0.4c-0.2-0.2-0.6-0.4-1.1-0.4c-0.2,0-0.3,0-0.4,0c0,0-0.7,0.1-1.1,0.5
					l-0.5-0.2c-0.3,0.5-0.9,0.7-0.9,0.7c0-0.2-0.1-0.3-0.2-0.4l0-0.2c0,0,0.1-0.6,0.5-1.2l0.6-0.9l-0.8,0.1c0-0.1,0-0.2,0-0.3
					l-0.1-0.7L19,18.5c-0.1,0-0.1,0.1-0.2,0.1l-0.1-0.3l-0.3,0.2c0-0.1-0.1-0.2-0.1-0.3l-0.3-0.6l-0.5,0.5c-0.1,0.1-0.1,0.1-0.1,0.2
					L17,18l-0.3,0.3c0,0-0.1-0.1-0.1-0.2l-0.5-0.5l-0.4,0.6c-0.1,0.1-0.1,0.2-0.1,0.3l-0.3-0.2l-0.1,0.3c-0.1,0-0.1-0.1-0.2-0.1
					l-0.7-0.3L14.2,19c0,0.1,0,0.2,0,0.3l-0.8-0.1l0.6,0.9c0.3,0.5,0.5,1.2,0.5,1.2l0,0.2c-0.1,0.1-0.2,0.3-0.2,0.4
					c0,0-0.5-0.2-0.9-0.7l-0.5,0.2c-0.6-0.4-0.9-0.5-1.6-0.6c-0.5,0-0.9,0.2-1.1,0.4C9.6,21,9,21.2,8.6,21.6c0,0-0.3,0.3-0.4,0.5
					c-0.2,0.2-0.4,0.3-0.4,0.3s-0.4-0.1-0.7,0c-0.1-0.1-0.2-0.2-0.3-0.2l-0.5-0.3L6,22.4c0,0.1-0.1,0.2-0.1,0.3
					c-0.1,0-0.1,0-0.2,0.1l-0.4,0.1l0.1,0.5c0,0.1,0.1,0.2,0.1,0.3c0,0,0,0.1-0.1,0.2L5.3,24l0.1,0.2c0.1,0.2,0.3,0.4,0.5,0.5
					c-0.6,0.1-1.1,0.2-1.5,0.3c-0.2,0.1-0.4,0.1-0.5,0.1l-0.7,0.1l0.2,0.4l0.1,0.3c0.1,0.2,0.2,0.3,0.3,0.4c0,0.1-0.2,0.3-0.3,0.4
					L3,27l0.3,0.4c0,0,0.4,0.4,1,0.4c0.2,0,0.3,0,0.5-0.1C5,28,5.2,28.2,5.4,28.4c-0.3,0.4-0.7,0.7-1.2,1l-0.4,0.2L3.9,30
					c0.1,0.3,0.4,0.6,0.8,0.8c-0.1,0.3-0.1,0.6-0.2,0.8c-0.1,0.6-0.1,0.8-0.7,1l-0.5,0.2l0.1,0.5c0.1,0.4,0.3,0.6,0.4,0.8l-0.3,0.3
					c0,0,0.7,0.6,1.5,0.6c0,0,0.6,0,0.9-0.3c0.1,0.4,0.3,0.8,0.4,1.1c0.3,0.7,0.5,1.1,0.3,1.5l-0.5,0.8l1,0c0.4,0,0.8,0,1.2-0.1
					c0,0,0,0,0,0.1l-0.1,0.7l0.8-0.2c0.1,0,0.2-0.1,0.2-0.1c0.5,0.6,1.4,1.1,2.6,1.1h0.1l-1.4,0.6l1,0.5c0.7,0.3,1.4,0.6,2.2,0.9
					l-0.1,0.4l0.5,0.1c0.3,0.1,1.3,0.4,2.6,0.4c1.3,0,2.3-0.3,2.6-0.4l0.5-0.1L20,41.5c0.8-0.2,1.6-0.5,2.2-0.9l1-0.5l-1.4-0.6H22
					c1.2,0,2.1-0.5,2.6-1.1c0.1,0,0.2,0.1,0.2,0.1l0.8,0.2L25.6,38c0,0,0,0,0-0.1c0.3,0.1,0.7,0.1,1.2,0.1l1,0l-0.5-0.8
					c-0.2-0.4,0-0.8,0.3-1.5c0.2-0.3,0.3-0.7,0.4-1.1c0.2,0.1,0.4,0.2,0.6,0.3c0,0,0.2,0,0.3,0.1c0.4,0,0.6-0.1,0.9-0.3l0.5-0.3
					L30,34.1c0.2-0.2,0.3-0.4,0.4-0.8l0.1-0.5l-0.5-0.2c-0.5-0.2-0.6-0.4-0.7-1c0-0.2-0.1-0.5-0.2-0.8c0.5-0.1,0.7-0.5,0.8-0.8
					l0.2-0.5l-0.4-0.2c-0.5-0.2-0.9-0.6-1.2-1c0.2-0.1,0.4-0.4,0.5-0.6c0.2,0.1,0.3,0.1,0.5,0.1l0,0c0.6,0,1-0.4,1-0.4L31,27
					L30.6,26.7z"/>
				<path class="st41" d="M12.7,33.1v-4c0-0.4-0.1-0.7-0.2-1.1h3.1c0.3,0.4,0.8,0.7,1.4,0.7c0.6,0,1.1-0.3,1.4-0.7h3.1
					c-0.1,0.3-0.2,0.7-0.2,1.1v4H12.7z M17,38.6c-0.4-0.4-0.7-0.5-1.9-0.5c-1.4,0-2.3-0.8-2.3-2.1v-2.6h8.5V36
					c0,1.3-0.9,2.1-2.3,2.1C17.7,38.1,17.4,38.2,17,38.6"/>
				<path class="st8" d="M13.2,39.1v0.8l-0.7,0.3c0.6,0.3,1.3,0.5,2.2,0.7l0.4-1.3C14.3,39.4,13.7,39.3,13.2,39.1"/>
				<path class="st8" d="M17,40.2c-0.8,0-1.5-0.1-1.8-0.1l-0.4,1.3c0.7,0.2,1.4,0.3,2.2,0.3c0.8,0,1.5-0.1,2.2-0.3L18.8,40
					C18.5,40.1,17.8,40.2,17,40.2"/>
				<path class="st8" d="M20.8,39.1c-0.4,0.2-1,0.4-1.9,0.5l0.4,1.3c0.9-0.2,1.6-0.5,2.2-0.7l-0.7-0.3V39.1z"/>
				<path class="st8" d="M11.8,26.2c1.1-0.6,3.7-1.9,1.9-3.3c-0.2-0.2-0.5-0.4-0.7-0.6c-0.3,0.2,0.1,0.8,0.2,1c0,0-0.6,0.1-0.7,0.1
					c-0.9,0-1.9-0.6-1.4-1.6c-0.4,0.1-0.4,0.4-0.5,0.7c-0.2-0.2-0.6-0.5-1-0.5c0.3,0.8,1.3,1.6,2.2,1.7c-0.8,0.5-2.4,0.8-3.3-0.2
					c-0.6,1.1,0.2,1.6,1,2.2c-3,1.4-2.6,2.9-4.6,4.1c0.3,0.1,1.4-0.1,1.5-0.1c-0.4,0.6-0.6,0.8-0.8,1.1c-0.1,0.3-0.2,0.5-0.3,1.2
					c-0.1,0.5-0.3,1-0.9,1.3c0.2,0.4,0.8,0.1,1,0c0,0-0.1,0.6-0.3,0.8c1-0.1,0.5-2.2,1.6-1.7c0.3,0.1,0.4,0.5,0.2,0.8
					c-0.7,1.4,0.9,2.6,0.8,3.8c0.4,0,0.8,0,1-0.5c0.1,0.3,0.3,0.6,0.4,0.9l0.3-0.5c0.2,0.9,1,1.7,2.1,1.7c-0.5-0.8,0.1-1.9-1.2-3.1
					c0.2-0.1,0.5-0.4,0.6-0.5c-1.5,0.2-3.1-1-2.4-1.6c0.5-0.4,0.7,0.4,1.4,0.3l-0.3-0.2c0.1-0.1,0.2-0.2,0.3-0.3
					c-0.3,0-0.7-0.2-0.7-0.2l0.2-0.3c-1.8,0-1.8-1.4-1.1-1.4c0.3,0,0.8,0.6,1.9,0.5c-0.1-0.2-0.2-0.4-0.3-0.6c0.3,0,0.6,0,0.8-0.1
					c-0.5-0.1-0.7-0.3-1.1-0.6l0.5-0.2c-0.8-0.4-0.7-1-0.7-1.7c0.4,0.2,0.9,0.6,1.4,0.4c0.1,0,0.2-0.1,0.2-0.2
					C10.5,28.2,10.1,27.1,11.8,26.2 M10.5,26.3c-1,1-0.5,1.6-0.3,1.8c-0.4-0.1-0.9-0.5-0.8-1c-0.1,0.1-0.2,0.3-0.3,0.4
					c-0.2,0.3-0.4,0.6-0.6,0.9c-0.3,0.9,0.2,1.7,1.1,2.1c-1-0.1-1.4-1-1.4-1.6c-0.5,0.9-0.7,1.7-0.7,2.4c0,0.3,0,0.5,0.1,0.7
					c0.2,0.4,0.6,0.6,1.3,0.7c-0.6,0-0.9,0-1.2-0.3c0.4,1.7,2.3,3.3,3.1,4.6c-0.8-1-2.4-2.5-2.9-3.6c0,0.4,0.1,1.4,0.5,2
					c-0.7-0.7-0.8-1.8-0.7-2.4c-0.2-0.5-0.3-1-0.3-1.5c0-0.5,0-1,0.1-1.4c-0.5,0.6-1.1,0.9-1.4,1.9c0.1-1.3,1-1.3,1.7-2.8
					c0.3-0.7,0.7-1.3,1.1-1.9c-0.6,0.2-1,0.3-1.6,1c0.5-1.1,3.1-2.3,4.3-3.5C11,25,9.6,25,8.9,24.6c1.1,0.3,3.6,0,4.6-0.7
					c-0.7,0.9-2.1,1-3.8,2.9C9.9,26.6,10.2,26.4,10.5,26.3"/>
				<path class="st8" d="M28.6,32c-0.1-0.6-0.2-0.9-0.3-1.2c-0.1-0.3-0.3-0.5-0.8-1.1c0.1,0,1.3,0.3,1.5,0.1c-2-1.2-1.5-2.8-4.6-4.1
					c0.8-0.6,1.6-1.1,1-2.2c-0.8,1-2.4,0.7-3.3,0.2c0.8-0.2,1.9-0.9,2.2-1.7c-0.3,0-0.7,0.3-1,0.5c-0.1-0.3-0.2-0.7-0.5-0.7
					c0.5,1.1-0.5,1.6-1.4,1.6c-0.1,0-0.7-0.1-0.7-0.1c0.1-0.2,0.5-0.7,0.2-1c-0.2,0.2-0.5,0.4-0.7,0.6c-1.8,1.4,0.9,2.7,1.9,3.3
					c1.7,0.9,1.2,2,0.5,2.3c0,0.1,0.1,0.2,0.2,0.2c0.5,0.2,1-0.2,1.4-0.4c0,0.7,0,1.3-0.7,1.7l0.5,0.2c-0.5,0.3-0.6,0.5-1.1,0.6
					c0.3,0.1,0.6,0.1,0.8,0.1c-0.1,0.2-0.1,0.4-0.3,0.6c1.1,0.1,1.6-0.5,1.9-0.5c0.7,0.1,0.7,1.4-1.1,1.4l0.2,0.3
					c0,0-0.3,0.2-0.7,0.2c0.1,0.1,0.2,0.2,0.3,0.3l-0.3,0.2c0.7,0.1,0.9-0.7,1.4-0.3c0.7,0.6-0.9,1.8-2.4,1.6
					c0.1,0.2,0.5,0.4,0.6,0.5c-1.3,1.2-0.6,2.3-1.2,3.1c1.1-0.1,1.9-0.9,2.1-1.7l0.3,0.5c0.1-0.3,0.3-0.7,0.4-0.9
					c0.2,0.5,0.6,0.5,1,0.5c-0.1-1.2,1.4-2.4,0.8-3.8c-0.1-0.3,0-0.6,0.2-0.8c1-0.5,0.5,1.6,1.6,1.7c-0.2-0.2-0.3-0.8-0.3-0.8
					c0.2,0.1,0.7,0.4,1,0C28.9,33,28.7,32.5,28.6,32 M26.7,30.2c0.1,0.4,0.1,0.9,0.1,1.4c0,0.6-0.1,1.1-0.3,1.5c0,0.6,0,1.7-0.7,2.4
					c0.5-0.6,0.6-1.6,0.5-2c-0.6,1.1-2.2,2.6-2.9,3.6c0.8-1.3,2.7-2.8,3.1-4.6c-0.3,0.3-0.6,0.3-1.2,0.3c0.7-0.1,1-0.2,1.3-0.7
					c0-0.2,0.1-0.5,0.1-0.7c0-0.7-0.2-1.5-0.7-2.4c0,0.6-0.4,1.5-1.4,1.6c0.9-0.4,1.4-1.3,1.1-2.1c-0.2-0.3-0.4-0.6-0.6-0.9
					c-0.1-0.2-0.2-0.3-0.3-0.4c0.1,0.4-0.4,0.9-0.8,1c0.2-0.2,0.6-0.8-0.3-1.8c0.3,0.1,0.6,0.3,0.8,0.5c-1.7-1.9-3.1-1.9-3.8-2.9
					c0.9,0.6,3.4,1,4.6,0.7C24.5,25,23,25,22.6,24.9c1.2,1.2,3.9,2.4,4.3,3.5c-0.6-0.7-1.1-0.8-1.6-1c0.4,0.7,0.8,1.2,1.1,1.9
					c0.7,1.5,1.7,1.6,1.7,2.8C27.8,31.1,27.2,30.9,26.7,30.2"/>
				<path class="st8" d="M18.4,28c-0.3,0.4-0.8,0.7-1.4,0.7c-0.1,0-0.3,0-0.4,0c0,0.2,0.1,0.3,0.3,0.5c-0.1,0.5,0.1,0.9,0.6,1
					c0.1,0.2,0.2,0.4,0.5,0.5L17.6,31c-0.1,0.2-0.3,0.2-0.5,0.2l-1.6-0.2c0.1-0.2-0.1-0.4-0.6-0.3l0.6-1.7l-0.4-0.8l-0.7,0.6
					l-0.1,1.8l-0.3-0.1c-0.4-0.2-0.5,0.5-0.1,0.5l0.2,0c0,0.1,0,0.2,0.1,0.2c-0.1,0-0.1,0.2,0,0.2c-0.1,0-0.1,0.2,0,0.2
					c-0.1,0.1-0.1,0.4,0.2,0.5c0.2,0.1,0.4-0.2,0.4-0.3l2.4,0.8c0.3,0.1,0.6,0,0.9-0.2l0.6-0.6c-0.1,0.4,0,0.7,0.3,0.8
					c0,0,0,0.3,0,0.5l0.9,0h1.3v-4c0-0.4,0.1-0.7,0.2-1.1h-1.6H18.4z"/>
				<path class="st8" d="M14.8,34.8L14.8,34.8c0.1,0.1,0.2,0.1,0.2,0.1l0.1-0.1c0.1-0.1,0.5,0.1,0.5-0.3c0,0.3-0.3,0.9-0.1,1.2
					l0.3,0.4l-0.9,0c-0.1,0-0.1,0.1-0.2,0.1l-0.2,0.5c-0.1,0.1-0.1,0.3,0,0.3l0.2,0.2c0,0,0.1-0.1,0.2-0.3L14.8,37
					c-0.1-0.1-0.1-0.1,0-0.2l0.1-0.3c0.1-0.1,0.1-0.1,0.2-0.1l0.7,0.2c0.1,0,0.1,0,0.2,0c0.1-0.2,0.2-0.2,0.4-0.1
					c0.4,0.1,1.3,0.2,1.6-0.2c0.4,0.5,1.1,0.5,1.1,0.8L19,37.8h0.2l0.1-0.9c0-0.1,0.1-0.2,0-0.3c0,0-0.1-0.1-0.2-0.2
					c-0.1-0.2-0.1-0.6-0.3-0.9c0.1-0.1,0.3-0.2,0.4-0.2c0.3,0.1,0.3,0.5,0.7,0.9c0-0.2-0.1-0.3-0.1-0.5c0,0,0.3,0.2,0.3,0.4
					c0,0.1,0.1,0.3,0.2,0.3c0.1,0,0.2,0,0.3-0.1c0,0-0.2-0.3-0.4-0.6c-0.2-0.3-0.6-0.6-1-0.6c-0.1,0-0.3,0.1-0.4,0.2
					c-0.5-0.3-0.9,0-1.1,0l-1-0.1c-0.2,0-0.3-0.2-0.3-0.2c0-0.8-0.7-1.1-0.9-1.1c0,0,0-0.1,0-0.2l-0.2,0.3l-0.6-0.2l0.4,0.4
					l-0.5,0.5C14.7,34.7,14.7,34.7,14.8,34.8"/>
				<path class="st8" d="M14.1,35.9c-0.1,0.1-0.1,0.2,0,0.4l0.1,0.2l0.2-0.2l0-0.1c0-0.1,0-0.1,0-0.2l0.3-0.2
					c0.1-0.1,0.1-0.1,0.2-0.1l0.6,0.1c0,0-0.1-0.1-0.1-0.3l-0.6-0.1c-0.1,0-0.1,0-0.2,0.1L14.1,35.9z"/>
				<path class="st8" d="M18.2,37.8h0.2l0.4-0.9c0,0,0,0,0-0.1c-0.2-0.1-0.3-0.1-0.4-0.2c0.1,0.1,0.2,0.2,0.1,0.3L18.2,37.8z"/>
				<path class="st8" d="M18.4,25l0.4-2.5L17.1,23v2.6L18.4,25z M17.4,23.3l1.1-0.4c0,0-0.2,0.2-0.5,0.4c-0.2,0.2-0.6,0.3-0.6,0.3
					V23.3z M17.4,23.9l1-0.4c0,0-0.1,0.1-0.4,0.3c-0.2,0.2-0.6,0.3-0.6,0.3V23.9z M17.4,24.6l0.9-0.3c0,0,0,0.1-0.3,0.3
					c-0.2,0.2-0.6,0.3-0.6,0.3V24.6z"/>
				<path class="st8" d="M15.4,27.3L15.4,27.3l0.4,0.1l0,0.1c0,0.1,0,0.1,0,0.2c0.1,0.2,0.2,0.3,0.3,0.5c0.2,0.2,0.5,0.3,0.9,0.3
					c0.8,0,1.2-0.5,1.2-0.9l0-0.1h0.3l0-0.1c0.3-0.5,0.7-1.1,1.2-1.2l-1.3-0.7L17,26.2l-1.5-0.8l-1.3,0.7
					C14.7,26.2,15.1,26.8,15.4,27.3"/>
				<path class="st8" d="M16.9,25.7V23l-1.7-0.6l0.4,2.5L16.9,25.7z M16.6,24.8c0,0-0.4-0.2-0.6-0.3c-0.3-0.2-0.3-0.3-0.3-0.3
					l0.9,0.3V24.8z M16.6,23.3v0.3c0,0-0.4-0.2-0.6-0.3c-0.3-0.2-0.5-0.4-0.5-0.4L16.6,23.3z M16.6,23.9v0.3c0,0-0.4-0.2-0.6-0.3
					c-0.3-0.2-0.4-0.3-0.4-0.3L16.6,23.9z"/>
				<path class="st8" d="M17,21.4c-1,0-1.7,0.3-1.8,0.7l1.8,0.7l1.8-0.7C18.7,21.7,18,21.4,17,21.4"/>
				<path class="st8" d="M17,20.3c0.7,0,1.4,0.2,1.9,0.5c0.1-0.3,0.2-0.4,0.3-0.6l-0.4,0.1l-0.3-0.7l-0.7,0.3L17,19.1l-0.7,0.7
					l-0.7-0.3l-0.4,0.7l-0.4-0.1c0.1,0.2,0.2,0.4,0.3,0.6C15.6,20.5,16.3,20.3,17,20.3"/>
				<path class="st8" d="M28.9,26.1c0.2,0,0.4-0.1,0.7-0.3c-0.5-0.1-1.5-0.5-2.4-0.3c-0.3,0-0.5,0.2-0.4,0.2
					c0.5,0.3,1.1,1.1,1.5,1.9c0.4-0.5,0.2-1.1,0.1-1.3c0.8,0.5,1,0.7,1.3,0.6C29.6,26.6,29.3,26.4,28.9,26.1"/>
				<path class="st8" d="M5.7,27.6c0.4-0.9,1-1.6,1.5-1.9c0.1-0.1-0.1-0.2-0.4-0.2c-0.9-0.2-1.9,0.2-2.4,0.3C4.6,26,4.8,26,5.1,26.1
					c-0.4,0.3-0.6,0.6-0.8,0.8c0.4,0.1,0.5-0.1,1.3-0.6C5.5,26.5,5.3,27.1,5.7,27.6"/>
				<path class="st42" d="M10.9,35.6c0.3-0.3,0.6-0.4,0.6-1.1c-0.5,0.3-2,0.3-2.6-0.6c-0.2-0.2,0-0.4,0.2-0.2
					c0.4,0.5,1.2,0.3,1.5,0.1c0-0.2-0.2-0.4-0.3-0.5c0.1-0.1,0.4-0.3,0.5-0.5c-0.2-0.1-0.8-0.2-0.8-0.2c0.1-0.1,0.2-0.2,0.2-0.6
					c-0.6,0.2-1.4-0.1-1.6-0.3c-0.2-0.2,0-0.5,0.2-0.3c0.3,0.3,1.9,0.7,2.5,0.1c-0.2-0.1-0.5-0.3-0.5-0.4c0.5-0.1,1-0.4,1-0.8
					c-0.3,0-0.9,0-1.1-0.2c0.3-0.1,0.4-0.2,0.5-0.5c-1-0.1-1.1-0.8-1.1-0.9c0.6,0.4,1.8,0.2,1.5-0.7c-0.5,0-1.1-0.9,0.4-1.7
					c1.3-0.7,2.9-1.5,2.7-2.8c-0.1-0.8-1.4-1.4-1.6-1.8c-0.6,0.3-0.7,0.6-0.4,1.1c0,0-1.3,0.1-1.4-0.7c0-0.3,0.2-0.7,0.4-0.9
					c-0.1,0-1.1-0.3-1.4,0.5c-0.5-0.4-1-0.4-1.4,0c0.6,0.3,0.9,1.5,1.9,1.9c-0.7,0.4-1.8,0.2-2.4-0.9c-0.6,0.9-1,1.8,0.3,2.8
					c-2.4,1.1-2.3,3.1-4.4,4.1c0.2,0.6,0.6,0.6,1.2,0.5c-0.9,1.2-0.1,2.4-1.5,2.8C4.2,33.6,4.5,34,5,33.8C4.9,34,4.8,34,4.5,34.3
					c0.8,0.5,1.7,0.1,1.9-1.4c0-0.3,0.4-0.1,0.3,0.2c-0.9,1.8,1.3,3.2,0.6,4.5c0.7,0,1.2-0.1,1.5-0.3C8.9,37.5,9,37.8,8.9,38
					c0.4-0.1,0.5-0.3,0.5-0.6c0.3,0.7,1.1,1.5,2.6,1.5C11.3,37.9,12,36.8,10.9,35.6 M9.5,36.9l-0.3,0.5c-0.1-0.3-0.3-0.7-0.4-0.9
					C8.5,37,8.2,37,7.8,37c0.1-1.2-1.4-2.4-0.8-3.8c0.1-0.3,0-0.6-0.2-0.8c-1-0.5-0.5,1.6-1.6,1.7c0.2-0.2,0.3-0.8,0.3-0.8
					c-0.2,0.1-0.7,0.4-1,0C5.1,33,5.3,32.5,5.4,32c0.1-0.6,0.2-0.9,0.3-1.2c0.1-0.3,0.3-0.5,0.8-1.1c-0.1,0-1.2,0.3-1.5,0.1
					c2-1.2,1.5-2.8,4.6-4.1c-0.8-0.6-1.6-1.1-1-2.2c0.8,1,2.4,0.7,3.3,0.2c-0.8-0.2-1.9-0.9-2.2-1.7c0.3,0,0.7,0.3,1,0.5
					c0.1-0.3,0.2-0.7,0.5-0.7c-0.5,1.1,0.5,1.6,1.4,1.6c0.1,0,0.7-0.1,0.7-0.1c-0.1-0.2-0.5-0.7-0.2-1c0.2,0.2,0.5,0.4,0.7,0.6
					c1.8,1.4-0.9,2.7-1.9,3.3c-1.7,0.9-1.2,2-0.5,2.3c0,0.1-0.1,0.2-0.2,0.2c-0.5,0.2-1-0.2-1.4-0.4c0,0.7,0,1.3,0.7,1.7l-0.5,0.2
					c0.5,0.3,0.6,0.5,1.1,0.6c-0.3,0.1-0.6,0.1-0.8,0.1c0.1,0.2,0.1,0.4,0.3,0.6c-1.1,0.1-1.6-0.5-1.9-0.5c-0.7,0.1-0.7,1.4,1.1,1.4
					l-0.2,0.3c0,0,0.3,0.2,0.7,0.2c-0.1,0.1-0.2,0.2-0.3,0.3l0.3,0.2c-0.7,0.1-0.9-0.7-1.4-0.3C7.9,34,9.6,35.2,11.1,35
					c-0.1,0.2-0.5,0.4-0.6,0.5c1.3,1.2,0.6,2.3,1.1,3.1C10.5,38.6,9.7,37.8,9.5,36.9"/>
				<path class="st42" d="M7.6,32.6c0.3,0.3,0.6,0.3,1.2,0.3c-0.7-0.1-1-0.2-1.3-0.7c0-0.2-0.1-0.5-0.1-0.7c0-0.7,0.2-1.5,0.7-2.4
					c0,0.6,0.4,1.5,1.4,1.6c-0.9-0.4-1.4-1.3-1.1-2.1c0.2-0.3,0.4-0.6,0.6-0.9c0.1-0.2,0.2-0.3,0.3-0.4c-0.1,0.4,0.4,0.9,0.8,1
					c-0.2-0.2-0.6-0.8,0.3-1.8c-0.3,0.1-0.6,0.3-0.8,0.5c1.7-1.9,3.1-1.9,3.8-2.9c-0.9,0.6-3.4,1-4.6,0.7C9.6,25,11,25,11.4,24.9
					c-1.2,1.2-3.9,2.4-4.3,3.5c0.6-0.7,1.1-0.8,1.6-1c-0.4,0.7-0.8,1.2-1.1,1.9c-0.7,1.5-1.7,1.6-1.7,2.8c0.3-1,1-1.2,1.4-1.9
					c-0.1,0.4-0.1,0.9-0.1,1.4c0,0.6,0.1,1.1,0.3,1.5c0,0.6,0,1.7,0.7,2.4c-0.5-0.6-0.6-1.6-0.5-2c0.6,1.1,2.2,2.6,2.9,3.6
					C9.9,35.9,8,34.3,7.6,32.6"/>
				<path class="st42" d="M25.3,27.4c0.6,0.2,1,0.3,1.6,1c-0.5-1.1-3.1-2.3-4.3-3.5c0.4,0.1,1.9,0.1,2.5-0.3c-1.1,0.3-3.6,0-4.6-0.7
					c0.7,0.9,2.1,1,3.8,2.9c-0.2-0.2-0.5-0.4-0.8-0.5c1,1,0.5,1.6,0.3,1.8c0.4-0.1,0.9-0.5,0.8-1c0.1,0.1,0.2,0.3,0.3,0.4
					c0.2,0.3,0.4,0.6,0.6,0.9c0.3,0.9-0.2,1.7-1.1,2.1c1-0.1,1.4-1,1.4-1.6c0.5,0.9,0.7,1.7,0.7,2.4c0,0.3,0,0.5-0.1,0.7
					c-0.2,0.4-0.6,0.6-1.3,0.7c0.6,0,0.9,0,1.2-0.3c-0.4,1.7-2.3,3.3-3.1,4.6c0.8-1,2.4-2.5,2.9-3.6c0,0.4-0.1,1.4-0.5,2
					c0.7-0.7,0.8-1.8,0.7-2.4c0.2-0.5,0.3-1,0.3-1.5c0-0.5,0-1-0.1-1.4c0.5,0.6,1.1,0.9,1.4,1.9c-0.1-1.3-1-1.3-1.7-2.8
					C26.1,28.6,25.7,28,25.3,27.4"/>
				<path class="st42" d="M28.4,30.3c0.6,0.1,1,0.1,1.2-0.5c-2-1-2-3-4.4-4.1c1.3-1,0.9-1.9,0.3-2.8c-0.6,1.1-1.7,1.3-2.4,0.9
					c0.9-0.3,1.3-1.5,1.9-1.9c-0.4-0.4-0.8-0.4-1.4,0c-0.3-0.8-1.2-0.5-1.4-0.5c0.2,0.3,0.5,0.6,0.4,0.9c-0.1,0.8-1.4,0.7-1.4,0.7
					c0.3-0.5,0.1-0.8-0.4-1.1c-0.2,0.4-1.5,1-1.6,1.8c-0.1,1.3,1.4,2.1,2.7,2.8c1.5,0.8,0.9,1.7,0.4,1.7c-0.3,0.9,0.8,1.1,1.5,0.7
					c0,0.1-0.1,0.9-1.1,0.9c0.1,0.3,0.2,0.4,0.5,0.5c-0.2,0.1-0.8,0.2-1.1,0.2c0,0.4,0.5,0.7,1,0.8c0,0.1-0.3,0.3-0.5,0.4
					c0.6,0.6,2.2,0.2,2.5-0.1c0.1-0.2,0.3,0.1,0.2,0.3c-0.2,0.2-1,0.5-1.6,0.3c-0.1,0.4,0,0.5,0.2,0.6c0,0-0.6,0.1-0.8,0.2
					c0.1,0.3,0.4,0.4,0.5,0.5c-0.1,0.1-0.2,0.3-0.3,0.5c0.3,0.1,1.1,0.4,1.5-0.1c0.2-0.2,0.4-0.1,0.2,0.2c-0.6,0.9-2.1,0.9-2.6,0.6
					c0,0.7,0.3,0.8,0.6,1.1C22,36.8,22.7,37.9,22,39c1.4,0,2.3-0.8,2.6-1.5c0,0.3,0.2,0.5,0.5,0.6c0-0.3,0.1-0.5,0.2-0.8
					c0.3,0.2,0.8,0.3,1.5,0.3c-0.8-1.3,1.4-2.7,0.6-4.5c-0.1-0.3,0.3-0.4,0.3-0.2c0.2,1.5,1.1,1.9,1.9,1.4C29.3,34,29.2,34,29,33.8
					c0.5,0.1,0.8-0.2,0.9-0.7C28.5,32.6,29.3,31.4,28.4,30.3 M28.5,33.3c0,0,0.1,0.6,0.3,0.8c-1-0.1-0.5-2.2-1.6-1.7
					c-0.3,0.1-0.4,0.5-0.2,0.8c0.7,1.4-0.9,2.6-0.8,3.8c-0.4,0-0.8,0-1-0.5c-0.1,0.3-0.3,0.6-0.4,0.9l-0.3-0.5
					c-0.2,0.9-1,1.7-2.1,1.7c0.5-0.8-0.1-1.9,1.2-3.1c-0.2-0.1-0.5-0.4-0.6-0.5c1.5,0.2,3.1-1,2.4-1.6c-0.5-0.4-0.7,0.4-1.4,0.3
					l0.3-0.2c-0.1-0.1-0.2-0.2-0.3-0.3c0.3,0,0.7-0.2,0.7-0.2l-0.2-0.3c1.8,0,1.8-1.4,1.1-1.4c-0.3,0-0.8,0.6-1.9,0.5
					c0.1-0.2,0.2-0.4,0.3-0.6c-0.3,0-0.6,0-0.8-0.1c0.5-0.1,0.7-0.3,1.1-0.6L23.6,30c0.8-0.4,0.7-1,0.7-1.7
					c-0.4,0.2-0.9,0.6-1.4,0.4c-0.1,0-0.2-0.1-0.2-0.2c0.7-0.3,1.2-1.4-0.5-2.3c-1.1-0.6-3.7-1.9-1.9-3.3c0.2-0.2,0.5-0.4,0.7-0.6
					c0.3,0.2-0.1,0.8-0.2,1c0,0,0.6,0.1,0.7,0.1c0.9,0,1.9-0.6,1.4-1.6c0.4,0.1,0.4,0.4,0.5,0.7c0.2-0.2,0.6-0.5,1-0.5
					c-0.3,0.8-1.3,1.6-2.2,1.7c0.8,0.5,2.4,0.8,3.3-0.2c0.6,1.1-0.2,1.6-1,2.2c3,1.4,2.6,2.9,4.6,4.1c-0.3,0.1-1.4-0.1-1.5-0.1
					c0.4,0.6,0.6,0.8,0.8,1.1c0.1,0.3,0.2,0.5,0.3,1.2c0.1,0.5,0.3,1,0.9,1.3C29.2,33.7,28.7,33.4,28.5,33.3"/>
				<path class="st42" d="M14.1,36.7l0.4-0.4l-0.1-0.1c0-0.1,0-0.1,0-0.1l0.2-0.2c0.1,0,0.1,0,0.2,0l0.7,0.2h-0.7
					c-0.2,0-0.2,0.1-0.3,0.2l0,0.1l-0.2,0.4c-0.1,0.1-0.1,0.3,0.1,0.5l0.1,0.2l-0.3,0.5h0.2l0.2-0.4c0,0,0.3-0.3,0.3-0.5
					C15,37,14.9,36.9,15,36.8l0.1-0.2c0-0.1,0-0.1,0.1-0.1l0.7,0.2c0.1,0,0.2,0.1,0.3-0.1c0.1-0.2,0.1-0.1,0.3-0.1l0.4,0
					c0.5,0,1-0.1,1.2-0.2c0.1,0.2,0.2,0.3,0.3,0.4c0,0,0,0.1,0,0.2l-0.4,1h0.6l0.4-0.9c0-0.1,0.1-0.2,0.1-0.2l-0.2,1.1h0.6l0.2-1.1
					c0-0.2,0-0.3-0.1-0.4c-0.3-0.2-0.3-0.7-0.3-0.9c0,0,0.1,0,0.2,0c0.1,0,0.2,0.4,0.4,0.6c0.3,0.4,0.7,0.9,1.2,0.2
					c0-0.1-0.1-0.1-0.2-0.2l-0.1-0.2c-0.1-0.1-0.5-0.5-0.6-0.7c-0.4-0.4-0.9-0.3-1.1-0.1c-0.5-0.3-1,0-1.2,0L16.9,35
					c0,0-0.1,0-0.1-0.1l0.2-0.1c-0.1-0.6-0.5-1.1-1.2-1.2c0,0,0-0.2-0.1-0.2l-0.2,0.2c-0.1,0-0.1,0-0.2,0l-0.8-0.3L15,34
					c0,0-0.3,0.5-0.4,0.6c-0.1,0.1-0.1,0.2,0,0.2l0.1,0.2c0.1,0.1,0.1,0.1,0.2,0l0.1-0.1c0.1,0,0.3,0,0.3,0
					c-0.1,0.2-0.1,0.4-0.1,0.5l-0.6-0.1c-0.1,0-0.2,0-0.3,0.1L14,35.8c-0.2,0.1-0.2,0.3-0.1,0.5L14.1,36.7z M18.8,36.8l-0.4,0.9
					h-0.2l0.4-0.9c0-0.1,0-0.2-0.1-0.3C18.6,36.6,18.7,36.7,18.8,36.8C18.8,36.8,18.8,36.8,18.8,36.8 M15.1,34.8L15,34.8
					c-0.1,0-0.1,0.1-0.2,0l0-0.1c0,0,0-0.1,0-0.2l0.5-0.5l-0.4-0.4l0.6,0.2l0.2-0.3c0.1,0.1,0,0.2,0,0.2c0.2,0,0.9,0.3,0.9,1.1
					c0,0,0.1,0.2,0.3,0.2l1,0.1c0.2,0,0.6-0.3,1.1,0c0.1-0.1,0.3-0.1,0.4-0.2c0.4,0,0.8,0.3,1,0.6c0.2,0.2,0.4,0.6,0.4,0.6
					c-0.1,0.1-0.2,0.2-0.3,0.1c-0.1-0.1-0.2-0.2-0.2-0.3c-0.1-0.2-0.3-0.4-0.3-0.4C20,35.8,20,36,20,36.1c-0.4-0.4-0.4-0.8-0.7-0.9
					c-0.1,0-0.3,0-0.4,0.2c0.1,0.3,0.1,0.7,0.3,0.9c0.1,0.2,0.1,0.2,0.2,0.2c0.1,0.1,0,0.2,0,0.3l-0.1,0.9H19l0.2-0.9
					c0-0.3-0.7-0.3-1.1-0.8c-0.3,0.4-1.2,0.3-1.6,0.2c-0.2,0-0.3,0-0.4,0.1c-0.1,0.1-0.1,0.1-0.2,0l-0.7-0.2c-0.1,0-0.2,0-0.2,0.1
					l-0.1,0.3c0,0.1,0,0.1,0,0.2l0.1,0.1c0,0.1-0.2,0.3-0.2,0.3l-0.2-0.2c-0.1-0.1-0.1-0.2,0-0.3l0.2-0.5c0-0.1,0.1-0.1,0.2-0.1
					l0.9,0l-0.3-0.4c-0.2-0.3,0.1-0.9,0.1-1.2C15.6,34.9,15.2,34.7,15.1,34.8 M14.1,35.9l0.4-0.3c0.1-0.1,0.1-0.1,0.2-0.1l0.6,0.1
					c0,0.1,0.1,0.3,0.1,0.3l-0.6-0.1c-0.1,0-0.1,0-0.2,0.1L14.3,36c-0.1,0-0.1,0.1,0,0.2l0,0.1l-0.2,0.2l-0.1-0.2
					C14,36.1,14,36,14.1,35.9"/>
				<path class="st42" d="M16,24.5c0.2,0.2,0.6,0.3,0.6,0.3v-0.3l-0.9-0.3C15.7,24.2,15.7,24.3,16,24.5"/>
				<path class="st42" d="M16.6,24.2v-0.3l-1-0.4c0,0,0.1,0.1,0.4,0.3C16.2,24,16.6,24.2,16.6,24.2"/>
				<path class="st42" d="M16.6,23.6v-0.3l-1.1-0.4c0,0,0.2,0.2,0.5,0.4C16.2,23.4,16.6,23.6,16.6,23.6"/>
				<path class="st42" d="M19.7,27.3h1.1c0-0.2-0.2-0.3-0.6-0.3C20,26.9,19.8,27.1,19.7,27.3"/>
				<path class="st42" d="M18.5,22.9l-1.1,0.4v0.3c0,0,0.4-0.2,0.6-0.3C18.3,23.1,18.5,22.9,18.5,22.9"/>
				<path class="st42" d="M18.3,24.2l-0.9,0.3v0.3c0,0,0.4-0.2,0.6-0.3C18.3,24.3,18.3,24.2,18.3,24.2"/>
				<path class="st42" d="M18.4,23.6l-1,0.4v0.3c0,0,0.4-0.2,0.6-0.3C18.3,23.7,18.4,23.6,18.4,23.6"/>
				<path class="st42" d="M13.7,26.9c-0.3,0-0.5,0.2-0.6,0.3h1.1C14.2,27.1,14,26.9,13.7,26.9"/>
				<path class="st42" d="M19.3,22.2c0-0.6-1.1-1.2-2.3-1.2c-1.2,0-2.3,0.6-2.3,1.2l0,0.2l0.5,2.7L13,26.3c-0.2,0.1-0.5,0.5-0.6,0.9
					h0.4c0.1-0.4,0.4-0.8,0.9-0.8c0.5,0,0.8,0.3,1.1,0.8l0.1,0.1l0.1,0.2h-3.3c0.2,0.5,0.5,1,0.5,1.6V36c0,1.8,1.4,2.6,2.8,2.6
					c1.1,0,1.3-0.1,1.9,0.6c0.6-0.6,0.8-0.6,1.9-0.6c1.5,0,2.8-0.8,2.8-2.6v-6.9c0-0.6,0.2-1.1,0.5-1.6h-3.3l0.1-0.2l0.1-0.1
					c0.3-0.5,0.6-0.8,1.1-0.8c0.6,0,0.9,0.4,0.9,0.8h0.4c0-0.4-0.3-0.8-0.6-0.9L18.8,25l0.5-2.7L19.3,22.2z M15.2,22.5l1.7,0.6v2.6
					L15.6,25L15.2,22.5z M15.6,28c0.2,0.3,0.6,0.5,1,0.6c0,0.2,0.1,0.3,0.3,0.5c-0.1,0.5,0.1,0.9,0.6,1c0.1,0.2,0.2,0.4,0.4,0.5
					L17.6,31c-0.1,0.2-0.3,0.2-0.5,0.2l-1.6-0.2c0.1-0.2-0.1-0.4-0.6-0.3l0.6-1.7l-0.4-0.8l-0.7,0.6l-0.1,1.8l-0.3-0.1
					c-0.4-0.2-0.5,0.5-0.1,0.5l0.2,0c0,0.1,0,0.2,0.1,0.2c-0.1,0-0.1,0.2,0,0.2c-0.1,0-0.1,0.2,0,0.2c-0.1,0.1-0.1,0.4,0.2,0.5
					c0.2,0.1,0.4-0.2,0.4-0.3l2.4,0.8c0.3,0.1,0.6,0,0.9-0.2l0.6-0.6c-0.1,0.4,0.1,0.7,0.3,0.8c0,0,0,0.3,0,0.5h-6.3v-4
					c0-0.4-0.1-0.7-0.2-1.1H15.6z M18.2,29.5c-0.1,0.3-0.1,0.5,0,0.8l-0.1,0.1c-0.5-0.1-0.6-0.7-0.6-0.7c0,0.1,0,0.1,0,0.2
					c-0.3-0.1-0.4-0.3-0.4-0.7c0.1,0.1,0.2,0.1,0.3,0.1l0-0.2c-0.3-0.1-0.5-0.3-0.6-0.5c0,0,0,0,0,0c0.1,0,0.1,0,0.2,0
					c0.2,0,0.4,0,0.5-0.1c0.1,0.2,0.4,0.3,0.6,0.3C18.1,29.1,18.1,29.3,18.2,29.5 M18.9,31.3c0,0.1-0.1,0.1-0.1,0.2l-0.3,0.2
					c0.1-0.4-0.2-0.8-0.4-1l0.3-0.3l0.1,0.1C18.3,30.8,18.5,31.3,18.9,31.3 M17.7,31.2l0.2-0.2c0.2,0.2,0.5,0.6,0.4,1l-0.2,0.2
					c0,0-0.1,0.1-0.1,0.1C18.1,32,17.9,31.4,17.7,31.2 M17.2,31.4L17.2,31.4c0.1,0,0.2,0,0.2,0c0.2,0.2,0.3,0.7,0.1,1.1
					c-0.1,0-0.2,0-0.3,0l-0.1,0C17.3,32.1,17.3,31.7,17.2,31.4 M16.7,31.3l0.3,0c0,0.2,0,0.7-0.1,0.9l-0.3-0.1
					C16.7,32,16.7,31.6,16.7,31.3 M16.1,31.3l0.4,0c0,0.2,0,0.6-0.2,0.8L15.9,32C16,31.8,16.1,31.5,16.1,31.3 M14.6,31.2
					c-0.2,0.1-0.2-0.1-0.2-0.2c0.3-0.1,0.5,0,0.6,0c0.1,0.1,0.2,0.2,0.3,0.3c0,0.1-0.1,0.3-0.1,0.5c-0.3-0.1-0.4-0.4-0.2-0.6
					C14.8,31.1,14.8,31.1,14.6,31.2 M14.4,31.8c0,0,0.1,0,0.2,0.1c0,0.1-0.1,0.1-0.2,0.1C14.4,32,14.4,31.9,14.4,31.8 M14.1,30.9
					c-0.1-0.1,0-0.2,0-0.2c0.1,0,0.2,0.1,0.4,0.2C14.5,30.9,14.1,30.9,14.1,30.9 M14.4,31.6c0.1,0.1,0.3,0,0.3,0l0,0
					C14.6,31.8,14.3,31.7,14.4,31.6 M14.7,31.4c-0.2,0.1-0.3,0-0.3-0.1C14.5,31.4,14.7,31.3,14.7,31.4L14.7,31.4z M14.9,29.6
					l-0.3,1.1l0.1-1.7l0.5-0.4l0.2,0.5l-0.6,1.7L14.9,29.6C15,29.5,14.9,29.5,14.9,29.6 M14.9,30.9c0,0,0.3,0,0.4,0
					c0.1,0,0,0.1-0.1,0.1C15.2,31.1,14.9,30.9,14.9,30.9 M15.5,31.2l0.4,0c0,0.2,0,0.5-0.2,0.7l-0.3-0.1
					C15.4,31.6,15.4,31.4,15.5,31.2 M21.3,36c0,0.8-0.4,1.5-1,1.8l0.2-0.5h-0.2L20,37.9c-0.3,0.1-0.7,0.2-1,0.2
					c-1.2,0-1.5,0-1.9,0.5c-0.4-0.4-0.7-0.5-1.9-0.5c-0.4,0-0.7-0.1-1-0.2h0l0.3-0.6h-0.2l-0.3,0.5c-0.1,0-0.1-0.1-0.2-0.1l0.2-0.4
					h-0.2l-0.2,0.3c-0.5-0.4-0.8-0.9-0.8-1.7v-2.6h8.5V36z M21.5,28c-0.1,0.3-0.2,0.7-0.2,1.1v4h-0.5c-0.2-0.2-0.4-0.9-0.4-0.9
					c-0.1,0.2,0,0.7,0.1,0.9H20c-0.1-0.2-0.3-0.9-0.3-0.9c-0.2,0.2-0.1,0.8,0,0.9h-0.4c0-0.3,0.1-0.6,0.1-0.6
					c-0.2,0-0.4-0.1-0.4-0.4c0.1,0.1,0.1,0.1,0.3,0.1l0.2-0.1c-0.6,0-0.6-0.6-0.1-0.9c-0.4,0-0.8-0.3-0.6-0.7
					c-0.3-0.2-0.4-0.7-0.2-0.9c-0.2-0.2-0.2-0.5-0.1-0.8c-0.2,0-0.5-0.1-0.6-0.2c0,0,0,0,0,0c0.3-0.1,0.5-0.3,0.7-0.5H21.5z
					 M19.8,26.1c-0.5,0.1-0.9,0.6-1.2,1.2l0,0.1h-0.3l0,0.1c0,0.4-0.4,0.9-1.2,0.9c-0.4,0-0.7-0.1-0.9-0.3c-0.2-0.1-0.3-0.3-0.3-0.5
					c0-0.1,0-0.1,0-0.2l0-0.1h-0.3l0-0.1c-0.3-0.5-0.7-1.1-1.2-1.2l1.3-0.7l1.5,0.8l1.5-0.8L19.8,26.1z M18.4,25l-1.2,0.6V23
					l1.7-0.6L18.4,25z M17,22.8L15.2,22c0.2-0.4,0.9-0.7,1.8-0.7c1,0,1.7,0.3,1.8,0.7L17,22.8z"/>
				<path class="st42" d="M21.1,30.6l0-0.2c-0.6,0-0.8-0.7-0.8-0.7C20.1,30.2,20.6,30.6,21.1,30.6"/>
				<path class="st42" d="M20.3,31.8l-0.1-0.2c-0.5,0.1-0.8-0.7-0.8-0.7C19.3,31.6,19.9,32,20.3,31.8"/>
				<path class="st42" d="M20.7,31.1c-0.6,0.1-0.9-0.6-0.9-0.6c-0.1,0.4,0.2,0.8,0.6,0.8c-0.1,0.5,0.4,0.8,0.8,0.6l-0.1-0.2
					C20.8,31.8,20.4,31.5,20.7,31.1"/>
				<path class="st42" d="M20.3,29l0-0.2c-0.8-0.2-0.8-0.7-0.8-0.7C19.4,28.6,19.8,29,20.3,29"/>
				<polygon class="st42" points="15,37.3 14.7,37.9 15,37.9 15.3,37.3 				"/>
				<polygon class="st42" points="15.5,37.3 15.2,37.9 15.4,37.9 15.7,37.3 				"/>
				<polygon class="st42" points="17.3,37.3 17,37.9 17.2,37.9 17.5,37.3 				"/>
				<polygon class="st42" points="17.7,37.3 17.4,37.9 17.7,37.9 17.9,37.3 				"/>
				<polygon class="st42" points="16.8,37.3 16.5,37.9 16.8,37.9 17.1,37.3 				"/>
				<polygon class="st42" points="19.4,37.9 19.7,37.9 20,37.3 19.7,37.3 				"/>
				<polygon class="st42" points="15.9,37.3 15.6,37.9 15.9,37.9 16.2,37.3 				"/>
				<polygon class="st42" points="16.4,37.3 16.1,37.9 16.3,37.9 16.6,37.3 				"/>
				<path class="st42" d="M15.4,34.1C15.3,34.1,15.3,34.1,15.4,34.1c-0.1,0.1,0,0.2,0,0.2C15.4,34.3,15.4,34.2,15.4,34.1
					C15.4,34.1,15.4,34.1,15.4,34.1"/>
				<path class="st42" d="M17,20.5c0.9,0,1.7,0.3,2.1,0.6c0,0,0.1-0.7,0.5-1.4l-0.7,0.1l-0.4-0.8l-0.7,0.4L17,18.7l-0.7,0.7
					l-0.7-0.4l-0.4,0.8l-0.7-0.1c0.4,0.6,0.5,1.4,0.5,1.4C15.3,20.8,16.1,20.5,17,20.5 M15.3,20.2l0.4-0.7l0.7,0.3l0.7-0.7l0.7,0.7
					l0.7-0.3l0.3,0.7l0.4-0.1c-0.1,0.2-0.2,0.4-0.3,0.6c-0.5-0.3-1.2-0.5-1.9-0.5c-0.7,0-1.4,0.2-1.9,0.5c-0.1-0.3-0.2-0.4-0.3-0.6
					L15.3,20.2z"/>
				<path class="st42" d="M17.8,19.1c0.1,0,0.2-0.1,0.2-0.2c0-0.1-0.1-0.4-0.1-0.4s-0.2,0.3-0.2,0.4C17.6,19,17.7,19.1,17.8,19.1"/>
				<path class="st42" d="M19,19.5c0.1,0.1,0.2,0,0.3-0.1c0.1-0.1,0-0.4,0-0.4s-0.3,0.1-0.4,0.2C18.8,19.3,18.9,19.5,19,19.5"/>
				<path class="st42" d="M16.2,19.1c0.1,0,0.2-0.1,0.2-0.2c0-0.1-0.2-0.4-0.2-0.4S16,18.8,16,18.9C16,19,16.1,19.1,16.2,19.1"/>
				<path class="st42" d="M15,19.5c0.1-0.1,0.1-0.2,0.1-0.3c0-0.1-0.4-0.2-0.4-0.2s0,0.3,0,0.4C14.8,19.5,14.9,19.6,15,19.5"/>
				<path class="st42" d="M29.6,26.2c0.3-0.1,0.5-0.3,0.6-0.6c-0.7-0.1-2.4-0.8-3.8-0.2c0.5-0.5,1-0.6,1.1-1.3
					c0.2,0.2,0.6,0.3,0.8-0.1c-0.1-0.4-0.5-0.1-0.6-0.2c-0.1-0.2,0.5,0.1,0.6-0.5c-0.4-0.1-0.5,0.2-0.6,0.1c-0.1-0.1,0.3-0.2,0-0.7
					c-0.4,0.3-0.2,0.5-0.3,0.6c-0.1,0,0-0.3-0.5-0.3c0,0.5,0.5,0.5,0.4,0.6c-0.1,0.1-0.2-0.3-0.6-0.1c0,0.4,0.3,0.7,0.7,0.6
					c-0.1,0.8-0.8,0.7-1.3,1.6c1.2,0.6,1.7,1.6,2.4,2.4c0.2-0.2,0.6-0.9,0.6-0.9c0.8,0.6,1.3,0,1.3,0C30,26.8,30,26.5,29.6,26.2
					 M28.4,26.3c0.1,0.2,0.2,0.8-0.1,1.3c-0.4-0.9-1-1.6-1.5-1.9c-0.1-0.1,0.1-0.2,0.4-0.2c0.9-0.2,1.9,0.2,2.4,0.3
					c-0.2,0.2-0.4,0.3-0.7,0.3c0.4,0.3,0.6,0.6,0.8,0.8C29.4,27,29.2,26.8,28.4,26.3"/>
				<path class="st42" d="M16.8,40.4l-0.5,0l-0.1,0.2l0.1,0c0,0,0,0,0-0.1c0,0,0.1,0,0.2,0l0.2,0c-0.1,0.3-0.4,0.5-0.4,0.7
					c0,0.1,0.1,0.1,0.2,0.1c0.1,0,0.1-0.1,0.2-0.2C16.6,40.9,16.8,40.7,16.8,40.4L16.8,40.4L16.8,40.4z"/>
				<path class="st42" d="M17.1,40.7l0-0.2h0.4l0-0.2c-0.1,0-0.3,0-0.5,0L17.1,40.7c0.1,0,0.3,0.1,0.3,0.3c0,0.1-0.1,0.2-0.1,0.2
					c0,0-0.1,0-0.1,0c0,0,0-0.1,0-0.1c0-0.1-0.1-0.1-0.1-0.1c-0.1,0-0.1,0.1-0.1,0.1c0,0.1,0.2,0.2,0.3,0.2c0.2,0,0.4-0.1,0.4-0.3
					C17.6,40.8,17.3,40.7,17.1,40.7"/>
				<path class="st42" d="M18.1,40.4c-0.2,0-0.3,0.1-0.3,0.3c0,0.3,0.3,0.3,0.5,0.2c0,0.2,0,0.3-0.1,0.3c-0.1,0-0.1,0-0.1-0.1
					c0-0.1-0.1-0.1-0.1-0.1c-0.1,0-0.1,0.1-0.1,0.1c0,0.1,0.2,0.1,0.2,0.1c0.3,0,0.4-0.2,0.4-0.4C18.5,40.6,18.3,40.4,18.1,40.4
					 M18.2,40.9c-0.2,0-0.2-0.2-0.2-0.4c0,0,0-0.1,0.1-0.1C18.2,40.4,18.2,40.8,18.2,40.9C18.2,40.9,18.2,40.9,18.2,40.9"/>
				<path class="st42" d="M15.9,40.3c0,0-0.1,0.2-0.4,0.3l0,0c0,0,0.1,0,0.1-0.1l-0.1,0.5c0,0,0,0-0.1,0l-0.1,0l0,0.1l0.4,0.1l0-0.1
					l-0.1,0c0,0,0,0,0,0L15.9,40.3L15.9,40.3z"/>
				<path class="st42" d="M21,39.7v-1c-0.8,0.3-1.7,0.6-3,0.7L18,39.8c0.1,0,0.2,0,0.4,0C17.9,39.9,17.3,40,17,40
					c-0.3,0-0.9,0-1.4-0.1c0.2,0,0.3,0,0.4,0L16,39.5c-1.2-0.1-2.2-0.4-3-0.7v1l-1,0.4c0.8,0.4,1.6,0.7,2.7,1l-0.1,0.4
					c0.6,0.2,1.5,0.3,2.5,0.3c1,0,1.9-0.2,2.5-0.3l-0.1-0.4c1-0.3,1.9-0.6,2.7-1L21,39.7z M12.5,40.2l0.7-0.3v-0.8
					c0.4,0.2,1,0.4,1.9,0.5l-0.4,1.3C13.9,40.7,13.1,40.4,12.5,40.2 M17,41.6c-0.8,0-1.5-0.1-2.2-0.3l0.4-1.3c0.3,0.1,1,0.1,1.8,0.1
					c0.8,0,1.5-0.1,1.8-0.1l0.4,1.3C18.5,41.5,17.8,41.6,17,41.6 M19.3,40.9l-0.4-1.3c0.8-0.2,1.4-0.4,1.9-0.5v0.8l0.7,0.3
					C20.9,40.4,20.2,40.7,19.3,40.9"/>
				<path class="st42" d="M5.1,27c0,0,0.4,0.7,0.6,0.9c0.7-0.7,1.2-1.8,2.4-2.4c-0.5-0.9-1.3-0.8-1.3-1.6c0.4,0.1,0.7-0.1,0.7-0.6
					c-0.4-0.2-0.5,0.2-0.6,0.1c-0.1-0.1,0.4-0.1,0.4-0.6c-0.5,0-0.4,0.3-0.5,0.3c-0.1,0,0.1-0.3-0.3-0.6c-0.2,0.5,0.1,0.6,0,0.7
					c-0.1,0.1-0.2-0.3-0.6-0.1c0.1,0.6,0.7,0.3,0.6,0.5c-0.1,0.1-0.4-0.2-0.6,0.2c0.2,0.4,0.6,0.3,0.8,0.1c0,0.7,0.5,0.8,1.1,1.3
					c-1.4-0.6-3.2,0.1-3.8,0.2c0.1,0.2,0.3,0.5,0.6,0.6C4,26.5,4,26.8,3.7,27C3.7,27,4.3,27.6,5.1,27 M4.3,26.9
					c0.2-0.3,0.5-0.5,0.8-0.8c-0.2,0-0.4-0.1-0.7-0.3c0.5-0.1,1.6-0.5,2.4-0.3c0.3,0,0.5,0.2,0.4,0.2c-0.5,0.3-1.1,1.1-1.5,1.9
					c-0.4-0.5-0.2-1.1-0.1-1.3C4.8,26.8,4.6,27,4.3,26.9"/>
				<path class="st42" d="M16.4,26.5v0.4c0.1-0.2,0.4-0.1,0.4-0.1v0.6c0,0,0,0.3-0.1,0.4H17h0.3c-0.1-0.1-0.1-0.4-0.1-0.4v-0.6
					c0,0,0.3,0,0.4,0.1v-0.4H17H16.4z"/>
			</g>
		</g>
	</g>
</g>
</svg>
