<?xml version="1.0" encoding="utf-8"?>
<!-- Generator: Adobe Illustrator 22.0.1, SVG Export Plug-In . SVG Version: 6.00 Build 0)  -->
<svg version="1.1" id="Слой_1" xmlns="http://www.w3.org/2000/svg" xmlns:xlink="http://www.w3.org/1999/xlink" x="0px" y="0px"
	 viewBox="0 0 70 70" style="enable-background:new 0 0 70 70;" xml:space="preserve">
<style type="text/css">
	.st0{fill:#EAEBEC;}
	.st1{fill:none;stroke:#525254;stroke-width:1.5581;stroke-linecap:round;stroke-linejoin:round;stroke-miterlimit:10;}
	.st2{fill:#BC8B57;}
	.st3{fill:#C6975F;}
	.st4{fill:none;stroke:#C0C2C4;stroke-width:2.2749;stroke-linecap:round;stroke-linejoin:round;stroke-miterlimit:10;}
	.st5{fill:none;stroke:#96979A;stroke-width:1.5;stroke-linecap:round;stroke-linejoin:round;stroke-miterlimit:10;}
	.st6{fill:#96979A;}
	.st7{fill-rule:evenodd;clip-rule:evenodd;fill:#DADEE1;}
	.st8{fill:#FFFFFF;}
	.st9{fill-rule:evenodd;clip-rule:evenodd;fill:#EAEBEC;}
	.st10{fill-rule:evenodd;clip-rule:evenodd;fill:#96979A;}
	.st11{fill-rule:evenodd;clip-rule:evenodd;fill:url(#SVGID_1_);}
	.st12{fill:#3AA61E;}
	.st13{fill:#008922;}
	.st14{fill:#D6D7D8;}
	.st15{fill:#C0C2C4;}
	.st16{fill:#696A6C;stroke:#696A6C;stroke-width:1.8366;stroke-linecap:round;stroke-linejoin:round;stroke-miterlimit:10;}
	.st17{opacity:0.6;fill:#1B1819;}
	.st18{fill:#1B1819;}
	.st19{fill:none;stroke:#1B1819;stroke-width:1.5305;stroke-linecap:round;stroke-linejoin:round;stroke-miterlimit:10;}
	.st20{fill:#39393A;}
	.st21{fill:none;stroke:#6DCBE8;stroke-width:1.5305;stroke-linecap:round;stroke-linejoin:round;stroke-miterlimit:10;}
	.st22{fill:#6DCBE8;stroke:#6DCBE8;stroke-width:1.5305;stroke-miterlimit:10;}
	.st23{fill:#BA1020;}
	.st24{fill:#E5BE95;}
	.st25{fill:#F4D6B0;}
	.st26{fill:none;stroke:#C0C2C4;stroke-width:2;stroke-linecap:round;stroke-linejoin:round;stroke-miterlimit:10;}
	.st27{fill:none;stroke:#525254;stroke-width:2;stroke-linecap:round;stroke-linejoin:round;stroke-miterlimit:10;}
	.st28{fill:#BA1020;stroke:#BA1020;stroke-width:2;stroke-linecap:round;stroke-linejoin:round;stroke-miterlimit:10;}
	.st29{fill:#C7B599;}
	.st30{fill:none;stroke:#808183;stroke-width:2;stroke-linecap:round;stroke-linejoin:round;stroke-miterlimit:10;}
	.st31{fill:#696A6C;}
	.st32{fill:#2DAA5B;stroke:#2DAA5B;stroke-width:2;stroke-linecap:round;stroke-linejoin:round;stroke-miterlimit:10;}
	.st33{fill:#ACADAF;}
	.st34{fill:none;stroke:#ACADAF;stroke-width:2;stroke-linecap:round;stroke-linejoin:round;stroke-miterlimit:10;}
	.st35{fill:none;stroke:#BA1020;stroke-width:2;stroke-linecap:round;stroke-linejoin:round;stroke-miterlimit:10;}
	.st36{fill:none;stroke:#E52E28;stroke-linecap:round;stroke-linejoin:round;stroke-miterlimit:10;}
	.st37{fill:url(#SVGID_2_);}
	.st38{fill:url(#SVGID_3_);}
	.st39{fill:url(#SVGID_4_);}
	.st40{fill:#525254;}
	.st41{fill-rule:evenodd;clip-rule:evenodd;fill:#FFE100;}
	.st42{fill-rule:evenodd;clip-rule:evenodd;fill:#1B1819;}
	.st43{opacity:0.8;fill:#1B1819;}
	
		.st44{opacity:0.8;fill:none;stroke:#1B1819;stroke-width:1.3656;stroke-linecap:round;stroke-linejoin:round;stroke-miterlimit:10;}
	.st45{fill:none;stroke:#39393A;stroke-width:2.7311;stroke-linecap:round;stroke-linejoin:round;stroke-miterlimit:10;}
	.st46{fill:url(#SVGID_5_);}
	.st47{fill:url(#SVGID_6_);}
	.st48{fill:url(#SVGID_7_);}
	.st49{fill:url(#SVGID_8_);}
	.st50{fill:url(#SVGID_9_);}
	.st51{fill:url(#SVGID_10_);}
	.st52{fill:url(#SVGID_11_);}
	.st53{fill:url(#SVGID_12_);}
	.st54{fill:url(#SVGID_13_);}
	.st55{fill:url(#SVGID_14_);}
	.st56{fill:url(#SVGID_15_);}
	.st57{opacity:0.65;clip-path:url(#SVGID_17_);fill:url(#SVGID_18_);}
	.st58{opacity:0.65;clip-path:url(#SVGID_20_);fill:#C0C2C4;}
</style>
<g>
	<line class="st16" x1="47.4" y1="10.2" x2="56.2" y2="10.2"/>
	<g>
		<path class="st0" d="M40.3,62.3H5.6c-0.9,0-1.7-0.8-1.7-1.7V35c0-0.9,0.8-1.7,1.7-1.7h32"/>
		<polyline class="st17" points="37.6,44.4 3.9,44.4 3.9,38.4 37.6,38.4 		"/>
		<polyline class="st18" points="37.6,55.3 35.4,55.3 35.4,58.4 37.6,58.4 		"/>
		<rect x="29" y="55.3" class="st18" width="3.2" height="3.2"/>
		<line class="st19" x1="9.2" y1="55.3" x2="20.3" y2="55.3"/>
		<line class="st19" x1="9.2" y1="58.4" x2="14.8" y2="58.4"/>
	</g>
	<path class="st20" d="M66.1,60.4c0,1-0.8,1.8-1.8,1.8H39.4c-1,0-1.8-0.8-1.8-1.8V9.6c0-1,0.8-1.8,1.8-1.8h24.8c1,0,1.8,0.8,1.8,1.8
		V60.4z"/>
	<rect x="38.9" y="12.6" class="st8" width="25.9" height="40.6"/>
	<circle class="st8" cx="51.8" cy="57.7" r="2.7"/>
	<path class="st21" d="M48.4,37.1c0.8-1,2.1-1.6,3.4-1.6c1.4,0,2.6,0.6,3.4,1.6"/>
	<path class="st21" d="M47.1,34.1c1.2-1.3,2.8-2.2,4.7-2.2c1.9,0,3.6,0.8,4.7,2.2"/>
	<path class="st21" d="M45.8,31c1.5-1.7,3.6-2.8,6-2.8c2.4,0,4.6,1.1,6,2.8"/>
	<path class="st22" d="M50.3,40.1c0-0.8,0.7-1.5,1.5-1.5c0.8,0,1.5,0.7,1.5,1.5s-0.7,1.5-1.5,1.5C51,41.6,50.3,41,50.3,40.1z"/>
</g>
</svg>
