<?xml version="1.0" encoding="utf-8"?>
<!-- Generator: Adobe Illustrator 22.0.1, SVG Export Plug-In . SVG Version: 6.00 Build 0)  -->
<svg version="1.1" id="Слой_1" xmlns="http://www.w3.org/2000/svg" xmlns:xlink="http://www.w3.org/1999/xlink" x="0px" y="0px"
	 viewBox="0 0 70 70" style="enable-background:new 0 0 70 70;" xml:space="preserve">
<style type="text/css">
	.st0{fill:#EAEBEC;}
	.st1{fill:none;stroke:#525254;stroke-width:1.5581;stroke-linecap:round;stroke-linejoin:round;stroke-miterlimit:10;}
	.st2{fill:#BC8B57;}
	.st3{fill:#C6975F;}
	.st4{fill:none;stroke:#C0C2C4;stroke-width:2.2749;stroke-linecap:round;stroke-linejoin:round;stroke-miterlimit:10;}
	.st5{fill:none;stroke:#96979A;stroke-width:1.5;stroke-linecap:round;stroke-linejoin:round;stroke-miterlimit:10;}
	.st6{fill:#96979A;}
	.st7{fill-rule:evenodd;clip-rule:evenodd;fill:#DADEE1;}
	.st8{fill:#FFFFFF;}
	.st9{fill-rule:evenodd;clip-rule:evenodd;fill:#EAEBEC;}
	.st10{fill-rule:evenodd;clip-rule:evenodd;fill:#96979A;}
	.st11{fill-rule:evenodd;clip-rule:evenodd;fill:url(#SVGID_1_);}
	.st12{fill:#3AA61E;}
	.st13{fill:#008922;}
	.st14{fill:#D6D7D8;}
	.st15{fill:#C0C2C4;}
	.st16{fill:#696A6C;stroke:#696A6C;stroke-width:1.8366;stroke-linecap:round;stroke-linejoin:round;stroke-miterlimit:10;}
	.st17{opacity:0.6;fill:#1B1819;}
	.st18{fill:#1B1819;}
	.st19{fill:none;stroke:#1B1819;stroke-width:1.5305;stroke-linecap:round;stroke-linejoin:round;stroke-miterlimit:10;}
	.st20{fill:#39393A;}
	.st21{fill:none;stroke:#6DCBE8;stroke-width:1.5305;stroke-linecap:round;stroke-linejoin:round;stroke-miterlimit:10;}
	.st22{fill:#6DCBE8;stroke:#6DCBE8;stroke-width:1.5305;stroke-miterlimit:10;}
	.st23{fill:#BA1020;}
	.st24{fill:#E5BE95;}
	.st25{fill:#F4D6B0;}
	.st26{fill:none;stroke:#C0C2C4;stroke-width:2;stroke-linecap:round;stroke-linejoin:round;stroke-miterlimit:10;}
	.st27{fill:none;stroke:#525254;stroke-width:2;stroke-linecap:round;stroke-linejoin:round;stroke-miterlimit:10;}
	.st28{fill:#BA1020;stroke:#BA1020;stroke-width:2;stroke-linecap:round;stroke-linejoin:round;stroke-miterlimit:10;}
	.st29{fill:#C7B599;}
	.st30{fill:none;stroke:#808183;stroke-width:2;stroke-linecap:round;stroke-linejoin:round;stroke-miterlimit:10;}
	.st31{fill:#696A6C;}
	.st32{fill:#2DAA5B;stroke:#2DAA5B;stroke-width:2;stroke-linecap:round;stroke-linejoin:round;stroke-miterlimit:10;}
	.st33{fill:#ACADAF;}
	.st34{fill:none;stroke:#ACADAF;stroke-width:2;stroke-linecap:round;stroke-linejoin:round;stroke-miterlimit:10;}
	.st35{fill:none;stroke:#BA1020;stroke-width:2;stroke-linecap:round;stroke-linejoin:round;stroke-miterlimit:10;}
	.st36{fill:none;stroke:#E52E28;stroke-linecap:round;stroke-linejoin:round;stroke-miterlimit:10;}
	.st37{fill:url(#SVGID_2_);}
	.st38{fill:url(#SVGID_3_);}
	.st39{fill:url(#SVGID_4_);}
	.st40{fill:#525254;}
	.st41{fill-rule:evenodd;clip-rule:evenodd;fill:#FFE100;}
	.st42{fill-rule:evenodd;clip-rule:evenodd;fill:#1B1819;}
	.st43{opacity:0.8;fill:#1B1819;}
	
		.st44{opacity:0.8;fill:none;stroke:#1B1819;stroke-width:1.3656;stroke-linecap:round;stroke-linejoin:round;stroke-miterlimit:10;}
	.st45{fill:none;stroke:#39393A;stroke-width:2.7311;stroke-linecap:round;stroke-linejoin:round;stroke-miterlimit:10;}
	.st46{fill:url(#SVGID_5_);}
	.st47{fill:url(#SVGID_6_);}
	.st48{fill:url(#SVGID_7_);}
	.st49{fill:url(#SVGID_8_);}
	.st50{fill:url(#SVGID_9_);}
	.st51{fill:url(#SVGID_10_);}
	.st52{fill:url(#SVGID_11_);}
	.st53{fill:url(#SVGID_12_);}
	.st54{fill:url(#SVGID_13_);}
	.st55{fill:url(#SVGID_14_);}
	.st56{fill:url(#SVGID_15_);}
	.st57{opacity:0.65;clip-path:url(#SVGID_17_);fill:url(#SVGID_18_);}
	.st58{opacity:0.65;clip-path:url(#SVGID_20_);fill:#C0C2C4;}
</style>
<g>
	<g>
		<g>
			<path class="st0" d="M26.2,48.3c0,0.7-0.6,1.3-1.3,1.3h-8.5c-0.7,0-1.3-0.6-1.3-1.3V27.1c0-0.7,0.6-1.3,1.3-1.3h8.5
				c0.7,0,1.3,0.6,1.3,1.3V48.3z"/>
			<path class="st0" d="M43,48.3c0,0.7-0.6,1.3-1.3,1.3h-8.5c-0.7,0-1.3-0.6-1.3-1.3V27.1c0-0.7,0.6-1.3,1.3-1.3h8.5
				c0.7,0,1.3,0.6,1.3,1.3V48.3z"/>
			<path class="st0" d="M59.9,48.3c0,0.7-0.6,1.3-1.3,1.3h-8.5c-0.7,0-1.3-0.6-1.3-1.3V27.1c0-0.7,0.6-1.3,1.3-1.3h8.5
				c0.7,0,1.3,0.6,1.3,1.3V48.3z"/>
		</g>
		<path class="st0" d="M62.9,22c0.6,0.4,0.6,0.7-0.2,0.7H12.3c-0.7,0-0.8-0.3-0.2-0.7L36.3,8.4C36.9,8,38,8,38.6,8.4L62.9,22z"/>
		<path class="st0" d="M64,58.5c0,0.7-0.6,1.3-1.3,1.3H12.3c-0.7,0-1.3-0.6-1.3-1.3v-4.2c0-0.7,0.6-1.3,1.3-1.3h50.4
			c0.7,0,1.3,0.6,1.3,1.3V58.5z"/>
	</g>
	<g>
		<path class="st23" d="M16.4,43.2c0,0,0,1.8-0.4,2.4c-1.3,1.6-6.3,1.4-7.6,3c-1.6,2-3.5,8.2-1.7,10c4.9,5,23,5,27.9,0
			c1.8-1.8-0.1-8-1.7-10c-1.3-1.6-6.3-1.4-7.6-3c-0.4-0.5-0.4-2.4-0.4-2.4"/>
		<path class="st24" d="M20.7,49.5c3.1,0,5.6-1.3,6.3-3.1c-0.7-0.2-1.3-0.5-1.6-0.9c-0.4-0.5-0.4-2.4-0.4-2.4h-8.6
			c0,0,0,1.8-0.4,2.4c-0.3,0.4-0.9,0.7-1.6,0.9C15,48.2,17.6,49.5,20.7,49.5z"/>
		<path class="st25" d="M27.2,37.3c0,4.2-2.9,7.7-6.6,7.7c-3.6,0-6.6-3.4-6.6-7.7c0-4.2,2.9-7.7,6.6-7.7
			C24.3,29.6,27.2,33.1,27.2,37.3z"/>
	</g>
</g>
</svg>
