<?xml version="1.0" encoding="utf-8"?>
<!-- Generator: Adobe Illustrator 22.0.1, SVG Export Plug-In . SVG Version: 6.00 Build 0)  -->
<svg version="1.1" id="Слой_1" xmlns="http://www.w3.org/2000/svg" xmlns:xlink="http://www.w3.org/1999/xlink" x="0px" y="0px"
	 viewBox="0 0 100 60" style="enable-background:new 0 0 100 60;" xml:space="preserve">
<style type="text/css">
	.st0{fill:#EAEBEC;}
	.st1{fill:none;stroke:#525254;stroke-width:1.5581;stroke-linecap:round;stroke-linejoin:round;stroke-miterlimit:10;}
	.st2{fill:#BC8B57;}
	.st3{fill:#C6975F;}
	.st4{fill:none;stroke:#C0C2C4;stroke-width:2.2749;stroke-linecap:round;stroke-linejoin:round;stroke-miterlimit:10;}
	.st5{fill:none;stroke:#96979A;stroke-width:1.5;stroke-linecap:round;stroke-linejoin:round;stroke-miterlimit:10;}
	.st6{fill:#96979A;}
	.st7{fill-rule:evenodd;clip-rule:evenodd;fill:#DADEE1;}
	.st8{fill:#FFFFFF;}
	.st9{fill-rule:evenodd;clip-rule:evenodd;fill:#EAEBEC;}
	.st10{fill-rule:evenodd;clip-rule:evenodd;fill:#96979A;}
	.st11{fill-rule:evenodd;clip-rule:evenodd;fill:url(#SVGID_1_);}
	.st12{fill:#3AA61E;}
	.st13{fill:#008922;}
	.st14{fill:#D6D7D8;}
	.st15{fill:#C0C2C4;}
	.st16{fill:#696A6C;stroke:#696A6C;stroke-width:1.8366;stroke-linecap:round;stroke-linejoin:round;stroke-miterlimit:10;}
	.st17{opacity:0.6;fill:#1B1819;}
	.st18{fill:#1B1819;}
	.st19{fill:none;stroke:#1B1819;stroke-width:1.5305;stroke-linecap:round;stroke-linejoin:round;stroke-miterlimit:10;}
	.st20{fill:#39393A;}
	.st21{fill:none;stroke:#6DCBE8;stroke-width:1.5305;stroke-linecap:round;stroke-linejoin:round;stroke-miterlimit:10;}
	.st22{fill:#6DCBE8;stroke:#6DCBE8;stroke-width:1.5305;stroke-miterlimit:10;}
	.st23{fill:#BA1020;}
	.st24{fill:#E5BE95;}
	.st25{fill:#F4D6B0;}
	.st26{fill:none;stroke:#C0C2C4;stroke-width:2;stroke-linecap:round;stroke-linejoin:round;stroke-miterlimit:10;}
	.st27{fill:none;stroke:#525254;stroke-width:2;stroke-linecap:round;stroke-linejoin:round;stroke-miterlimit:10;}
	.st28{fill:#BA1020;stroke:#BA1020;stroke-width:2;stroke-linecap:round;stroke-linejoin:round;stroke-miterlimit:10;}
	.st29{fill:#C7B599;}
	.st30{fill:none;stroke:#808183;stroke-width:2;stroke-linecap:round;stroke-linejoin:round;stroke-miterlimit:10;}
	.st31{fill:#696A6C;}
	.st32{fill:#2DAA5B;stroke:#2DAA5B;stroke-width:2;stroke-linecap:round;stroke-linejoin:round;stroke-miterlimit:10;}
	.st33{fill:#ACADAF;}
	.st34{fill:none;stroke:#ACADAF;stroke-width:2;stroke-linecap:round;stroke-linejoin:round;stroke-miterlimit:10;}
	.st35{fill:none;stroke:#BA1020;stroke-width:2;stroke-linecap:round;stroke-linejoin:round;stroke-miterlimit:10;}
	.st36{fill:none;stroke:#E52E28;stroke-linecap:round;stroke-linejoin:round;stroke-miterlimit:10;}
	.st37{fill:url(#SVGID_2_);}
	.st38{fill:url(#SVGID_3_);}
	.st39{fill:url(#SVGID_4_);}
	.st40{fill:#525254;}
	.st41{fill-rule:evenodd;clip-rule:evenodd;fill:#FFE100;}
	.st42{fill-rule:evenodd;clip-rule:evenodd;fill:#1B1819;}
	.st43{opacity:0.8;fill:#1B1819;}
	
		.st44{opacity:0.8;fill:none;stroke:#1B1819;stroke-width:1.3656;stroke-linecap:round;stroke-linejoin:round;stroke-miterlimit:10;}
	.st45{fill:none;stroke:#39393A;stroke-width:2.7311;stroke-linecap:round;stroke-linejoin:round;stroke-miterlimit:10;}
	.st46{fill:url(#SVGID_5_);}
	.st47{fill:url(#SVGID_6_);}
	.st48{fill:url(#SVGID_7_);}
	.st49{fill:url(#SVGID_8_);}
	.st50{fill:url(#SVGID_9_);}
	.st51{fill:url(#SVGID_10_);}
	.st52{fill:url(#SVGID_11_);}
	.st53{fill:url(#SVGID_12_);}
	.st54{fill:url(#SVGID_13_);}
	.st55{fill:url(#SVGID_14_);}
	.st56{fill:url(#SVGID_15_);}
	.st57{opacity:0.65;clip-path:url(#SVGID_17_);fill:url(#SVGID_18_);}
	.st58{opacity:0.65;clip-path:url(#SVGID_20_);fill:#C0C2C4;}
</style>
<g>
	<linearGradient id="SVGID_1_" gradientUnits="userSpaceOnUse" x1="22.5355" y1="11.8387" x2="22.5355" y2="48.1613">
		<stop  offset="0" style="stop-color:#E2003C"/>
		<stop  offset="0.75" style="stop-color:#B41B42"/>
	</linearGradient>
	<path style="fill:url(#SVGID_1_);" d="M24.7,21.8c-1.2,0.2-2.3,0.5-3.4,1c-1,0.4-2,0.9-2.9,1.6c-1.5,1.2-3,2.8-3,4.9
		c0,2.1,1.5,4,2.9,5.4c1.5,1.5,3.5,2.7,5.6,3c1.1,0.1,2.1-0.1,3-0.7c0.8-0.6,1.3-1.5,1.8-2.4c0.9-2,1.2-4.2,1.2-6.4
		c0-2.4-0.1-4.8-0.6-7.2c-0.2-1.1-0.6-2.2-1.1-3.3c0,0-1.6-4.1-5.8-3.9c-1,0-2,0.2-3,0.6c-3.2,1.3-6.3,3.1-8.9,5.5
		c-3.4,3.2-4.5,6.1-4.7,8.6c-0.2,3.6,2,7.1,2,7.1c0.7,1.1,1.5,2.3,2.6,3.6c3.4,4,8,7.1,12.1,8.3c2.9,0.9,6,1.3,8.8-0.4
		c1.1-0.7,2-1.6,2.8-2.6c3.1-4.1,4.5-10.4,5-16c0.5-5.6,0-11.6-3.7-14.7c-1.5-1.2-3.2-1.8-5-1.9c3.8,3.6,4.2,12.6,4.2,12.6
		c0.1,3-0.1,4.5-0.1,4.5c-0.4,4.1-1.2,8.5-3.6,11.6c-3.5,4.6-9.3,1.8-9.3,1.8c-2.8-1.1-5.3-2.9-7.3-5.1c-1.4-1.5-2.6-3.2-3.3-5.2
		c-0.5-1.4-0.7-2.9-0.3-4.4c0.4-1.9,1.6-3.5,3-4.8c1.5-1.5,3.3-2.8,5.3-3.6c0,0,1.8-0.8,3.1-0.4C22,18.7,23.9,19,24.7,21.8z
		 M24.4,32c-0.7,0.9-1.9,0.5-2.7,0c-0.7-0.5-1.3-1.1-1.6-1.9c-0.2-0.4-0.2-0.9,0-1.3c0,0,0.4-0.7,1.1-1.2c0.7-0.5,2-1.1,4.2-1.3
		c0,0.9,0,1.9-0.1,3C25,31.4,24.4,32,24.4,32z"/>
	<linearGradient id="SVGID_2_" gradientUnits="userSpaceOnUse" x1="31.1056" y1="43.6247" x2="11.027" y2="23.5461">
		<stop  offset="0" style="stop-color:#901834"/>
		<stop  offset="0.1421" style="stop-color:#A61038"/>
		<stop  offset="0.3833" style="stop-color:#C7043D"/>
		<stop  offset="0.5161" style="stop-color:#D3003F"/>
		<stop  offset="0.6131" style="stop-color:#CD023E"/>
		<stop  offset="0.7389" style="stop-color:#BD073B"/>
		<stop  offset="0.88" style="stop-color:#A20E36"/>
		<stop  offset="1" style="stop-color:#861730"/>
	</linearGradient>
	<path class="st37" d="M34.3,30.5c-0.5,3.6-1.4,7.2-3.5,10c-3.5,4.6-9.3,1.8-9.3,1.8c-2.8-1.1-5.3-2.9-7.3-5.1
		c-1.4-1.5-2.6-3.2-3.3-5.2c-0.5-1.4-0.7-2.9-0.3-4.4c0.4-1.9,1.6-3.5,3-4.8c1.5-1.5,3.3-2.8,5.3-3.6c0,0,1.6-0.7,2.9-0.5l0,0
		c0,0-6-1.2-12.5,6.9c-2.3,2.8-2.9,5.5-2.4,8c0.5,1.2,1,2,1,2c0.7,1.1,1.5,2.3,2.6,3.6c3.4,4,8,7.1,12.1,8.3
		c1.1,0.4,2.3,0.6,3.4,0.7l0,0C26,48.1,32.4,46,34.3,30.5z"/>
	<linearGradient id="SVGID_3_" gradientUnits="userSpaceOnUse" x1="15.3542" y1="29.1639" x2="25.4175" y2="29.1639">
		<stop  offset="0" style="stop-color:#D3003F"/>
		<stop  offset="0.75" style="stop-color:#861730"/>
	</linearGradient>
	<path class="st38" d="M25.3,29.4c-0.2,2-0.8,2.6-0.8,2.6c-0.7,0.9-1.9,0.5-2.7,0c-0.7-0.5-1.3-1.1-1.6-1.9c-0.2-0.4-0.2-0.9,0-1.3
		c0,0,0.4-0.7,1.1-1.2c0.7-0.5,2-1.1,4.2-1.3c0-1.9-0.3-3.4-0.7-4.6c-1.2,0.2-2.3,0.5-3.4,1c-1,0.4-2,0.9-2.9,1.6
		c-1.5,1.2-3,2.8-3,4.9c0,2.1,1.5,4,2.9,5.4c0.8,0.7,1.6,1.4,2.6,1.9C21.9,36.2,24.6,34.8,25.3,29.4L25.3,29.4z"/>
	<g>
		<g>
			<g>
				<path class="st40" d="M50.3,34.5c-0.4,0-0.9-0.1-1.2-0.2v3.4H47V26.5c0.6-0.3,1.8-0.6,3.1-0.6c2.7,0,4.2,1.6,4.2,4.3
					C54.2,32.8,52.8,34.5,50.3,34.5z M50,27.5c-0.4,0-0.8,0.1-1,0.2v5c0.2,0.1,0.6,0.2,1,0.2c1.3,0,2-1.1,2-2.7
					C52.1,28.5,51.3,27.5,50,27.5z"/>
				<path class="st40" d="M58.4,34.6c-2.5,0-3.8-1-3.8-2.7c0-2.3,2.4-2.7,4.9-2.9v-0.4c0-0.9-0.6-1.2-1.6-1.2
					c-0.8,0-1.7,0.2-2.3,0.5l-0.5-1.4c0.7-0.3,1.9-0.6,3.1-0.6c2.1,0,3.3,0.8,3.3,3V34C60.9,34.3,59.6,34.6,58.4,34.6z M59.5,30.4
					c-1.5,0.1-2.9,0.2-2.9,1.5c0,0.8,0.6,1.2,1.7,1.2c0.4,0,1-0.1,1.2-0.2V30.4z"/>
				<path class="st40" d="M65.8,37.7h-2.2l1.3-3.3l-3.1-8.4H64l1.6,5.3c0.2,0.6,0.3,1.3,0.3,1.3h0c0,0,0.1-0.7,0.3-1.3l1.6-5.3h2.4
					L65.8,37.7z"/>
				<path class="st40" d="M78.4,34.6c-2.5,0-3.8-1-3.8-2.7c0-2.3,2.4-2.7,4.9-2.9v-0.4c0-0.9-0.6-1.2-1.6-1.2
					c-0.8,0-1.7,0.2-2.3,0.5l-0.5-1.4c0.7-0.3,1.9-0.6,3.1-0.6c2.1,0,3.3,0.8,3.3,3V34C80.9,34.3,79.6,34.6,78.4,34.6z M79.5,30.4
					c-1.5,0.1-2.9,0.2-2.9,1.5c0,0.8,0.6,1.2,1.7,1.2c0.4,0,1-0.1,1.2-0.2V30.4z"/>
				<path class="st40" d="M82.5,26.1v-1.9l2.1-0.6v2.5h1.6v1.6h-1.6v4.1c0,0.7,0.4,0.9,1,0.9c0.2,0,0.5-0.1,0.6-0.1v1.8
					c-0.3,0.1-0.8,0.2-1.3,0.2c-1.6,0-2.4-0.9-2.4-2.6v-4.3V26.1z"/>
				<path class="st40" d="M94.2,30.4l-5.4,0.7c0.2,1.2,1.1,1.8,2.3,1.8c0.8,0,1.7-0.2,2.3-0.5L94,34c-0.7,0.4-1.9,0.6-3.1,0.6
					c-2.8,0-4.2-1.8-4.2-4.4c0-2.6,1.4-4.4,3.9-4.4c2.3,0,3.6,1.5,3.6,3.8C94.2,29.9,94.2,30.1,94.2,30.4z M90.6,27.4
					c-1.1,0-1.9,0.8-1.9,2.4l3.5-0.5C92.2,28,91.5,27.4,90.6,27.4z"/>
			</g>
			<path class="st40" d="M73.9,32.7c-0.5,0-0.9-0.2-0.9-0.9v-9.5h-2.1v9.7c0,1.8,0.8,2.6,2.4,2.6c0.2,0,0.5,0,0.7-0.1L73.9,32.7
				L73.9,32.7z"/>
		</g>
	</g>
</g>
</svg>
