<?xml version="1.0" encoding="utf-8"?>
<!-- Generator: Adobe Illustrator 22.0.1, SVG Export Plug-In . SVG Version: 6.00 Build 0)  -->
<svg version="1.1" id="Слой_1" xmlns="http://www.w3.org/2000/svg" xmlns:xlink="http://www.w3.org/1999/xlink" x="0px" y="0px"
	 viewBox="0 0 70 70" style="enable-background:new 0 0 70 70;" xml:space="preserve">
<style type="text/css">
	.st0{fill:#EAEBEC;}
	.st1{fill:none;stroke:#525254;stroke-width:1.5581;stroke-linecap:round;stroke-linejoin:round;stroke-miterlimit:10;}
	.st2{fill:#BC8B57;}
	.st3{fill:#C6975F;}
	.st4{fill:none;stroke:#C0C2C4;stroke-width:2.2749;stroke-linecap:round;stroke-linejoin:round;stroke-miterlimit:10;}
	.st5{fill:none;stroke:#96979A;stroke-width:1.5;stroke-linecap:round;stroke-linejoin:round;stroke-miterlimit:10;}
	.st6{fill:#96979A;}
	.st7{fill-rule:evenodd;clip-rule:evenodd;fill:#DADEE1;}
	.st8{fill:#FFFFFF;}
	.st9{fill-rule:evenodd;clip-rule:evenodd;fill:#EAEBEC;}
	.st10{fill-rule:evenodd;clip-rule:evenodd;fill:#96979A;}
	.st11{fill-rule:evenodd;clip-rule:evenodd;fill:url(#SVGID_1_);}
	.st12{fill:#3AA61E;}
	.st13{fill:#008922;}
	.st14{fill:#D6D7D8;}
	.st15{fill:#C0C2C4;}
	.st16{fill:#696A6C;stroke:#696A6C;stroke-width:1.8366;stroke-linecap:round;stroke-linejoin:round;stroke-miterlimit:10;}
	.st17{opacity:0.6;fill:#1B1819;}
	.st18{fill:#1B1819;}
	.st19{fill:none;stroke:#1B1819;stroke-width:1.5305;stroke-linecap:round;stroke-linejoin:round;stroke-miterlimit:10;}
	.st20{fill:#39393A;}
	.st21{fill:none;stroke:#6DCBE8;stroke-width:1.5305;stroke-linecap:round;stroke-linejoin:round;stroke-miterlimit:10;}
	.st22{fill:#6DCBE8;stroke:#6DCBE8;stroke-width:1.5305;stroke-miterlimit:10;}
	.st23{fill:#BA1020;}
	.st24{fill:#E5BE95;}
	.st25{fill:#F4D6B0;}
	.st26{fill:none;stroke:#C0C2C4;stroke-width:2;stroke-linecap:round;stroke-linejoin:round;stroke-miterlimit:10;}
	.st27{fill:none;stroke:#525254;stroke-width:2;stroke-linecap:round;stroke-linejoin:round;stroke-miterlimit:10;}
	.st28{fill:#BA1020;stroke:#BA1020;stroke-width:2;stroke-linecap:round;stroke-linejoin:round;stroke-miterlimit:10;}
	.st29{fill:#C7B599;}
	.st30{fill:none;stroke:#808183;stroke-width:2;stroke-linecap:round;stroke-linejoin:round;stroke-miterlimit:10;}
	.st31{fill:#696A6C;}
	.st32{fill:#2DAA5B;stroke:#2DAA5B;stroke-width:2;stroke-linecap:round;stroke-linejoin:round;stroke-miterlimit:10;}
	.st33{fill:#ACADAF;}
	.st34{fill:none;stroke:#ACADAF;stroke-width:2;stroke-linecap:round;stroke-linejoin:round;stroke-miterlimit:10;}
	.st35{fill:none;stroke:#BA1020;stroke-width:2;stroke-linecap:round;stroke-linejoin:round;stroke-miterlimit:10;}
	.st36{fill:none;stroke:#E52E28;stroke-linecap:round;stroke-linejoin:round;stroke-miterlimit:10;}
	.st37{fill:url(#SVGID_2_);}
	.st38{fill:url(#SVGID_3_);}
	.st39{fill:url(#SVGID_4_);}
	.st40{fill:#525254;}
	.st41{fill-rule:evenodd;clip-rule:evenodd;fill:#FFE100;}
	.st42{fill-rule:evenodd;clip-rule:evenodd;fill:#1B1819;}
	.st43{opacity:0.8;fill:#1B1819;}
	
		.st44{opacity:0.8;fill:none;stroke:#1B1819;stroke-width:1.3656;stroke-linecap:round;stroke-linejoin:round;stroke-miterlimit:10;}
	.st45{fill:none;stroke:#39393A;stroke-width:2.7311;stroke-linecap:round;stroke-linejoin:round;stroke-miterlimit:10;}
	.st46{fill:url(#SVGID_5_);}
	.st47{fill:url(#SVGID_6_);}
	.st48{fill:url(#SVGID_7_);}
	.st49{fill:url(#SVGID_8_);}
	.st50{fill:url(#SVGID_9_);}
	.st51{fill:url(#SVGID_10_);}
	.st52{fill:url(#SVGID_11_);}
	.st53{fill:url(#SVGID_12_);}
	.st54{fill:url(#SVGID_13_);}
	.st55{fill:url(#SVGID_14_);}
	.st56{fill:url(#SVGID_15_);}
	.st57{opacity:0.65;clip-path:url(#SVGID_17_);fill:url(#SVGID_18_);}
	.st58{opacity:0.65;clip-path:url(#SVGID_20_);fill:#C0C2C4;}
</style>
<g>
	<path class="st12" d="M62.5,42.8c0.1,0.5-0.2,0.9-0.7,1L13,53.2c-0.5,0.1-0.9-0.2-1-0.7L7.1,27.2c-0.1-0.5,0.2-0.9,0.7-1l48.9-9.4
		c0.5-0.1,0.9,0.2,1,0.7L62.5,42.8z"/>
	<path class="st13" d="M62.9,45.4c0.1,0.5-0.2,0.9-0.7,0.9L12.7,51c-0.5,0-0.9-0.3-0.9-0.8L9.3,26.8c0-0.5,0.3-0.9,0.8-1l47.1-6.5
		c0.5-0.1,0.9,0.3,1,0.7L62.9,45.4z"/>
	<path class="st12" d="M63,46.2c0,0.5-0.3,0.9-0.8,0.9l-49.6,4.7c-0.5,0-0.9-0.3-0.9-0.8L9.3,25.5c0-0.5,0.3-0.9,0.8-0.9l49.6-4.7
		c0.5,0,0.9,0.3,0.9,0.8L63,46.2z"/>
	<path class="st13" d="M61.9,49.3c0,0.5-0.4,0.9-0.8,0.9l-48.4,1.3c-0.5,0-0.9-0.4-0.9-0.8l-1.3-26.2c0-0.5,0.3-0.9,0.8-0.9
		l48.6-0.8c0.5,0,0.9,0.4,0.9,0.8L61.9,49.3z"/>
	<path class="st12" d="M61.9,50.2c0,0.5-0.4,0.9-0.9,0.9H11.3c-0.5,0-0.9-0.4-0.9-0.9V24.4c0-0.5,0.4-0.9,0.9-0.9H61
		c0.5,0,0.9,0.4,0.9,0.9V50.2z"/>
	<path class="st13" d="M46.4,37.3c0,5.7-4.6,10.3-10.3,10.3c-5.7,0-10.3-4.6-10.3-10.3c0-5.7,4.6-10.3,10.3-10.3
		C41.8,27,46.4,31.6,46.4,37.3z"/>
	<path class="st14" d="M36.3,38.8h1.1c1.3,0,2.4-0.4,3.1-1.2c0.8-0.8,1.1-1.8,1.1-3.1c0-1.3-0.4-2.3-1.1-3.1
		c-0.8-0.8-1.8-1.2-3.1-1.2h-4.6v7h-2.2v1.5h2.2v1.5h-2.2v1.5h2.2v2.5h2v-2.5h4v-1.5h-4v-1.5H36.3z M34.8,31.8h2.6
		c0.8,0,1.3,0.3,1.7,0.8c0.4,0.5,0.6,1.2,0.6,2c0,0.8-0.2,1.4-0.6,1.9c-0.4,0.5-1,0.8-1.7,0.8h-1.1h-1.5V31.8z"/>
	<path class="st13" d="M22.6,37.3c0,1.8-1.5,3.3-3.3,3.3c-1.8,0-3.3-1.5-3.3-3.3c0-1.8,1.5-3.3,3.3-3.3C21.1,34,22.6,35.5,22.6,37.3
		z"/>
	<path class="st13" d="M56.4,37.3c0,1.8-1.5,3.3-3.3,3.3c-1.8,0-3.3-1.5-3.3-3.3c0-1.8,1.5-3.3,3.3-3.3C54.9,34,56.4,35.5,56.4,37.3
		z"/>
</g>
</svg>
