<?xml version="1.0" encoding="utf-8"?>
<!-- Generator: Adobe Illustrator 22.0.1, SVG Export Plug-In . SVG Version: 6.00 Build 0)  -->
<svg version="1.1" id="Слой_1" xmlns="http://www.w3.org/2000/svg" xmlns:xlink="http://www.w3.org/1999/xlink" x="0px" y="0px"
	 viewBox="0 0 70 70" style="enable-background:new 0 0 70 70;" xml:space="preserve">
<style type="text/css">
	.st0{fill:#EAEBEC;}
	.st1{fill:none;stroke:#525254;stroke-width:1.5581;stroke-linecap:round;stroke-linejoin:round;stroke-miterlimit:10;}
	.st2{fill:#BC8B57;}
	.st3{fill:#C6975F;}
	.st4{fill:none;stroke:#C0C2C4;stroke-width:2.2749;stroke-linecap:round;stroke-linejoin:round;stroke-miterlimit:10;}
	.st5{fill:none;stroke:#96979A;stroke-width:1.5;stroke-linecap:round;stroke-linejoin:round;stroke-miterlimit:10;}
	.st6{fill:#96979A;}
	.st7{fill-rule:evenodd;clip-rule:evenodd;fill:#DADEE1;}
	.st8{fill:#FFFFFF;}
	.st9{fill-rule:evenodd;clip-rule:evenodd;fill:#EAEBEC;}
	.st10{fill-rule:evenodd;clip-rule:evenodd;fill:#96979A;}
	.st11{fill-rule:evenodd;clip-rule:evenodd;fill:url(#SVGID_1_);}
	.st12{fill:#3AA61E;}
	.st13{fill:#008922;}
	.st14{fill:#D6D7D8;}
	.st15{fill:#C0C2C4;}
	.st16{fill:#696A6C;stroke:#696A6C;stroke-width:1.8366;stroke-linecap:round;stroke-linejoin:round;stroke-miterlimit:10;}
	.st17{opacity:0.6;fill:#1B1819;}
	.st18{fill:#1B1819;}
	.st19{fill:none;stroke:#1B1819;stroke-width:1.5305;stroke-linecap:round;stroke-linejoin:round;stroke-miterlimit:10;}
	.st20{fill:#39393A;}
	.st21{fill:none;stroke:#6DCBE8;stroke-width:1.5305;stroke-linecap:round;stroke-linejoin:round;stroke-miterlimit:10;}
	.st22{fill:#6DCBE8;stroke:#6DCBE8;stroke-width:1.5305;stroke-miterlimit:10;}
	.st23{fill:#BA1020;}
	.st24{fill:#E5BE95;}
	.st25{fill:#F4D6B0;}
	.st26{fill:none;stroke:#C0C2C4;stroke-width:2;stroke-linecap:round;stroke-linejoin:round;stroke-miterlimit:10;}
	.st27{fill:none;stroke:#525254;stroke-width:2;stroke-linecap:round;stroke-linejoin:round;stroke-miterlimit:10;}
	.st28{fill:#BA1020;stroke:#BA1020;stroke-width:2;stroke-linecap:round;stroke-linejoin:round;stroke-miterlimit:10;}
	.st29{fill:#C7B599;}
	.st30{fill:none;stroke:#808183;stroke-width:2;stroke-linecap:round;stroke-linejoin:round;stroke-miterlimit:10;}
	.st31{fill:#696A6C;}
	.st32{fill:#2DAA5B;stroke:#2DAA5B;stroke-width:2;stroke-linecap:round;stroke-linejoin:round;stroke-miterlimit:10;}
	.st33{fill:#ACADAF;}
	.st34{fill:none;stroke:#ACADAF;stroke-width:2;stroke-linecap:round;stroke-linejoin:round;stroke-miterlimit:10;}
	.st35{fill:none;stroke:#BA1020;stroke-width:2;stroke-linecap:round;stroke-linejoin:round;stroke-miterlimit:10;}
	.st36{fill:none;stroke:#E52E28;stroke-linecap:round;stroke-linejoin:round;stroke-miterlimit:10;}
	.st37{fill:url(#SVGID_2_);}
	.st38{fill:url(#SVGID_3_);}
	.st39{fill:url(#SVGID_4_);}
	.st40{fill:#525254;}
	.st41{fill-rule:evenodd;clip-rule:evenodd;fill:#FFE100;}
	.st42{fill-rule:evenodd;clip-rule:evenodd;fill:#1B1819;}
	.st43{opacity:0.8;fill:#1B1819;}
	
		.st44{opacity:0.8;fill:none;stroke:#1B1819;stroke-width:1.3656;stroke-linecap:round;stroke-linejoin:round;stroke-miterlimit:10;}
	.st45{fill:none;stroke:#39393A;stroke-width:2.7311;stroke-linecap:round;stroke-linejoin:round;stroke-miterlimit:10;}
	.st46{fill:url(#SVGID_5_);}
	.st47{fill:url(#SVGID_6_);}
	.st48{fill:url(#SVGID_7_);}
	.st49{fill:url(#SVGID_8_);}
	.st50{fill:url(#SVGID_9_);}
	.st51{fill:url(#SVGID_10_);}
	.st52{fill:url(#SVGID_11_);}
	.st53{fill:url(#SVGID_12_);}
	.st54{fill:url(#SVGID_13_);}
	.st55{fill:url(#SVGID_14_);}
	.st56{fill:url(#SVGID_15_);}
	.st57{opacity:0.65;clip-path:url(#SVGID_17_);fill:url(#SVGID_18_);}
	.st58{opacity:0.65;clip-path:url(#SVGID_20_);fill:#C0C2C4;}
</style>
<g>
	<path class="st27" d="M21.4,46.3c0,2.3-1.9,4.2-4.2,4.2c-2.3,0-4.2-1.9-4.2-4.2s1.9-4.2,4.2-4.2C19.5,42,21.4,43.9,21.4,46.3z"/>
	<path class="st27" d="M50.9,46.3c0,2.3-1.9,4.2-4.2,4.2c-2.3,0-4.2-1.9-4.2-4.2s1.9-4.2,4.2-4.2C49,42,50.9,43.9,50.9,46.3z"/>
	<path class="st28" d="M62.3,48.9l-7.9-3.4c0,0.3,0,0.5,0,0.8c0,0.9-0.2,1.8-0.5,2.6H62.3z"/>
	<path class="st28" d="M40.2,42H30.1v-6c0,0-3.4,0-4.9,0c-1.2,0-3,2.4-3.9,3.7c2.2,1.4,3.6,3.8,3.6,6.6c0,0.9-0.2,1.8-0.5,2.6h15
		c-0.3-0.8-0.5-1.7-0.5-2.6C38.9,44.7,39.4,43.3,40.2,42z"/>
	<path class="st28" d="M12.3,40.3l-6-1.2v4.4l3.3,1.3C9.9,43,10.9,41.4,12.3,40.3z"/>
	<polygon class="st28" points="6.3,33.8 13.7,35.3 13.7,37.8 6.3,36.3 	"/>
	<line class="st27" x1="1.5" y1="50.5" x2="68.5" y2="50.5"/>
</g>
</svg>
